<svg xmlns="http://www.w3.org/2000/svg" width="375" viewBox="0 0 375 375" height="375" version="1.0"><defs><clipPath id="a"><path d="M 16.421875 106.621094 L 170.171875 106.621094 L 170.171875 260.371094 L 16.421875 260.371094 Z M 16.421875 106.621094"/></clipPath><clipPath id="b"><path d="M 208.046875 110.503906 L 361.796875 110.503906 L 361.796875 264.253906 L 208.046875 264.253906 Z M 208.046875 110.503906"/></clipPath><clipPath id="c"><path d="M 203 178 L 231 178 L 231 216.980469 L 203 216.980469 Z M 203 178"/></clipPath></defs><path fill="#FFB905" d="M 300.574219 56.609375 L 300.796875 56.695312 L 300.746094 56.632812 L 300.523438 56.464844 C 300.59375 56.566406 300.519531 56.519531 300.574219 56.609375"/><path fill="#FFB905" d="M 193.378906 338.15625 C 193.589844 338.125 193.785156 338.101562 193.992188 338.066406 C 197.222656 337.742188 200.964844 337.363281 204.703125 336.988281 C 205.316406 336.863281 205.945312 336.757812 206.5625 336.644531 C 213.667969 336.53125 220.65625 335.960938 227.496094 334.914062 C 226.625 335.289062 225.753906 335.675781 224.859375 336.09375 C 223.792969 336.542969 222.765625 337.007812 221.710938 337.449219 C 212.3125 338.488281 202.828125 338.71875 193.378906 338.15625 Z M 86.542969 288.433594 C 81.160156 284.664062 77.136719 280.839844 71.679688 275.492188 C 69.808594 273.78125 67.984375 270.316406 67.019531 268.3125 C 66.113281 266.242188 66.082031 265.453125 66.953125 266.023438 C 68.085938 266.769531 69.664062 268.351562 71.996094 271.449219 C 74.910156 274.929688 78.132812 278.128906 81.105469 281.433594 C 85.632812 286.054688 89.679688 288.699219 91.777344 289.660156 C 92.140625 289.832031 92.578125 290.078125 93.050781 290.347656 L 93.398438 290.730469 C 95.15625 292.710938 97.257812 294.339844 99.167969 296.160156 L 102.242188 298.960938 C 100.773438 298.160156 98.894531 296.945312 96.890625 295.601562 C 92.507812 292.941406 89.027344 289.589844 86.542969 288.433594 Z M 63.003906 263.699219 C 61.902344 262.855469 60.402344 260.328125 59.457031 258.050781 C 59.15625 257.335938 59.179688 257.007812 59.054688 256.5 C 59.367188 256.828125 59.617188 257 60 257.523438 C 61.085938 258.910156 62.007812 260.886719 62.84375 262.398438 C 63.449219 263.53125 63.527344 264.164062 63.003906 263.699219 Z M 55.890625 260.179688 C 55.511719 259.496094 55.101562 258.5 54.789062 257.75 C 54.699219 257.535156 54.894531 257.671875 54.972656 257.648438 C 55.4375 258.152344 56.058594 259.082031 56.847656 260.742188 C 57.042969 261.144531 57.222656 261.636719 57.257812 261.828125 C 57.382812 262.460938 56.765625 261.773438 55.890625 260.179688 Z M 48.726562 249.355469 C 48.492188 248.917969 47.835938 247.1875 47.71875 246.695312 C 47.59375 246.171875 47.75 245.996094 48 246.394531 C 48.464844 247.144531 49.089844 248.421875 49.648438 249.480469 C 49.832031 250.390625 50.265625 251.640625 50.164062 251.5 C 49.730469 251.136719 49.277344 250.355469 48.726562 249.355469 Z M 181.117188 11.335938 C 184.9375 10.988281 189.113281 10.90625 193.257812 10.671875 C 193.894531 10.644531 195.226562 10.785156 196.085938 10.871094 C 196.425781 10.90625 196.371094 11 196.496094 11.070312 C 196.140625 11.191406 196.078125 11.351562 195.390625 11.433594 C 190.75 12.109375 185.445312 12.125 179.101562 12.929688 C 178.667969 12.984375 177.757812 13.042969 177.515625 13.023438 C 176.890625 12.96875 176.066406 12.910156 176.109375 12.792969 C 176.292969 12.335938 178.21875 11.808594 181.117188 11.335938 Z M 184.027344 9.597656 C 184.308594 9.617188 184.75 9.644531 185.125 9.667969 C 184.945312 9.710938 184.832031 9.78125 184.554688 9.789062 C 184.265625 9.769531 183.828125 9.738281 183.449219 9.714844 C 183.632812 9.671875 183.75 9.605469 184.027344 9.597656 Z M 249.636719 27.515625 C 249.886719 27.578125 250.53125 27.859375 250.996094 28.039062 C 251.160156 28.171875 251.527344 28.402344 251.425781 28.414062 C 251.324219 28.429688 250.796875 28.292969 250.449219 28.144531 C 249.042969 27.542969 248.710938 27.285156 249.636719 27.515625 Z M 260.550781 33.207031 C 261.25 33.492188 262.269531 34.042969 263.257812 34.628906 C 262.867188 34.484375 262.480469 34.328125 262.089844 34.183594 C 259.9375 33.359375 257.808594 32.546875 255.699219 31.738281 C 257.292969 32.199219 258.917969 32.609375 260.550781 33.207031 Z M 271.324219 37.050781 C 273.378906 37.984375 275.214844 39.125 276.679688 40.453125 C 277.046875 40.765625 277.382812 41.0625 277.707031 41.351562 C 276.855469 40.949219 276.003906 40.554688 275.175781 40.125 C 273.527344 39.324219 271.890625 38.527344 270.257812 37.730469 C 269.839844 37.429688 269.429688 37.132812 269.105469 36.84375 C 267.921875 35.863281 268.863281 35.859375 271.324219 37.050781 Z M 288.09375 45.792969 C 289.710938 46.984375 291.355469 48.199219 293.046875 49.449219 C 294.839844 50.808594 296.539062 52.292969 297.96875 53.710938 C 298.605469 54.390625 299.238281 55.003906 299.847656 55.640625 L 299.183594 55.144531 L 295.304688 52.210938 C 294.023438 51.214844 292.738281 50.222656 291.324219 49.410156 C 289.605469 48.355469 287.753906 47.21875 285.878906 46.070312 C 285.464844 45.605469 285.042969 45.144531 284.664062 44.691406 C 283.609375 43.425781 284.75 43.804688 288.09375 45.792969 Z M 298.515625 52.03125 C 298.921875 52.253906 299.972656 53.019531 300.648438 53.59375 C 302.074219 54.726562 302.582031 55.820312 301.816406 55.246094 C 301.421875 54.949219 300.429688 54.1875 299.699219 53.636719 C 298.363281 52.457031 297.667969 51.578125 298.515625 52.03125 Z M 312.105469 62.625 C 315.136719 65.214844 317.636719 68.503906 320.449219 71.445312 L 317.273438 69.515625 C 314.949219 67.039062 313.21875 65.347656 310.203125 62.53125 C 309.644531 61.980469 308.707031 60.832031 308.636719 60.625 C 308.351562 59.746094 309.875 60.613281 312.105469 62.625 Z M 320.738281 71.757812 C 321.375 71.4375 324.359375 73.390625 327.992188 78.285156 C 330.007812 80.90625 331.796875 83.59375 333.703125 86.574219 C 334.722656 88.105469 335.570312 89.242188 335.984375 89.644531 C 336.253906 89.867188 336.4375 89.917969 336.605469 89.9375 C 337.054688 89.984375 337.917969 90.921875 339.453125 93.523438 C 342.011719 98.023438 344.46875 101.273438 345.960938 103.6875 C 346.175781 104.007812 346.921875 105.699219 347.21875 106.515625 C 347.523438 107.351562 347.742188 108.265625 347.710938 108.496094 C 347.625 109.175781 347.308594 109.347656 347.230469 110.039062 C 347.089844 111.300781 346.546875 111.261719 344.007812 105.707031 C 343.234375 103.960938 342.359375 102.625 341.519531 101.636719 C 341.007812 100.980469 340.589844 100.546875 340.179688 100.128906 C 338.679688 97.625 337.1875 95.117188 335.574219 92.683594 L 328.527344 83.300781 L 326.742188 80.972656 L 324.753906 78.800781 L 324.148438 78.140625 C 323.984375 77.070312 322.890625 74.867188 320.714844 71.730469 Z M 352.101562 114.816406 C 352.5625 115.523438 353.21875 116.644531 353.65625 117.9375 C 353.828125 118.398438 354.078125 119.648438 354.292969 120.539062 C 354.167969 121.105469 353.71875 120.398438 352.894531 118.128906 C 352.640625 117.371094 352.144531 115.921875 351.957031 115.371094 C 351.800781 114.804688 351.871094 114.460938 352.101562 114.816406 Z M 281.308594 44.476562 L 280.328125 43.875 C 278.617188 42.929688 276.863281 42.0625 275.101562 41.203125 C 274.003906 40.285156 272.8125 39.46875 271.691406 38.71875 C 274.050781 39.835938 276.378906 41.003906 278.679688 42.230469 C 279.453125 42.9375 280.261719 43.65625 281.308594 44.476562 Z M 307.855469 62.0625 C 309.394531 63.253906 310.941406 64.660156 312.507812 66.25 C 310.957031 64.859375 309.402344 63.46875 307.855469 62.0625 Z M 320.855469 79.199219 C 321.71875 80.171875 322.648438 81.269531 323.613281 82.429688 C 323.050781 81.78125 322.246094 80.867188 321.617188 80.167969 C 321.136719 79.648438 320.648438 79.109375 320.160156 78.574219 C 320.394531 78.789062 320.613281 78.976562 320.855469 79.199219 Z M 263.03125 38.210938 C 262.300781 37.960938 261.71875 37.804688 261.597656 37.804688 C 261.417969 37.804688 262.082031 38.097656 263.160156 38.523438 C 263.265625 38.734375 263.398438 38.964844 263.554688 39.207031 C 262.007812 38.699219 260.5625 38.226562 259.179688 37.769531 C 258.679688 37.578125 258.167969 37.417969 257.664062 37.230469 C 257.832031 36.914062 257.335938 36.300781 256.121094 35.363281 C 257.25 35.777344 258.371094 36.1875 259.503906 36.601562 C 260.636719 37.046875 261.800781 37.433594 262.957031 37.84375 C 262.964844 37.957031 262.984375 38.078125 263.03125 38.210938 Z M 277.886719 46.136719 C 277.652344 46.027344 277.71875 46.179688 277.851562 46.378906 C 276.449219 45.617188 275.039062 44.859375 273.605469 44.140625 C 274.804688 44.671875 275.992188 45.203125 277.21875 45.75 C 277.773438 46.019531 278.308594 46.304688 278.835938 46.601562 C 278.519531 46.449219 278.203125 46.296875 277.886719 46.136719 Z M 267.5625 40.917969 C 267.703125 40.851562 267.886719 40.8125 268.128906 40.804688 C 268.585938 41.035156 269.042969 41.269531 269.507812 41.488281 C 271.359375 42.398438 273.605469 43.503906 274.058594 43.824219 C 274.65625 44.253906 272.078125 43.011719 270.382812 42.222656 C 269.40625 41.78125 268.480469 41.347656 267.5625 40.917969 Z M 271.921875 42.003906 C 272.613281 42.445312 271.074219 41.730469 269.558594 41.019531 C 269.976562 41.132812 270.488281 41.308594 271.042969 41.515625 C 271.441406 41.722656 271.753906 41.894531 271.921875 42.003906 Z M 213.292969 24.308594 C 213.410156 24.296875 213.523438 24.277344 213.65625 24.265625 C 215.449219 24.160156 217.746094 24.402344 220.933594 24.964844 C 218.398438 24.683594 215.851562 24.464844 213.292969 24.308594 Z M 148.363281 37.476562 L 144.382812 38.539062 C 144 38.632812 143.570312 38.675781 143.417969 38.660156 C 143.277344 38.640625 143.351562 38.5 143.542969 38.433594 C 144.367188 38.160156 145.6875 37.707031 146.074219 37.644531 C 147.023438 37.507812 147.644531 37.511719 148.363281 37.476562 Z M 114.703125 55.714844 C 114.710938 55.707031 114.710938 55.703125 114.714844 55.699219 C 116.042969 54.703125 117.378906 53.734375 118.789062 52.867188 C 117.785156 53.441406 116.820312 54.089844 115.859375 54.757812 C 117.875 53.144531 120.121094 51.597656 123.683594 49.4375 C 125.554688 48.339844 127.097656 47.101562 128.363281 46.40625 C 130.59375 44.988281 133.460938 43.585938 137.695312 41.917969 C 143.066406 39.902344 146.691406 38.839844 148.695312 37.40625 C 150.351562 36.742188 151.992188 36.085938 153.609375 35.4375 C 155.273438 34.957031 156.921875 34.484375 158.542969 34.015625 C 161.796875 33.019531 164.953125 32.054688 168 31.117188 C 170.125 30.738281 172.175781 30.277344 174.199219 29.808594 C 174.289062 29.800781 174.375 29.789062 174.464844 29.777344 C 175.992188 29.554688 177.492188 29.320312 178.199219 29.136719 C 178.054688 29.097656 177.238281 29.195312 176.25 29.335938 C 178.414062 28.828125 180.515625 28.355469 182.566406 27.941406 C 183.199219 27.863281 183.859375 27.78125 184.578125 27.683594 C 186.457031 27.417969 188.597656 27.066406 190.816406 27.03125 C 193.308594 26.894531 195.804688 26.757812 198.304688 26.621094 C 199.351562 26.621094 199.960938 26.605469 200.226562 26.515625 C 200.808594 26.484375 201.394531 26.453125 201.976562 26.417969 C 203.832031 26.242188 205.6875 26.359375 207.535156 26.449219 C 209.382812 26.527344 211.226562 26.609375 213.058594 26.6875 L 219.070312 26.953125 C 221.078125 27.039062 223.046875 27.480469 225.03125 27.738281 C 228.976562 28.386719 232.957031 28.828125 236.792969 29.691406 C 240.867188 30.824219 244.960938 31.78125 248.992188 32.945312 C 249.238281 33.183594 249.730469 33.539062 250.542969 34.039062 C 251.558594 34.671875 250.746094 34.585938 249.496094 34.195312 C 242.550781 31.679688 235.167969 30.71875 227.902344 29.1875 C 222.898438 28.648438 217.699219 28.011719 214.125 27.929688 C 213.921875 27.945312 213.699219 27.957031 213.492188 27.972656 C 210.398438 27.785156 207.296875 27.660156 204.160156 27.660156 C 169.9375 27.660156 138.328125 38.792969 112.714844 57.605469 C 113.375 56.976562 114.042969 56.347656 114.703125 55.714844 Z M 49.796875 164.683594 C 49.742188 165.164062 49.667969 165.648438 49.613281 166.132812 C 49.617188 166.105469 49.617188 166.082031 49.621094 166.050781 C 49.648438 165.710938 49.714844 165.175781 49.796875 164.683594 Z M 50.214844 168.222656 C 50.113281 168.46875 50.011719 168.667969 49.910156 168.917969 C 49.707031 168.972656 49.597656 168.574219 49.574219 167.804688 C 49.714844 166.332031 49.886719 164.863281 50.097656 163.398438 C 50.398438 162.632812 50.628906 162.683594 50.730469 163.46875 C 50.535156 165.046875 50.363281 166.628906 50.214844 168.222656 Z M 326.621094 81.523438 C 329.148438 84.773438 331.746094 88.21875 334.304688 91.710938 L 335.714844 93.664062 L 336.953125 95.726562 L 338.601562 98.460938 C 336.570312 96.171875 334.40625 93.078125 331.164062 88.765625 C 329.441406 86.625 327.976562 85.046875 326.316406 83.035156 C 326.160156 82.820312 326.011719 82.613281 325.855469 82.402344 C 325.65625 82.164062 325.445312 81.9375 325.242188 81.699219 C 324.535156 80.800781 323.78125 79.796875 322.949219 78.625 C 323.003906 78.613281 323.042969 78.578125 323.140625 78.632812 C 323.621094 78.917969 323.941406 78.953125 324.089844 78.773438 C 324.933594 79.6875 325.792969 80.621094 326.621094 81.523438 Z M 300.746094 56.632812 L 305.414062 60.210938 C 308.933594 63.15625 312.3125 66.257812 315.542969 69.507812 C 317.28125 71.484375 319.054688 73.652344 320.882812 76.011719 C 321.484375 76.785156 322.132812 77.519531 322.6875 78.324219 C 322.492188 78.269531 322.246094 78.144531 321.976562 77.980469 C 321.730469 77.703125 321.476562 77.421875 321.238281 77.144531 C 315.421875 70.105469 308.460938 63.71875 300.925781 57.804688 C 301.144531 57.746094 301.089844 57.414062 300.574219 56.609375 C 299.8125 56.222656 299.171875 56.03125 299.226562 56.464844 C 296.421875 54.316406 293.542969 52.226562 290.617188 50.203125 L 287.785156 48.457031 C 287.746094 48.386719 287.726562 48.332031 287.660156 48.242188 C 287.253906 47.660156 286.78125 47.109375 286.304688 46.566406 C 291.121094 49.492188 295.78125 52.660156 300.242188 56.078125 C 300.40625 56.261719 300.585938 56.429688 300.746094 56.632812 Z M 265.035156 35.765625 C 265.675781 36.203125 266.160156 36.582031 266.265625 36.769531 C 266.308594 36.84375 266.363281 36.925781 266.417969 37.007812 C 263.765625 35.851562 261.015625 34.910156 258.296875 33.886719 C 254.496094 32.480469 250.71875 30.972656 246.730469 30.105469 C 244.660156 29.492188 242.5625 28.933594 240.449219 28.410156 C 240.59375 28.195312 241.144531 28.113281 242.042969 28.191406 C 249.894531 30.113281 257.582031 32.660156 265.035156 35.765625 Z M 81.363281 279.910156 C 81.207031 279.792969 81.089844 279.773438 80.890625 279.546875 C 80.738281 279.328125 80.453125 278.929688 80.230469 278.609375 C 80.382812 278.71875 80.503906 278.746094 80.703125 278.96875 C 80.855469 279.1875 81.136719 279.589844 81.363281 279.910156 Z M 103.453125 299.554688 L 101.742188 297.984375 C 99.320312 295.769531 96.902344 293.5625 94.492188 291.355469 C 94.390625 291.253906 94.292969 291.140625 94.1875 291.035156 C 94.441406 291.191406 94.671875 291.332031 94.949219 291.503906 C 97.789062 294.34375 100.730469 297.082031 103.785156 299.691406 C 103.683594 299.652344 103.566406 299.601562 103.453125 299.554688 Z M 356.121094 138.476562 C 356.929688 141.855469 357.867188 145.734375 357.796875 146.214844 C 357.703125 146.859375 356.332031 141.5625 355.367188 138.15625 C 355.003906 136.886719 354.976562 136.914062 355.136719 137.566406 C 356.054688 141.128906 356.953125 144.585938 357.832031 147.984375 L 358.476562 150.515625 L 358.871094 153.078125 C 359.132812 154.78125 359.394531 156.464844 359.652344 158.144531 C 360.15625 159.523438 360.40625 160.21875 360.765625 161.984375 C 360.921875 162.871094 361.128906 164.015625 361.421875 165.652344 C 361.488281 166.257812 361.542969 166.960938 361.59375 167.71875 C 361.214844 167.332031 360.832031 167.078125 360.433594 167.066406 C 359.835938 167.039062 359.265625 168.136719 358.71875 171.246094 C 358.632812 171.738281 358.550781 172.242188 358.464844 172.742188 C 356.121094 133.949219 339.421875 99.058594 313.648438 73.203125 C 315.09375 74.265625 316.636719 75.480469 318.351562 76.960938 C 319.46875 78.167969 320.628906 79.429688 321.859375 80.789062 C 323.121094 82.148438 324.773438 83.992188 324.261719 83.21875 C 326.21875 85.609375 328.359375 88.367188 330.777344 91.722656 C 332.730469 95.023438 334.414062 97.308594 335.050781 97.386719 C 335.171875 97.398438 335.320312 97.46875 335.476562 97.574219 C 335.789062 98.039062 336.082031 98.464844 336.335938 98.796875 C 337.148438 99.886719 338.144531 101.382812 339.316406 103.230469 C 340.449219 105.09375 341.964844 107.195312 343.128906 109.871094 C 344.414062 112.488281 345.6875 115.097656 346.960938 117.699219 C 347.578125 119.007812 348.277344 120.285156 348.832031 121.617188 L 350.359375 125.675781 C 350.964844 127.296875 351.292969 128.011719 351.320312 127.867188 C 351.347656 127.726562 351.007812 126.664062 350.492188 125.179688 C 350.335938 124.722656 350.144531 124.191406 349.984375 123.742188 L 349.066406 121.28125 C 348.730469 120.476562 348.316406 119.707031 347.945312 118.921875 C 347.1875 117.355469 346.433594 115.796875 345.679688 114.242188 C 344.929688 112.6875 344.183594 111.136719 343.441406 109.59375 L 342.324219 107.28125 L 341.003906 105.085938 C 340.253906 103.832031 339.511719 102.589844 338.765625 101.34375 C 339.082031 101.773438 339.40625 102.21875 339.746094 102.695312 C 341.234375 104.53125 341.972656 106.203125 343.257812 108.191406 C 344.1875 109.925781 345.339844 112.070312 346.410156 114.066406 C 348.59375 117.632812 350.199219 124.453125 351.566406 126.679688 C 351.734375 126.960938 351.890625 127.203125 352.039062 127.421875 L 352.316406 128.113281 C 352.257812 127.929688 352.210938 127.757812 352.160156 127.582031 C 352.480469 128.027344 352.773438 128.359375 353.054688 128.636719 C 353.105469 128.78125 353.15625 128.925781 353.207031 129.074219 C 354.269531 132.195312 355.488281 135.265625 356.121094 138.476562 Z M 112.429688 350.660156 C 111.820312 350.660156 109.230469 349.429688 107.101562 348.121094 C 104.832031 346.722656 103.523438 345.664062 104.003906 345.628906 C 104.476562 345.589844 107.097656 346.855469 109.4375 348.25 C 111.75 349.621094 113.042969 350.65625 112.429688 350.660156 Z M 36.617188 116.59375 C 36.328125 117.390625 35.734375 118.761719 35.34375 119.523438 C 34.949219 120.289062 34.476562 120.984375 34.308594 121.085938 C 33.871094 121.34375 34.148438 120.117188 34.824219 118.210938 C 35.105469 117.414062 35.6875 116.019531 36.0625 115.289062 C 36.441406 114.554688 36.726562 114.3125 37.050781 113.863281 C 37.335938 113.933594 37.351562 114.558594 36.617188 116.59375 Z M 35.691406 219.320312 C 35.433594 219.460938 34.84375 217.8125 34.410156 215.71875 C 33.996094 213.691406 33.632812 210.847656 33.738281 210.121094 C 33.855469 209.324219 34.042969 208.855469 34.152344 208.445312 C 34.472656 208.894531 34.644531 209.09375 34.839844 209.425781 C 35.195312 210.03125 35.875 213.28125 36.007812 214.953125 C 36.230469 217.777344 36.09375 219.097656 35.691406 219.320312 Z M 31.28125 139.820312 C 31.121094 140.949219 30.898438 142.492188 30.722656 143.746094 C 30.53125 144.390625 30.359375 144.984375 30.289062 145.21875 C 30.1875 145.453125 30.074219 145.550781 30.074219 145.335938 C 30.164062 142.8125 29.855469 140.414062 31.113281 136.003906 C 31.320312 135.175781 31.789062 133.714844 32.09375 132.960938 C 32.347656 132.335938 32.777344 131.78125 32.71875 132.125 C 32.265625 134.550781 31.785156 137.132812 31.28125 139.820312 Z M 31.445312 201.914062 C 31.398438 202.40625 31.183594 202.484375 31.082031 201.96875 C 30.105469 196.3125 28.566406 190.320312 28.195312 185.238281 C 28.117188 184.605469 28.117188 183.257812 28.089844 182.207031 C 28.042969 180.308594 28.34375 177.121094 28.582031 176.957031 C 28.710938 177.144531 28.886719 176.96875 28.957031 177.585938 C 29.609375 183.761719 29.976562 190.929688 31.371094 199.09375 C 31.464844 199.765625 31.496094 201.398438 31.445312 201.914062 Z M 369.71875 202.640625 L 368.460938 192.988281 C 367.992188 189.765625 367.777344 185.964844 367.050781 183.515625 C 366.492188 181.804688 365.964844 179.917969 365.441406 177.785156 C 364.28125 173.035156 363.058594 169.332031 361.707031 167.820312 C 361.347656 162.820312 360.484375 158.1875 359.9375 153.652344 C 359.617188 151.292969 359.671875 150.964844 360.035156 152.824219 C 360.378906 154.695312 360.8125 157.035156 361.261719 159.484375 C 361 157.535156 360.738281 155.574219 360.480469 153.660156 C 360.222656 151.746094 360.019531 149.867188 359.550781 148.148438 C 358.320312 142.957031 357.261719 138.332031 355.820312 134.207031 C 355.238281 132.828125 354.597656 131.207031 353.921875 129.457031 C 354.105469 129.632812 354.289062 129.820312 354.488281 130.050781 C 355.339844 131.09375 356.316406 132.15625 357.175781 133.574219 C 357.585938 134.28125 358.117188 135.820312 358.675781 138.226562 L 360.1875 144.984375 C 361.570312 150.53125 361.882812 154.636719 362.847656 157.695312 C 363.320312 159.632812 363.925781 162.109375 364.449219 164.253906 C 364.914062 166.113281 365.296875 166.644531 365.667969 166.695312 C 366.484375 166.824219 366.742188 163.695312 366.425781 157.257812 L 366.476562 157.507812 C 366.039062 154.9375 365.628906 152.1875 365.394531 149.015625 C 363.785156 140.398438 362.460938 132.304688 359.457031 124.832031 C 358.054688 121.089844 356.96875 117.265625 355.308594 113.667969 C 353.625 110.082031 351.941406 106.496094 350.242188 102.867188 C 347.445312 96.898438 343.730469 91.480469 340.554688 85.957031 C 336.8125 80.78125 333.121094 75.710938 329.25 71.054688 C 323.847656 65.226562 318.375 58.773438 311.609375 52.515625 C 306.492188 47.03125 300.792969 43.25 296.753906 40.648438 C 295.886719 40.058594 294.421875 39.070312 293.242188 38.265625 C 291.339844 37.195312 289.382812 35.742188 287.285156 33.859375 C 285.710938 32.445312 283.441406 30.855469 282.769531 30.734375 C 280.691406 30.167969 275.421875 27.882812 269.878906 25.335938 L 268.554688 24.746094 C 266.230469 23.671875 263.78125 22.371094 260.882812 21.15625 C 259.5 20.523438 257.324219 19.660156 256.421875 19.410156 C 249.777344 17.21875 240.691406 15.328125 233.636719 13.992188 C 230.417969 13.597656 226.761719 13.148438 222.9375 12.679688 C 219.128906 12.15625 215.171875 11.550781 211.234375 11.570312 C 209.335938 11.503906 206.042969 10.921875 205.996094 10.632812 C 205.734375 9.351562 208.472656 7.835938 220.300781 9.277344 L 225.007812 9.988281 C 230.402344 10.765625 234.257812 11.0625 236.722656 11.289062 C 238.871094 11.371094 240.589844 11.28125 244.832031 12.183594 C 250.691406 13.164062 255.847656 15.132812 261.671875 16.867188 C 266.871094 18.40625 269.695312 19.402344 272.515625 20.125 C 273.589844 20.410156 273.023438 19.773438 271.585938 18.71875 C 269.503906 17.121094 266.773438 15.371094 263.074219 13.964844 C 252.972656 9.488281 242.207031 5.984375 231.851562 3.808594 C 219.417969 1.40625 206.539062 -0.00390625 193.738281 0.300781 C 182.671875 0.257812 171.421875 1.738281 161.992188 3.675781 C 159.136719 4.402344 155.734375 5.269531 152.496094 6.09375 C 147.59375 7.132812 142.796875 8.722656 138.046875 10.519531 C 135.207031 11.527344 133.875 11.664062 132.21875 11.925781 C 130.964844 12.121094 128.480469 12.894531 127.734375 13.460938 C 127.164062 13.820312 126.066406 14.386719 126.023438 14.535156 C 125.683594 15.707031 120.96875 18.164062 114.859375 21.164062 C 109.824219 24.027344 105.703125 26.949219 101.4375 29.734375 C 98.4375 31.65625 95.726562 33.941406 91.699219 36.242188 C 88.25 38.351562 85.652344 40.1875 83.96875 42.101562 C 82.859375 43.246094 82.285156 44.058594 81.738281 44.828125 C 80.992188 45.867188 79.832031 47.207031 77.40625 49.230469 C 70.808594 54.652344 67.402344 59.542969 65.25 62.644531 C 64.550781 63.710938 62.878906 65.667969 61.722656 67.535156 C 58.132812 73.054688 54.25 78.070312 51.070312 84.28125 C 49.464844 87.070312 47.78125 89.996094 46.066406 92.984375 C 44.609375 96.09375 43.128906 99.261719 41.664062 102.394531 C 41.480469 102.792969 40.421875 104.421875 40.121094 104.757812 C 39.09375 105.90625 39.039062 105.261719 39.355469 104.039062 C 40.121094 101.089844 41.605469 97.054688 43.425781 92.535156 C 44.300781 90.542969 45.90625 88.28125 47.765625 85.625 C 52.671875 78.773438 52.613281 78.71875 52.480469 77.207031 C 52.464844 77.011719 52.429688 76.816406 52.757812 76.261719 C 53.070312 75.730469 53.804688 74.699219 54.425781 73.960938 L 57.945312 70.015625 C 60.222656 67.425781 61.871094 65.019531 61.148438 65.34375 C 60.570312 65.597656 59.804688 66.089844 59.101562 66.507812 C 58.160156 67.058594 57.855469 66.859375 59.105469 64.957031 C 62.15625 60.417969 65.960938 56.25 69.523438 51.714844 C 69.929688 51.265625 71.195312 49.941406 72.046875 49.355469 C 72.941406 48.765625 73.527344 48.375 74.382812 47.808594 C 75.171875 47.261719 76.308594 46.464844 76.90625 45.9375 C 77.550781 45.367188 78.0625 44.738281 78.085938 44.566406 C 78.148438 43.972656 77.933594 43.601562 77.910156 43.078125 C 77.878906 42.511719 79.265625 40.910156 82.222656 38.394531 C 86.179688 35.246094 89.515625 33.011719 91.683594 30.886719 C 92.859375 29.808594 95.277344 27.929688 97.421875 26.414062 C 100.605469 24.464844 104.066406 22.347656 107.226562 20.410156 C 113.632812 16.464844 114.226562 15.539062 108.832031 17.386719 C 107.28125 17.988281 105.566406 18.652344 103.867188 19.308594 C 100.738281 20.65625 96.785156 22.222656 92.902344 24.824219 C 90.785156 26.253906 88.597656 27.730469 86.589844 29.089844 C 79.355469 33.792969 72.972656 39.871094 66.460938 45.480469 C 60.535156 51.714844 54.449219 57.625 49.917969 64.21875 C 47.726562 67.355469 44.515625 70.695312 42.367188 74.351562 C 39.332031 79.253906 35.925781 83.96875 33.363281 88.984375 C 30.859375 94.03125 28.3125 98.875 26.359375 103.589844 C 24.109375 110.246094 21.066406 116.816406 19.476562 123.871094 C 17.824219 130.320312 15.90625 136.703125 15.1875 143.167969 C 14.15625 149.5625 13.277344 155.78125 13.34375 161.710938 C 13.167969 167.535156 12.921875 173.464844 13.546875 179.480469 C 13.945312 185.492188 14.195312 191.585938 15.410156 197.644531 C 16.183594 201.914062 16.613281 206.371094 17.675781 210.8125 C 18.78125 215.242188 19.910156 219.765625 21.050781 224.332031 C 21.820312 227.660156 23.011719 230.285156 23.929688 232.390625 C 25.136719 234.910156 26.535156 238.238281 27.929688 241.675781 C 31.785156 249.21875 35.300781 257.171875 40.277344 264.257812 C 41.304688 265.847656 42.425781 267.621094 43.542969 269.589844 C 46.972656 275.578125 50.199219 278.761719 52.710938 281.632812 C 54.46875 283.605469 56.957031 286.585938 59.207031 288.515625 C 61.679688 290.773438 64.953125 295.113281 67.808594 298.074219 C 69.371094 299.460938 70.945312 300.859375 72.328125 302.085938 C 78.804688 308.011719 86.113281 312.925781 92.066406 316.574219 C 96.085938 318.988281 101.136719 321.421875 105.851562 324.046875 C 107.148438 324.8125 109.171875 326.027344 111.027344 326.863281 C 115.09375 327.886719 120.339844 330.230469 125.996094 331.914062 C 130.441406 333.183594 134.996094 334.476562 139.570312 335.78125 C 144.207031 336.625 148.863281 337.472656 153.421875 338.304688 C 160.734375 339.191406 168.566406 339.886719 173.210938 339.371094 C 173.890625 339.265625 174.734375 339.164062 175.9375 339.179688 C 182.273438 339.199219 186.734375 339.085938 191.941406 338.371094 C 191.980469 338.371094 192.015625 338.375 192.050781 338.375 C 196.449219 338.558594 200.851562 338.949219 205.25 338.960938 C 209.644531 338.757812 214.039062 338.554688 218.429688 338.355469 C 218.835938 338.308594 219.234375 338.257812 219.636719 338.210938 C 216.082031 339.269531 211.828125 340.328125 205.835938 341.335938 C 201.210938 341.859375 197.523438 342.28125 194.023438 342.675781 C 191.988281 342.925781 189.878906 343.183594 187.6875 343.449219 C 185.480469 343.453125 183.191406 343.453125 180.800781 343.453125 C 176.003906 343.386719 170.726562 343.4375 165.03125 342.335938 C 161.679688 341.824219 158.472656 341.433594 156.003906 341.257812 C 152.445312 340.90625 150.046875 340.601562 144.539062 339.15625 C 143.285156 338.8125 142.277344 338.742188 141.867188 338.808594 C 140.5 339.058594 137.710938 338.695312 134.125 337.492188 C 131.796875 336.785156 129.28125 336.011719 127.851562 335.785156 C 123.652344 335.347656 117.140625 332.472656 110.664062 329.617188 C 105.078125 327.425781 99.914062 323.871094 94.425781 320.964844 C 89.097656 317.816406 84.257812 314.082031 79.46875 311.007812 C 78.40625 310.324219 77.191406 309.15625 76.101562 308.242188 C 71.121094 303.859375 65.757812 299.773438 61.3125 294.765625 C 59.332031 292.703125 57.441406 290.867188 55.289062 288.417969 C 50.613281 282.519531 47.023438 277.992188 43.335938 273.339844 C 38.898438 266.457031 33.851562 259.730469 30.300781 252.277344 C 29.449219 250.679688 28.625 249.222656 27.898438 248.035156 C 25.378906 244.296875 23.421875 239.40625 21.234375 234.160156 C 18.863281 228.960938 17.125 223.160156 15.542969 217.355469 C 13.417969 210.921875 12.308594 203.742188 11.128906 197.527344 C 10.25 193.515625 9.613281 189.308594 9.394531 184.960938 C 9.058594 180.625 8.65625 176.183594 8.445312 171.707031 C 8.734375 162.773438 8.546875 153.636719 9.898438 145.128906 C 10.027344 144.183594 10.183594 143.042969 10.324219 142.023438 C 11.097656 133.765625 13.578125 126.035156 15.414062 117.679688 C 17.027344 112.820312 17.90625 109.671875 17.980469 107.894531 C 18.085938 105.789062 18.195312 103.679688 18.109375 102 C 18.070312 101.203125 17.109375 102.492188 15.742188 105.074219 C 14.75 106.945312 13.546875 109.328125 12.554688 111.59375 C 7.667969 123.425781 4.078125 135.78125 2.347656 147.828125 C 1.003906 153.839844 1 160.449219 0.347656 166.859375 C -0.257812 172.011719 0.078125 177.09375 0.15625 182.109375 C 0.304688 187.125 0.304688 192.085938 1.125 196.941406 C 2.578125 210.269531 5.320312 223.863281 9.714844 236.789062 C 10.703125 239.726562 11.730469 242.773438 12.753906 245.8125 C 13.136719 247.003906 13.511719 248.363281 14.0625 249.570312 C 15.054688 251.957031 15.660156 254 15.492188 254.476562 C 15.144531 255.449219 15.53125 256.585938 17.757812 261.113281 C 18.511719 262.609375 19.191406 263.949219 19.949219 265.445312 C 20.789062 267.035156 21.84375 269.046875 22.074219 269.996094 C 22.308594 270.855469 22.289062 271.292969 22.652344 272.355469 C 22.84375 272.921875 23.597656 274.511719 24.117188 275.457031 C 24.652344 276.445312 25.382812 277.578125 25.726562 278 C 26.3125 278.707031 26.75 279.078125 27.082031 279.273438 C 28.984375 280.539062 32.644531 284.492188 38.992188 292.796875 C 41.289062 295.996094 43.566406 298.222656 46.132812 300.910156 C 47.535156 302.460938 49.191406 304.285156 50.785156 306.046875 C 52.363281 307.871094 54.996094 311.285156 56.316406 312.917969 C 56.664062 313.398438 56.425781 313.507812 55.960938 313.09375 C 54.308594 311.699219 52.601562 309.933594 51.015625 308.027344 C 48.808594 305.496094 47.101562 303.714844 45.992188 302.878906 C 45.363281 302.402344 44.84375 302.085938 44.347656 301.789062 C 43.335938 301.097656 41.257812 299.410156 38.777344 295.808594 C 37.648438 294.253906 36.554688 292.742188 35.53125 291.332031 C 33.789062 288.984375 33.640625 289.75 35.226562 292.5 C 36.507812 294.691406 37.917969 297.015625 39.492188 298.972656 C 41.085938 300.6875 42.46875 302.179688 43.945312 303.769531 L 51.15625 311.410156 C 53.632812 313.882812 56.371094 316.117188 59.007812 318.492188 C 59.445312 318.882812 60.617188 320.238281 61.332031 321.0625 C 61.613281 321.386719 61.792969 321.726562 61.648438 321.648438 C 61.085938 321.351562 60.628906 321.207031 59.667969 320.429688 C 55.550781 317 50.929688 313.5625 47.214844 309.632812 C 45.628906 308.085938 44.246094 306.847656 42.992188 305.769531 C 42.574219 305.414062 42.503906 305.667969 42.886719 306.28125 C 43.546875 307.328125 44.648438 308.984375 45.640625 310.199219 C 50.257812 316.308594 56.042969 321.113281 60.9375 325.863281 C 73.628906 336.585938 87.957031 347.125 103.417969 354.480469 C 126.703125 366.152344 151.527344 372.582031 175.617188 374.097656 C 187.375 375.015625 197.988281 374.222656 209.414062 373.210938 C 224.878906 371.273438 238.785156 368.035156 251.996094 362.980469 C 256.019531 361.421875 259.90625 359.933594 263.683594 358.328125 C 267.339844 356.453125 270.957031 354.597656 274.617188 352.71875 C 278.3125 350.9375 281.898438 348.875 285.46875 346.496094 C 289.070312 344.1875 292.875 341.957031 296.71875 339.382812 C 297.582031 338.703125 298.296875 338.144531 299.058594 337.542969 C 313.097656 327.226562 325.03125 314.503906 335.632812 301.238281 C 343.714844 290.125 350.875 278.867188 356.523438 266.269531 C 361.53125 255.914062 364.183594 246.378906 366.832031 236.828125 C 368.167969 230.261719 368.988281 224.917969 369.492188 220.167969 C 369.605469 215.96875 369.71875 211.511719 369.828125 207.300781 C 369.859375 205.53125 369.773438 204.128906 369.71875 202.640625"/><path fill="#FFB905" d="M 111.148438 326.957031 L 111.261719 326.976562 L 111.246094 326.972656 L 111.027344 326.863281 L 110.949219 326.835938 L 111.148438 326.957031"/><path fill="#FFB905" d="M 109.636719 326.980469 C 110.320312 327.464844 111.246094 328.132812 112.015625 328.554688 C 114.3125 329.816406 116.316406 330.585938 115.878906 330.09375 C 115.414062 329.566406 113.902344 328.636719 112.425781 327.738281 L 111.148438 326.957031 C 110.59375 326.863281 110.023438 326.765625 109.527344 326.679688 C 109.371094 326.664062 109.359375 326.78125 109.636719 326.980469"/><path fill="#FFB905" d="M 16.441406 263.992188 C 16.355469 263.914062 16.492188 264.410156 16.527344 264.652344 C 16.777344 265.195312 17.125 265.957031 17.253906 266.242188 C 17.835938 267.238281 17.742188 266.746094 17.035156 265.058594 C 16.859375 264.640625 16.535156 264.074219 16.441406 263.992188"/><path fill="#FFB905" d="M 69.375 54.933594 L 69.980469 54.179688 L 68.964844 55.121094 Z M 69.375 54.933594"/><path fill="#FFB905" d="M 332.835938 88.847656 L 332.167969 87.796875 L 332.222656 88.132812 Z M 332.835938 88.847656"/><path fill="#FFB905" d="M 202.898438 26.871094 C 203.039062 26.867188 203.179688 26.863281 203.320312 26.859375 C 203.300781 26.859375 203.277344 26.855469 203.257812 26.855469 C 203.136719 26.863281 203.019531 26.867188 202.898438 26.871094"/><path fill="#FFB905" d="M 247.859375 33.3125 C 243.265625 32.136719 238.707031 30.699219 234.03125 29.761719 C 229.3125 29.023438 224.578125 28.277344 219.824219 27.535156 C 215.019531 27.289062 210.199219 27.039062 205.359375 26.789062 C 204.683594 26.789062 204 26.84375 203.320312 26.859375 C 207.433594 26.902344 211.515625 27.265625 215.515625 27.480469 C 226.285156 28.3125 237.214844 30.363281 247.859375 33.3125"/><path fill="#FFB905" d="M 202.898438 26.871094 C 198.871094 26.984375 194.835938 27.265625 190.78125 27.453125 C 194.828125 27.257812 198.878906 27.066406 202.898438 26.871094"/><g clip-path="url(#a)"><path fill="#BF5414" d="M 170.171875 183.496094 C 170.171875 184.753906 170.140625 186.011719 170.078125 187.265625 C 170.015625 188.523438 169.921875 189.777344 169.800781 191.03125 C 169.675781 192.28125 169.523438 193.53125 169.339844 194.773438 C 169.152344 196.019531 168.9375 197.257812 168.691406 198.492188 C 168.449219 199.726562 168.171875 200.953125 167.867188 202.175781 C 167.5625 203.394531 167.226562 204.605469 166.859375 205.808594 C 166.496094 207.015625 166.101562 208.207031 165.675781 209.394531 C 165.253906 210.578125 164.800781 211.75 164.316406 212.914062 C 163.835938 214.074219 163.328125 215.226562 162.789062 216.363281 C 162.25 217.5 161.6875 218.625 161.09375 219.734375 C 160.5 220.84375 159.878906 221.9375 159.234375 223.015625 C 158.585938 224.09375 157.914062 225.15625 157.214844 226.203125 C 156.515625 227.25 155.792969 228.277344 155.042969 229.289062 C 154.292969 230.300781 153.519531 231.292969 152.71875 232.265625 C 151.921875 233.238281 151.101562 234.1875 150.253906 235.121094 C 149.410156 236.054688 148.542969 236.964844 147.652344 237.855469 C 146.765625 238.742188 145.851562 239.609375 144.921875 240.457031 C 143.988281 241.300781 143.035156 242.121094 142.0625 242.921875 C 141.089844 243.71875 140.101562 244.492188 139.089844 245.242188 C 138.078125 245.992188 137.050781 246.714844 136.003906 247.414062 C 134.957031 248.113281 133.894531 248.785156 132.816406 249.433594 C 131.738281 250.078125 130.644531 250.699219 129.535156 251.292969 C 128.425781 251.886719 127.300781 252.449219 126.164062 252.988281 C 125.027344 253.527344 123.875 254.035156 122.714844 254.519531 C 121.550781 255 120.378906 255.453125 119.195312 255.875 C 118.007812 256.300781 116.816406 256.695312 115.609375 257.058594 C 114.40625 257.425781 113.195312 257.761719 111.972656 258.066406 C 110.753906 258.371094 109.527344 258.648438 108.292969 258.894531 C 107.058594 259.136719 105.820312 259.351562 104.574219 259.539062 C 103.332031 259.722656 102.082031 259.875 100.832031 260 C 99.578125 260.121094 98.324219 260.214844 97.066406 260.277344 C 95.8125 260.339844 94.554688 260.371094 93.296875 260.371094 C 92.035156 260.371094 90.78125 260.339844 89.523438 260.277344 C 88.265625 260.214844 87.011719 260.121094 85.761719 260 C 84.507812 259.875 83.257812 259.722656 82.015625 259.539062 C 80.769531 259.351562 79.53125 259.136719 78.296875 258.894531 C 77.0625 258.648438 75.835938 258.371094 74.617188 258.066406 C 73.394531 257.761719 72.183594 257.425781 70.980469 257.058594 C 69.777344 256.695312 68.582031 256.300781 67.398438 255.875 C 66.210938 255.453125 65.039062 255 63.875 254.519531 C 62.714844 254.035156 61.5625 253.527344 60.425781 252.988281 C 59.289062 252.449219 58.167969 251.886719 57.054688 251.292969 C 55.945312 250.699219 54.851562 250.078125 53.773438 249.433594 C 52.695312 248.785156 51.632812 248.113281 50.585938 247.414062 C 49.539062 246.714844 48.511719 245.992188 47.5 245.242188 C 46.488281 244.492188 45.5 243.71875 44.527344 242.921875 C 43.554688 242.121094 42.601562 241.300781 41.667969 240.457031 C 40.738281 239.609375 39.824219 238.742188 38.9375 237.855469 C 38.046875 236.964844 37.179688 236.054688 36.335938 235.121094 C 35.488281 234.1875 34.667969 233.234375 33.871094 232.265625 C 33.070312 231.292969 32.296875 230.300781 31.546875 229.289062 C 30.800781 228.277344 30.074219 227.25 29.375 226.203125 C 28.675781 225.15625 28.003906 224.09375 27.355469 223.015625 C 26.710938 221.9375 26.089844 220.84375 25.496094 219.734375 C 24.90625 218.625 24.339844 217.5 23.800781 216.363281 C 23.261719 215.226562 22.753906 214.074219 22.273438 212.914062 C 21.789062 211.75 21.335938 210.578125 20.914062 209.394531 C 20.488281 208.207031 20.09375 207.015625 19.730469 205.808594 C 19.363281 204.605469 19.03125 203.394531 18.722656 202.175781 C 18.417969 200.953125 18.144531 199.726562 17.898438 198.492188 C 17.652344 197.257812 17.4375 196.019531 17.253906 194.773438 C 17.066406 193.53125 16.914062 192.28125 16.789062 191.03125 C 16.667969 189.777344 16.574219 188.523438 16.511719 187.265625 C 16.449219 186.011719 16.421875 184.753906 16.421875 183.496094 C 16.421875 182.238281 16.449219 180.980469 16.511719 179.722656 C 16.574219 178.464844 16.667969 177.210938 16.789062 175.960938 C 16.914062 174.707031 17.066406 173.460938 17.253906 172.214844 C 17.4375 170.96875 17.652344 169.730469 17.898438 168.496094 C 18.144531 167.261719 18.417969 166.035156 18.722656 164.816406 C 19.03125 163.59375 19.363281 162.382812 19.730469 161.179688 C 20.09375 159.976562 20.488281 158.78125 20.914062 157.597656 C 21.335938 156.410156 21.789062 155.238281 22.273438 154.074219 C 22.753906 152.914062 23.261719 151.765625 23.800781 150.625 C 24.339844 149.488281 24.90625 148.367188 25.496094 147.257812 C 26.089844 146.148438 26.710938 145.050781 27.355469 143.972656 C 28.003906 142.894531 28.675781 141.832031 29.375 140.785156 C 30.074219 139.738281 30.800781 138.710938 31.546875 137.699219 C 32.296875 136.691406 33.070312 135.699219 33.871094 134.726562 C 34.667969 133.753906 35.488281 132.800781 36.335938 131.867188 C 37.179688 130.9375 38.046875 130.027344 38.9375 129.136719 C 39.824219 128.246094 40.738281 127.378906 41.667969 126.535156 C 42.601562 125.6875 43.554688 124.867188 44.527344 124.070312 C 45.5 123.273438 46.488281 122.496094 47.5 121.75 C 48.511719 121 49.539062 120.273438 50.585938 119.574219 C 51.632812 118.875 52.695312 118.203125 53.773438 117.558594 C 54.851562 116.910156 55.945312 116.289062 57.054688 115.695312 C 58.167969 115.105469 59.289062 114.539062 60.425781 114 C 61.5625 113.460938 62.714844 112.953125 63.875 112.472656 C 65.039062 111.988281 66.210938 111.539062 67.398438 111.113281 C 68.582031 110.691406 69.777344 110.296875 70.980469 109.929688 C 72.183594 109.566406 73.394531 109.230469 74.617188 108.921875 C 75.835938 108.617188 77.0625 108.34375 78.296875 108.097656 C 79.53125 107.851562 80.769531 107.636719 82.015625 107.453125 C 83.257812 107.265625 84.507812 107.113281 85.761719 106.988281 C 87.011719 106.867188 88.265625 106.773438 89.523438 106.710938 C 90.78125 106.652344 92.035156 106.621094 93.296875 106.621094 C 94.554688 106.621094 95.8125 106.652344 97.066406 106.710938 C 98.324219 106.773438 99.578125 106.867188 100.832031 106.988281 C 102.082031 107.113281 103.332031 107.265625 104.574219 107.453125 C 105.820312 107.636719 107.058594 107.851562 108.292969 108.097656 C 109.527344 108.34375 110.753906 108.617188 111.972656 108.921875 C 113.195312 109.230469 114.40625 109.566406 115.609375 109.929688 C 116.816406 110.296875 118.007812 110.691406 119.195312 111.113281 C 120.378906 111.539062 121.550781 111.988281 122.714844 112.472656 C 123.875 112.953125 125.027344 113.460938 126.164062 114 C 127.300781 114.539062 128.425781 115.105469 129.535156 115.695312 C 130.644531 116.289062 131.738281 116.910156 132.816406 117.558594 C 133.894531 118.203125 134.957031 118.875 136.003906 119.574219 C 137.050781 120.273438 138.078125 121 139.089844 121.75 C 140.101562 122.496094 141.089844 123.273438 142.0625 124.070312 C 143.035156 124.867188 143.988281 125.6875 144.921875 126.535156 C 145.851562 127.378906 146.765625 128.246094 147.652344 129.136719 C 148.542969 130.027344 149.410156 130.9375 150.253906 131.867188 C 151.101562 132.800781 151.921875 133.753906 152.71875 134.726562 C 153.519531 135.699219 154.292969 136.691406 155.042969 137.699219 C 155.792969 138.710938 156.515625 139.738281 157.214844 140.785156 C 157.914062 141.832031 158.585938 142.894531 159.234375 143.972656 C 159.878906 145.050781 160.5 146.148438 161.09375 147.257812 C 161.6875 148.367188 162.25 149.488281 162.789062 150.625 C 163.328125 151.765625 163.835938 152.914062 164.316406 154.074219 C 164.800781 155.238281 165.253906 156.410156 165.675781 157.597656 C 166.101562 158.78125 166.496094 159.976562 166.859375 161.179688 C 167.226562 162.382812 167.5625 163.59375 167.867188 164.816406 C 168.171875 166.035156 168.449219 167.261719 168.691406 168.496094 C 168.9375 169.730469 169.152344 170.96875 169.339844 172.214844 C 169.523438 173.460938 169.675781 174.707031 169.800781 175.960938 C 169.921875 177.210938 170.015625 178.464844 170.078125 179.722656 C 170.140625 180.980469 170.171875 182.238281 170.171875 183.496094 Z M 170.171875 183.496094"/></g><path fill="#F6F6E9" d="M 99.167969 152.242188 C 99.902344 152.242188 100.496094 151.648438 100.496094 150.914062 C 100.496094 150.179688 99.902344 149.585938 99.167969 149.585938 L 79.71875 149.585938 C 78.984375 149.585938 78.390625 150.179688 78.390625 150.914062 C 78.390625 151.648438 78.984375 152.242188 79.71875 152.242188 Z M 99.167969 152.242188"/><path fill="#F6F6E9" d="M 99.167969 161.867188 C 99.902344 161.867188 100.496094 161.273438 100.496094 160.539062 C 100.496094 159.804688 99.902344 159.210938 99.167969 159.210938 L 79.71875 159.210938 C 78.984375 159.210938 78.390625 159.804688 78.390625 160.539062 C 78.390625 161.273438 78.984375 161.867188 79.71875 161.867188 Z M 99.167969 161.867188"/><path fill="#F6F6E9" d="M 97.519531 171.492188 C 98.253906 171.492188 98.847656 170.898438 98.847656 170.164062 C 98.847656 169.429688 98.253906 168.832031 97.519531 168.832031 L 79.71875 168.832031 C 78.984375 168.832031 78.390625 169.429688 78.390625 170.164062 C 78.390625 170.898438 78.984375 171.492188 79.71875 171.492188 Z M 97.519531 171.492188"/><path fill="#F6F6E9" d="M 99.167969 181.117188 C 99.902344 181.117188 100.496094 180.519531 100.496094 179.785156 C 100.496094 179.050781 99.902344 178.457031 99.167969 178.457031 L 79.71875 178.457031 C 78.984375 178.457031 78.390625 179.050781 78.390625 179.785156 C 78.390625 180.519531 78.984375 181.117188 79.71875 181.117188 Z M 99.167969 181.117188"/><path fill="#F6F6E9" d="M 110.320312 165.53125 C 110.320312 164.796875 109.726562 164.203125 108.992188 164.203125 C 108.257812 164.203125 107.664062 164.796875 107.664062 165.53125 L 107.664062 187.6875 C 107.664062 187.847656 107.59375 188 107.488281 188.105469 C 107.378906 188.214844 107.230469 188.28125 107.066406 188.28125 L 71.820312 188.28125 C 71.65625 188.28125 71.507812 188.214844 71.398438 188.105469 C 71.289062 188 71.222656 187.847656 71.222656 187.6875 L 71.222656 143.015625 C 71.222656 142.851562 71.289062 142.703125 71.398438 142.59375 C 71.507812 142.488281 71.65625 142.417969 71.820312 142.417969 L 107.066406 142.417969 C 107.230469 142.417969 107.378906 142.488281 107.488281 142.59375 C 107.59375 142.703125 107.664062 142.851562 107.664062 143.015625 L 107.664062 150.292969 C 107.664062 151.027344 108.257812 151.621094 108.992188 151.621094 C 109.726562 151.621094 110.320312 151.027344 110.320312 150.292969 L 110.320312 143.015625 C 110.320312 142.121094 109.953125 141.304688 109.367188 140.714844 C 108.777344 140.128906 107.960938 139.761719 107.066406 139.761719 L 71.820312 139.761719 C 70.921875 139.761719 70.109375 140.128906 69.519531 140.714844 C 68.929688 141.304688 68.566406 142.121094 68.566406 143.015625 L 68.566406 187.6875 C 68.566406 188.582031 68.929688 189.394531 69.519531 189.984375 C 70.109375 190.574219 70.921875 190.941406 71.820312 190.941406 L 107.066406 190.941406 C 107.960938 190.941406 108.777344 190.574219 109.367188 189.984375 C 109.953125 189.394531 110.320312 188.582031 110.320312 187.6875 Z M 110.320312 165.53125"/><path fill="#F6F6E9" d="M 110.867188 147.292969 L 117.355469 151.039062 L 117.359375 151.035156 C 117.996094 151.402344 118.214844 152.214844 117.847656 152.851562 C 117.832031 152.878906 117.816406 152.902344 117.796875 152.925781 L 104.941406 175.199219 C 104.828125 175.398438 104.671875 175.558594 104.488281 175.667969 L 97.128906 180.867188 C 96.53125 181.292969 95.703125 181.148438 95.277344 180.550781 C 95.066406 180.25 94.996094 179.886719 95.054688 179.550781 L 95.875 170.605469 L 95.871094 170.605469 C 95.890625 170.375 95.972656 170.160156 96.09375 169.984375 L 108.949219 147.714844 L 108.945312 147.710938 C 109.3125 147.078125 110.125 146.859375 110.761719 147.226562 C 110.796875 147.246094 110.832031 147.269531 110.867188 147.292969 Z M 114.886719 152.667969 L 110.585938 150.183594 L 98.484375 171.140625 L 97.945312 177.042969 L 102.789062 173.621094 Z M 114.886719 152.667969"/><path fill="#F6F6E9" d="M 103.132812 175.683594 C 103.765625 176.046875 104.574219 175.828125 104.9375 175.195312 C 105.304688 174.5625 105.085938 173.753906 104.453125 173.390625 L 97.851562 169.578125 C 97.21875 169.214844 96.410156 169.433594 96.046875 170.066406 C 95.683594 170.699219 95.902344 171.507812 96.535156 171.875 Z M 103.132812 175.683594"/><path fill="#F6F6E9" d="M 113.964844 156.910156 C 114.597656 157.277344 115.410156 157.0625 115.777344 156.429688 C 116.144531 155.796875 115.929688 154.984375 115.292969 154.617188 L 108.695312 150.808594 C 108.0625 150.441406 107.25 150.65625 106.882812 151.289062 C 106.519531 151.921875 106.734375 152.734375 107.367188 153.101562 Z M 113.964844 156.910156"/><path fill="#F6F6E9" d="M 133.15625 199.425781 L 53.433594 199.425781 L 53.433594 157.070312 C 53.433594 155.90625 54.386719 154.953125 55.550781 154.953125 L 66.90625 154.953125 L 66.90625 152.296875 L 55.550781 152.296875 C 52.929688 152.296875 50.777344 154.445312 50.777344 157.070312 L 50.777344 206.878906 C 50.777344 209.503906 52.925781 211.65625 55.550781 211.65625 L 82.660156 211.65625 L 82.660156 218.304688 L 77.5625 218.304688 C 75.109375 218.304688 73.101562 220.3125 73.101562 222.765625 C 73.101562 225.222656 75.105469 227.226562 77.5625 227.226562 L 108.511719 227.226562 C 110.964844 227.226562 112.972656 225.21875 112.972656 222.765625 C 112.972656 220.316406 110.964844 218.304688 108.511719 218.304688 L 103.414062 218.304688 L 103.414062 211.65625 L 131.039062 211.65625 C 133.664062 211.65625 135.816406 209.503906 135.816406 206.878906 L 135.816406 157.070312 C 135.816406 154.449219 133.664062 152.296875 131.039062 152.296875 L 119.683594 152.296875 C 119.667969 152.769531 119.539062 153.246094 119.285156 153.679688 C 119.265625 153.714844 119.246094 153.75 119.222656 153.78125 L 118.546875 154.953125 L 131.039062 154.953125 C 132.207031 154.953125 133.15625 155.90625 133.15625 157.070312 Z M 133.15625 199.425781" fill-rule="evenodd"/><g clip-path="url(#b)"><path fill="#BF5414" d="M 361.796875 187.378906 C 361.796875 188.636719 361.765625 189.894531 361.703125 191.148438 C 361.644531 192.40625 361.550781 193.660156 361.425781 194.914062 C 361.304688 196.164062 361.148438 197.414062 360.964844 198.65625 C 360.78125 199.902344 360.566406 201.140625 360.320312 202.375 C 360.074219 203.609375 359.800781 204.835938 359.492188 206.058594 C 359.1875 207.277344 358.851562 208.488281 358.488281 209.695312 C 358.121094 210.898438 357.726562 212.089844 357.304688 213.277344 C 356.878906 214.460938 356.425781 215.632812 355.945312 216.796875 C 355.464844 217.960938 354.953125 219.109375 354.417969 220.246094 C 353.878906 221.382812 353.3125 222.507812 352.71875 223.617188 C 352.125 224.726562 351.507812 225.820312 350.859375 226.898438 C 350.214844 227.980469 349.539062 229.042969 348.839844 230.085938 C 348.140625 231.132812 347.417969 232.160156 346.667969 233.171875 C 345.917969 234.183594 345.144531 235.175781 344.347656 236.148438 C 343.550781 237.121094 342.726562 238.070312 341.882812 239.003906 C 341.039062 239.9375 340.171875 240.847656 339.28125 241.738281 C 338.390625 242.625 337.480469 243.492188 336.546875 244.339844 C 335.617188 245.183594 334.664062 246.003906 333.691406 246.804688 C 332.71875 247.601562 331.726562 248.375 330.714844 249.125 C 329.707031 249.875 328.679688 250.597656 327.632812 251.296875 C 326.585938 251.996094 325.523438 252.667969 324.445312 253.316406 C 323.363281 253.960938 322.269531 254.582031 321.160156 255.175781 C 320.050781 255.769531 318.929688 256.335938 317.789062 256.871094 C 316.652344 257.410156 315.503906 257.917969 314.339844 258.402344 C 313.179688 258.882812 312.003906 259.335938 310.820312 259.757812 C 309.636719 260.183594 308.441406 260.578125 307.238281 260.941406 C 306.035156 261.308594 304.820312 261.644531 303.601562 261.949219 C 302.382812 262.253906 301.152344 262.53125 299.917969 262.777344 C 298.6875 263.019531 297.445312 263.234375 296.203125 263.421875 C 294.957031 263.605469 293.710938 263.757812 292.457031 263.882812 C 291.207031 264.007812 289.949219 264.097656 288.695312 264.160156 C 287.4375 264.222656 286.179688 264.253906 284.921875 264.253906 C 283.664062 264.253906 282.40625 264.222656 281.148438 264.160156 C 279.894531 264.097656 278.640625 264.007812 277.386719 263.882812 C 276.136719 263.757812 274.886719 263.605469 273.640625 263.421875 C 272.398438 263.234375 271.160156 263.019531 269.925781 262.777344 C 268.691406 262.53125 267.464844 262.253906 266.242188 261.949219 C 265.023438 261.644531 263.8125 261.308594 262.605469 260.941406 C 261.402344 260.578125 260.207031 260.183594 259.023438 259.757812 C 257.839844 259.335938 256.664062 258.882812 255.503906 258.402344 C 254.339844 257.917969 253.191406 257.410156 252.054688 256.871094 C 250.917969 256.335938 249.792969 255.769531 248.683594 255.175781 C 247.574219 254.582031 246.480469 253.960938 245.402344 253.316406 C 244.320312 252.667969 243.257812 251.996094 242.210938 251.296875 C 241.167969 250.597656 240.136719 249.875 239.128906 249.125 C 238.117188 248.375 237.125 247.601562 236.152344 246.804688 C 235.179688 246.003906 234.226562 245.183594 233.296875 244.339844 C 232.363281 243.492188 231.453125 242.625 230.5625 241.738281 C 229.675781 240.847656 228.804688 239.9375 227.960938 239.003906 C 227.117188 238.070312 226.296875 237.121094 225.496094 236.148438 C 224.699219 235.175781 223.925781 234.183594 223.175781 233.171875 C 222.425781 232.160156 221.703125 231.132812 221.003906 230.085938 C 220.304688 229.042969 219.632812 227.980469 218.984375 226.898438 C 218.335938 225.820312 217.71875 224.726562 217.125 223.617188 C 216.53125 222.507812 215.964844 221.382812 215.429688 220.246094 C 214.890625 219.109375 214.378906 217.960938 213.898438 216.796875 C 213.417969 215.632812 212.964844 214.460938 212.542969 213.277344 C 212.117188 212.089844 211.722656 210.898438 211.359375 209.695312 C 210.992188 208.488281 210.65625 207.277344 210.351562 206.058594 C 210.046875 204.835938 209.769531 203.609375 209.523438 202.375 C 209.277344 201.140625 209.0625 199.902344 208.878906 198.65625 C 208.695312 197.414062 208.539062 196.164062 208.417969 194.914062 C 208.292969 193.660156 208.203125 192.40625 208.140625 191.148438 C 208.078125 189.894531 208.046875 188.636719 208.046875 187.378906 C 208.046875 186.121094 208.078125 184.863281 208.140625 183.605469 C 208.203125 182.347656 208.292969 181.09375 208.417969 179.84375 C 208.539062 178.589844 208.695312 177.34375 208.878906 176.097656 C 209.0625 174.855469 209.277344 173.613281 209.523438 172.378906 C 209.769531 171.144531 210.046875 169.917969 210.351562 168.699219 C 210.65625 167.476562 210.992188 166.265625 211.359375 165.0625 C 211.722656 163.859375 212.117188 162.664062 212.542969 161.480469 C 212.964844 160.296875 213.417969 159.121094 213.898438 157.960938 C 214.378906 156.796875 214.890625 155.648438 215.429688 154.507812 C 215.964844 153.371094 216.53125 152.25 217.125 151.140625 C 217.71875 150.03125 218.335938 148.933594 218.984375 147.855469 C 219.632812 146.777344 220.304688 145.714844 221.003906 144.667969 C 221.703125 143.621094 222.425781 142.59375 223.175781 141.582031 C 223.925781 140.574219 224.699219 139.582031 225.496094 138.609375 C 226.296875 137.636719 227.117188 136.683594 227.960938 135.75 C 228.804688 134.820312 229.675781 133.910156 230.5625 133.019531 C 231.453125 132.128906 232.363281 131.261719 233.296875 130.417969 C 234.226562 129.574219 235.179688 128.75 236.152344 127.953125 C 237.125 127.15625 238.117188 126.378906 239.128906 125.632812 C 240.136719 124.882812 241.167969 124.15625 242.210938 123.457031 C 243.257812 122.757812 244.320312 122.085938 245.402344 121.441406 C 246.480469 120.792969 247.574219 120.171875 248.683594 119.582031 C 249.792969 118.988281 250.917969 118.421875 252.054688 117.882812 C 253.191406 117.347656 254.339844 116.835938 255.503906 116.355469 C 256.664062 115.875 257.839844 115.421875 259.023438 114.996094 C 260.207031 114.574219 261.402344 114.179688 262.605469 113.8125 C 263.8125 113.449219 265.023438 113.113281 266.242188 112.808594 C 267.464844 112.5 268.691406 112.226562 269.925781 111.980469 C 271.160156 111.734375 272.398438 111.519531 273.640625 111.335938 C 274.886719 111.152344 276.136719 110.996094 277.386719 110.875 C 278.640625 110.75 279.894531 110.65625 281.148438 110.59375 C 282.40625 110.535156 283.664062 110.503906 284.921875 110.503906 C 286.179688 110.503906 287.4375 110.535156 288.695312 110.59375 C 289.949219 110.65625 291.207031 110.75 292.457031 110.875 C 293.710938 110.996094 294.957031 111.152344 296.203125 111.335938 C 297.445312 111.519531 298.6875 111.734375 299.917969 111.980469 C 301.152344 112.226562 302.382812 112.5 303.601562 112.808594 C 304.820312 113.113281 306.035156 113.449219 307.238281 113.8125 C 308.441406 114.179688 309.636719 114.574219 310.820312 114.996094 C 312.003906 115.421875 313.179688 115.875 314.339844 116.355469 C 315.503906 116.835938 316.652344 117.347656 317.789062 117.882812 C 318.929688 118.421875 320.050781 118.988281 321.160156 119.582031 C 322.269531 120.171875 323.363281 120.792969 324.445312 121.441406 C 325.523438 122.085938 326.585938 122.757812 327.632812 123.457031 C 328.679688 124.15625 329.707031 124.882812 330.714844 125.632812 C 331.726562 126.378906 332.71875 127.15625 333.691406 127.953125 C 334.664062 128.75 335.617188 129.574219 336.546875 130.417969 C 337.480469 131.261719 338.390625 132.128906 339.28125 133.019531 C 340.171875 133.910156 341.039062 134.820312 341.882812 135.75 C 342.726562 136.683594 343.550781 137.636719 344.347656 138.609375 C 345.144531 139.582031 345.917969 140.574219 346.667969 141.582031 C 347.417969 142.59375 348.140625 143.621094 348.839844 144.667969 C 349.539062 145.714844 350.214844 146.777344 350.859375 147.855469 C 351.507812 148.933594 352.125 150.03125 352.71875 151.140625 C 353.3125 152.25 353.878906 153.371094 354.417969 154.507812 C 354.953125 155.648438 355.464844 156.796875 355.945312 157.960938 C 356.425781 159.121094 356.878906 160.296875 357.304688 161.480469 C 357.726562 162.664062 358.121094 163.859375 358.488281 165.0625 C 358.851562 166.265625 359.1875 167.476562 359.492188 168.699219 C 359.800781 169.917969 360.074219 171.144531 360.320312 172.378906 C 360.566406 173.613281 360.78125 174.855469 360.964844 176.097656 C 361.148438 177.34375 361.304688 178.589844 361.425781 179.84375 C 361.550781 181.09375 361.644531 182.347656 361.703125 183.605469 C 361.765625 184.863281 361.796875 186.121094 361.796875 187.378906 Z M 361.796875 187.378906"/></g><path fill="#F6F6E9" d="M 290.792969 156.125 C 291.527344 156.125 292.121094 155.53125 292.121094 154.796875 C 292.121094 154.0625 291.527344 153.46875 290.792969 153.46875 L 271.34375 153.46875 C 270.613281 153.46875 270.015625 154.0625 270.015625 154.796875 C 270.015625 155.53125 270.613281 156.125 271.34375 156.125 Z M 290.792969 156.125"/><path fill="#F6F6E9" d="M 290.792969 165.75 C 291.527344 165.75 292.121094 165.15625 292.121094 164.421875 C 292.121094 163.6875 291.527344 163.09375 290.792969 163.09375 L 271.34375 163.09375 C 270.613281 163.09375 270.015625 163.6875 270.015625 164.421875 C 270.015625 165.15625 270.613281 165.75 271.34375 165.75 Z M 290.792969 165.75"/><path fill="#F6F6E9" d="M 289.144531 175.375 C 289.878906 175.375 290.476562 174.78125 290.476562 174.046875 C 290.476562 173.3125 289.878906 172.71875 289.144531 172.71875 L 271.347656 172.71875 C 270.613281 172.71875 270.015625 173.3125 270.015625 174.046875 C 270.015625 174.78125 270.613281 175.375 271.347656 175.375 Z M 289.144531 175.375"/><path fill="#F6F6E9" d="M 290.792969 185 C 291.527344 185 292.121094 184.402344 292.121094 183.667969 C 292.121094 182.933594 291.527344 182.339844 290.792969 182.339844 L 271.34375 182.339844 C 270.613281 182.339844 270.015625 182.933594 270.015625 183.667969 C 270.015625 184.402344 270.613281 185 271.34375 185 Z M 290.792969 185"/><path fill="#F6F6E9" d="M 301.949219 169.414062 C 301.949219 168.679688 301.351562 168.085938 300.617188 168.085938 C 299.886719 168.085938 299.289062 168.679688 299.289062 169.414062 L 299.289062 191.570312 C 299.289062 191.730469 299.222656 191.882812 299.113281 191.988281 C 299.003906 192.097656 298.855469 192.164062 298.695312 192.164062 L 263.445312 192.164062 C 263.285156 192.164062 263.132812 192.097656 263.027344 191.988281 C 262.917969 191.882812 262.851562 191.730469 262.851562 191.570312 L 262.851562 146.898438 C 262.851562 146.734375 262.917969 146.585938 263.027344 146.480469 C 263.132812 146.371094 263.285156 146.300781 263.445312 146.300781 L 298.695312 146.300781 C 298.855469 146.300781 299.003906 146.371094 299.113281 146.480469 C 299.222656 146.585938 299.289062 146.734375 299.289062 146.898438 L 299.289062 154.175781 C 299.289062 154.910156 299.886719 155.503906 300.617188 155.503906 C 301.351562 155.503906 301.949219 154.910156 301.949219 154.175781 L 301.949219 146.898438 C 301.949219 146.003906 301.582031 145.1875 300.992188 144.597656 C 300.402344 144.011719 299.589844 143.644531 298.695312 143.644531 L 263.445312 143.644531 C 262.550781 143.644531 261.734375 144.011719 261.148438 144.597656 C 260.558594 145.1875 260.191406 146.003906 260.191406 146.898438 L 260.191406 191.570312 C 260.191406 192.464844 260.558594 193.28125 261.148438 193.867188 C 261.734375 194.457031 262.550781 194.824219 263.445312 194.824219 L 298.695312 194.824219 C 299.589844 194.824219 300.402344 194.457031 300.992188 193.867188 C 301.582031 193.28125 301.949219 192.464844 301.949219 191.570312 Z M 301.949219 169.414062"/><path fill="#F6F6E9" d="M 302.496094 151.175781 L 308.980469 154.921875 L 308.988281 154.917969 C 309.621094 155.285156 309.839844 156.097656 309.472656 156.734375 C 309.457031 156.761719 309.441406 156.785156 309.425781 156.8125 L 296.566406 179.082031 L 296.570312 179.082031 C 296.457031 179.28125 296.296875 179.441406 296.113281 179.550781 L 288.757812 184.75 C 288.160156 185.175781 287.328125 185.03125 286.90625 184.433594 C 286.691406 184.132812 286.625 183.769531 286.683594 183.433594 L 287.503906 174.488281 L 287.5 174.488281 C 287.519531 174.257812 287.597656 174.046875 287.71875 173.867188 L 300.578125 151.597656 L 300.574219 151.59375 C 300.941406 150.960938 301.753906 150.742188 302.390625 151.109375 C 302.425781 151.128906 302.460938 151.152344 302.496094 151.175781 Z M 306.515625 156.550781 L 302.210938 154.066406 L 290.113281 175.023438 L 289.570312 180.925781 L 294.417969 177.503906 Z M 306.515625 156.550781"/><path fill="#F6F6E9" d="M 294.761719 179.566406 C 295.394531 179.929688 296.203125 179.710938 296.566406 179.078125 C 296.929688 178.445312 296.710938 177.636719 296.078125 177.273438 L 289.480469 173.460938 C 288.847656 173.097656 288.039062 173.316406 287.675781 173.949219 C 287.308594 174.582031 287.527344 175.394531 288.160156 175.757812 Z M 294.761719 179.566406"/><path fill="#F6F6E9" d="M 305.59375 160.792969 C 306.226562 161.160156 307.039062 160.945312 307.402344 160.3125 C 307.769531 159.679688 307.554688 158.867188 306.921875 158.5 L 300.324219 154.691406 C 299.691406 154.324219 298.878906 154.539062 298.511719 155.171875 C 298.144531 155.808594 298.359375 156.617188 298.996094 156.984375 Z M 305.59375 160.792969"/><path fill="#F6F6E9" d="M 324.785156 203.308594 L 245.0625 203.308594 L 245.0625 160.957031 C 245.0625 159.789062 246.011719 158.835938 247.179688 158.835938 L 258.53125 158.835938 L 258.53125 156.179688 L 247.179688 156.179688 C 244.554688 156.179688 242.402344 158.328125 242.402344 160.957031 L 242.402344 210.761719 C 242.402344 213.386719 244.554688 215.539062 247.179688 215.539062 L 274.285156 215.539062 L 274.285156 222.1875 L 269.191406 222.1875 C 266.734375 222.1875 264.726562 224.195312 264.726562 226.648438 C 264.726562 229.105469 266.734375 231.113281 269.191406 231.113281 L 300.136719 231.113281 C 302.589844 231.113281 304.597656 229.101562 304.597656 226.648438 C 304.597656 224.199219 302.589844 222.1875 300.136719 222.1875 L 295.042969 222.1875 L 295.042969 215.539062 L 322.667969 215.539062 C 325.289062 215.539062 327.441406 213.390625 327.441406 210.761719 L 327.441406 160.957031 C 327.441406 158.332031 325.292969 156.179688 322.667969 156.179688 L 311.308594 156.179688 C 311.292969 156.652344 311.164062 157.128906 310.914062 157.5625 C 310.894531 157.597656 310.871094 157.632812 310.851562 157.664062 L 310.171875 158.835938 L 322.667969 158.835938 C 323.832031 158.835938 324.785156 159.789062 324.785156 160.957031 Z M 324.785156 203.308594" fill-rule="evenodd"/><g clip-path="url(#c)"><path fill="#FF7605" d="M 205.402344 216.050781 C 206.101562 216.730469 207.132812 217.011719 208.652344 216.574219 C 212.179688 215.5625 214.285156 212.589844 217.09375 210.527344 C 220.984375 207.671875 225.324219 205.363281 228.726562 201.890625 C 231.714844 198.839844 230.421875 195.757812 227.847656 193.894531 C 223.933594 191.066406 219.921875 188.371094 215.875 185.734375 C 214.1875 184.628906 212.738281 183.117188 211.121094 181.90625 C 209.71875 180.855469 207.273438 178.523438 205.363281 179.050781 C 203.917969 179.449219 203.847656 181.371094 203.839844 182.585938 C 203.796875 188.128906 204.121094 193.667969 204.328125 199.207031 C 204.460938 202.8125 204.066406 206.402344 203.996094 210.003906 C 203.957031 211.988281 204.066406 214.75 205.402344 216.050781 Z M 205.402344 216.050781"/></g><path fill="#FF7605" d="M 172.867188 204.121094 C 170.871094 202.132812 171.507812 199.371094 171.933594 196.914062 C 172.347656 194.523438 172.265625 191 175.453125 190.753906 C 177.722656 190.578125 180.011719 191.253906 182.289062 191.175781 C 185.515625 191.066406 188.746094 190.878906 191.976562 190.878906 C 197.566406 190.875 203.15625 190.875 208.746094 190.875 C 208.894531 190.875 212.210938 190.878906 212.210938 190.875 L 212.210938 204.589844 C 209.097656 204.589844 205.988281 204.585938 202.878906 204.589844 C 197.636719 204.59375 192.394531 204.601562 187.152344 204.667969 C 184.484375 204.699219 181.816406 204.746094 179.148438 204.808594 C 177.363281 204.851562 174.285156 205.535156 172.867188 204.121094 Z M 172.867188 204.121094"/><path fill="#FF7605" d="M 169.59375 195.273438 C 168.898438 195.953125 167.867188 196.234375 166.347656 195.796875 C 162.820312 194.785156 160.714844 191.8125 157.902344 189.746094 C 154.011719 186.890625 149.671875 184.585938 146.269531 181.113281 C 143.285156 178.0625 144.574219 174.980469 147.152344 173.117188 C 151.066406 170.289062 155.078125 167.59375 159.121094 164.953125 C 160.8125 163.851562 162.261719 162.339844 163.875 161.128906 C 165.28125 160.078125 167.722656 157.746094 169.632812 158.273438 C 171.082031 158.671875 171.152344 160.59375 171.160156 161.808594 C 171.203125 167.351562 170.878906 172.890625 170.671875 178.429688 C 170.539062 182.035156 170.933594 185.625 171.003906 189.226562 C 171.042969 191.210938 170.929688 193.972656 169.59375 195.273438 Z M 169.59375 195.273438"/><path fill="#FF7605" d="M 202.300781 183.574219 C 203.859375 181.789062 203.105469 177.753906 203.175781 175.554688 C 203.238281 173.554688 203.167969 169.753906 200.308594 169.738281 C 198.4375 169.730469 196.636719 170.152344 194.730469 170.046875 C 192.65625 169.929688 190.617188 169.976562 188.542969 170.058594 C 187.203125 170.113281 185.867188 170.097656 184.53125 170.097656 C 178.542969 170.097656 172.554688 170.097656 166.5625 170.097656 C 166.359375 170.097656 162.789062 170.097656 162.789062 170.097656 L 162.789062 183.808594 C 166.199219 183.808594 169.609375 183.808594 173.019531 183.808594 C 178.214844 183.808594 183.410156 183.898438 188.601562 183.972656 C 191.1875 184.011719 193.773438 184.050781 196.359375 184.074219 C 198.101562 184.089844 200.945312 185.125 202.300781 183.574219 Z M 202.300781 183.574219"/></svg>