<svg xmlns="http://www.w3.org/2000/svg" width="375" viewBox="0 0 375 375" height="375" version="1.0"><defs><clipPath id="a"><path d="M 24.664062 150.296875 L 236 150.296875 L 236 302.546875 L 24.664062 302.546875 Z M 24.664062 150.296875"/></clipPath><clipPath id="b"><path d="M 137 150.296875 L 350.164062 150.296875 L 350.164062 302.546875 L 137 302.546875 Z M 137 150.296875"/></clipPath><clipPath id="c"><path d="M 103.664062 26.285156 L 223 26.285156 L 223 119 L 103.664062 119 Z M 103.664062 26.285156"/></clipPath><clipPath id="d"><path d="M 166 86 L 285 86 L 285 178.535156 L 166 178.535156 Z M 166 86"/></clipPath></defs><path fill="#FFB905" d="M 300.574219 56.609375 L 300.796875 56.695312 L 300.746094 56.632812 L 300.523438 56.464844 C 300.59375 56.566406 300.519531 56.519531 300.574219 56.609375"/><path fill="#FFB905" d="M 193.378906 338.15625 C 193.589844 338.125 193.785156 338.101562 193.992188 338.066406 C 197.222656 337.742188 200.964844 337.363281 204.703125 336.988281 C 205.316406 336.863281 205.945312 336.757812 206.5625 336.644531 C 213.667969 336.53125 220.65625 335.960938 227.496094 334.914062 C 226.625 335.289062 225.753906 335.675781 224.859375 336.09375 C 223.792969 336.542969 222.765625 337.007812 221.710938 337.449219 C 212.3125 338.488281 202.828125 338.71875 193.378906 338.15625 Z M 86.542969 288.433594 C 81.160156 284.664062 77.136719 280.839844 71.679688 275.492188 C 69.808594 273.78125 67.984375 270.316406 67.019531 268.3125 C 66.113281 266.242188 66.082031 265.453125 66.953125 266.023438 C 68.085938 266.769531 69.664062 268.351562 71.996094 271.449219 C 74.910156 274.929688 78.132812 278.128906 81.105469 281.433594 C 85.632812 286.054688 89.679688 288.699219 91.777344 289.660156 C 92.140625 289.832031 92.578125 290.078125 93.050781 290.347656 L 93.398438 290.730469 C 95.15625 292.710938 97.257812 294.339844 99.167969 296.160156 L 102.242188 298.960938 C 100.773438 298.160156 98.894531 296.945312 96.890625 295.601562 C 92.507812 292.941406 89.027344 289.589844 86.542969 288.433594 Z M 63.003906 263.699219 C 61.902344 262.855469 60.402344 260.328125 59.457031 258.050781 C 59.15625 257.335938 59.179688 257.007812 59.054688 256.5 C 59.367188 256.828125 59.617188 257 60 257.523438 C 61.085938 258.910156 62.007812 260.886719 62.84375 262.398438 C 63.449219 263.53125 63.527344 264.164062 63.003906 263.699219 Z M 55.890625 260.179688 C 55.511719 259.496094 55.101562 258.5 54.789062 257.75 C 54.699219 257.535156 54.894531 257.671875 54.972656 257.648438 C 55.4375 258.152344 56.058594 259.082031 56.847656 260.742188 C 57.042969 261.144531 57.222656 261.636719 57.257812 261.828125 C 57.382812 262.460938 56.765625 261.773438 55.890625 260.179688 Z M 48.726562 249.355469 C 48.492188 248.917969 47.835938 247.1875 47.71875 246.695312 C 47.59375 246.171875 47.75 245.996094 48 246.394531 C 48.464844 247.144531 49.089844 248.421875 49.648438 249.480469 C 49.832031 250.390625 50.265625 251.640625 50.164062 251.5 C 49.730469 251.136719 49.277344 250.355469 48.726562 249.355469 Z M 181.117188 11.335938 C 184.9375 10.988281 189.113281 10.90625 193.257812 10.671875 C 193.894531 10.644531 195.226562 10.785156 196.085938 10.871094 C 196.425781 10.90625 196.371094 11 196.496094 11.070312 C 196.140625 11.191406 196.078125 11.351562 195.390625 11.433594 C 190.75 12.109375 185.445312 12.125 179.101562 12.929688 C 178.667969 12.984375 177.757812 13.042969 177.515625 13.023438 C 176.890625 12.96875 176.066406 12.910156 176.109375 12.792969 C 176.292969 12.335938 178.21875 11.808594 181.117188 11.335938 Z M 184.027344 9.597656 C 184.308594 9.617188 184.75 9.644531 185.125 9.667969 C 184.945312 9.710938 184.832031 9.78125 184.554688 9.789062 C 184.265625 9.769531 183.828125 9.738281 183.449219 9.714844 C 183.632812 9.671875 183.75 9.605469 184.027344 9.597656 Z M 249.636719 27.515625 C 249.886719 27.578125 250.53125 27.859375 250.996094 28.039062 C 251.160156 28.171875 251.527344 28.402344 251.425781 28.414062 C 251.324219 28.429688 250.796875 28.292969 250.449219 28.144531 C 249.042969 27.542969 248.710938 27.285156 249.636719 27.515625 Z M 260.550781 33.207031 C 261.25 33.492188 262.269531 34.042969 263.257812 34.628906 C 262.867188 34.484375 262.480469 34.328125 262.089844 34.183594 C 259.9375 33.359375 257.808594 32.546875 255.699219 31.738281 C 257.292969 32.199219 258.917969 32.609375 260.550781 33.207031 Z M 271.324219 37.050781 C 273.378906 37.984375 275.214844 39.125 276.679688 40.453125 C 277.046875 40.765625 277.382812 41.0625 277.707031 41.351562 C 276.855469 40.949219 276.003906 40.554688 275.175781 40.125 C 273.527344 39.324219 271.890625 38.527344 270.257812 37.730469 C 269.839844 37.429688 269.429688 37.132812 269.105469 36.84375 C 267.921875 35.863281 268.863281 35.859375 271.324219 37.050781 Z M 288.09375 45.792969 C 289.710938 46.984375 291.355469 48.199219 293.046875 49.449219 C 294.839844 50.808594 296.539062 52.292969 297.96875 53.710938 C 298.605469 54.390625 299.238281 55.003906 299.847656 55.640625 L 299.183594 55.144531 L 295.304688 52.210938 C 294.023438 51.214844 292.738281 50.222656 291.324219 49.410156 C 289.605469 48.355469 287.753906 47.21875 285.878906 46.070312 C 285.464844 45.605469 285.042969 45.144531 284.664062 44.691406 C 283.609375 43.425781 284.75 43.804688 288.09375 45.792969 Z M 298.515625 52.03125 C 298.921875 52.253906 299.972656 53.019531 300.648438 53.59375 C 302.074219 54.726562 302.582031 55.820312 301.816406 55.246094 C 301.421875 54.949219 300.429688 54.1875 299.699219 53.636719 C 298.363281 52.457031 297.667969 51.578125 298.515625 52.03125 Z M 312.105469 62.625 C 315.136719 65.214844 317.636719 68.503906 320.449219 71.445312 L 317.273438 69.515625 C 314.949219 67.039062 313.21875 65.347656 310.203125 62.53125 C 309.644531 61.980469 308.707031 60.832031 308.636719 60.625 C 308.351562 59.746094 309.875 60.613281 312.105469 62.625 Z M 320.738281 71.757812 C 321.375 71.4375 324.359375 73.390625 327.992188 78.285156 C 330.007812 80.90625 331.796875 83.59375 333.703125 86.574219 C 334.722656 88.105469 335.570312 89.242188 335.984375 89.644531 C 336.253906 89.867188 336.4375 89.917969 336.605469 89.9375 C 337.054688 89.984375 337.917969 90.921875 339.453125 93.523438 C 342.011719 98.023438 344.46875 101.273438 345.960938 103.6875 C 346.175781 104.007812 346.921875 105.699219 347.21875 106.515625 C 347.523438 107.351562 347.742188 108.265625 347.710938 108.496094 C 347.625 109.175781 347.308594 109.347656 347.230469 110.039062 C 347.089844 111.300781 346.546875 111.261719 344.007812 105.707031 C 343.234375 103.960938 342.359375 102.625 341.519531 101.636719 C 341.007812 100.980469 340.589844 100.546875 340.179688 100.128906 C 338.679688 97.625 337.1875 95.117188 335.574219 92.683594 L 328.527344 83.300781 L 326.742188 80.972656 L 324.753906 78.800781 L 324.148438 78.140625 C 323.984375 77.070312 322.890625 74.867188 320.714844 71.730469 Z M 352.101562 114.816406 C 352.5625 115.523438 353.21875 116.644531 353.65625 117.9375 C 353.828125 118.398438 354.078125 119.648438 354.292969 120.539062 C 354.167969 121.105469 353.71875 120.398438 352.894531 118.128906 C 352.640625 117.371094 352.144531 115.921875 351.957031 115.371094 C 351.800781 114.804688 351.871094 114.460938 352.101562 114.816406 Z M 281.308594 44.476562 L 280.328125 43.875 C 278.617188 42.929688 276.863281 42.0625 275.101562 41.203125 C 274.003906 40.285156 272.8125 39.46875 271.691406 38.71875 C 274.050781 39.835938 276.378906 41.003906 278.679688 42.230469 C 279.453125 42.9375 280.261719 43.65625 281.308594 44.476562 Z M 307.855469 62.0625 C 309.394531 63.253906 310.941406 64.660156 312.507812 66.25 C 310.957031 64.859375 309.402344 63.46875 307.855469 62.0625 Z M 320.855469 79.199219 C 321.71875 80.171875 322.648438 81.269531 323.613281 82.429688 C 323.050781 81.78125 322.246094 80.867188 321.617188 80.167969 C 321.136719 79.648438 320.648438 79.109375 320.160156 78.574219 C 320.394531 78.789062 320.613281 78.976562 320.855469 79.199219 Z M 263.03125 38.210938 C 262.300781 37.960938 261.71875 37.804688 261.597656 37.804688 C 261.417969 37.804688 262.082031 38.097656 263.160156 38.523438 C 263.265625 38.734375 263.398438 38.964844 263.554688 39.207031 C 262.007812 38.699219 260.5625 38.226562 259.179688 37.769531 C 258.679688 37.578125 258.167969 37.417969 257.664062 37.230469 C 257.832031 36.914062 257.335938 36.300781 256.121094 35.363281 C 257.25 35.777344 258.371094 36.1875 259.503906 36.601562 C 260.636719 37.046875 261.800781 37.433594 262.957031 37.84375 C 262.964844 37.957031 262.984375 38.078125 263.03125 38.210938 Z M 277.886719 46.136719 C 277.652344 46.027344 277.71875 46.179688 277.851562 46.378906 C 276.449219 45.617188 275.039062 44.859375 273.605469 44.140625 C 274.804688 44.671875 275.992188 45.203125 277.21875 45.75 C 277.773438 46.019531 278.308594 46.304688 278.835938 46.601562 C 278.519531 46.449219 278.203125 46.296875 277.886719 46.136719 Z M 267.5625 40.917969 C 267.703125 40.851562 267.886719 40.8125 268.128906 40.804688 C 268.585938 41.035156 269.042969 41.269531 269.507812 41.488281 C 271.359375 42.398438 273.605469 43.503906 274.058594 43.824219 C 274.65625 44.253906 272.078125 43.011719 270.382812 42.222656 C 269.40625 41.78125 268.480469 41.347656 267.5625 40.917969 Z M 271.921875 42.003906 C 272.613281 42.445312 271.074219 41.730469 269.558594 41.019531 C 269.976562 41.132812 270.488281 41.308594 271.042969 41.515625 C 271.441406 41.722656 271.753906 41.894531 271.921875 42.003906 Z M 213.292969 24.308594 C 213.410156 24.296875 213.523438 24.277344 213.65625 24.265625 C 215.449219 24.160156 217.746094 24.402344 220.933594 24.964844 C 218.398438 24.683594 215.851562 24.464844 213.292969 24.308594 Z M 148.363281 37.476562 L 144.382812 38.539062 C 144 38.632812 143.570312 38.675781 143.417969 38.660156 C 143.277344 38.640625 143.351562 38.5 143.542969 38.433594 C 144.367188 38.160156 145.6875 37.707031 146.074219 37.644531 C 147.023438 37.507812 147.644531 37.511719 148.363281 37.476562 Z M 114.703125 55.714844 C 114.710938 55.707031 114.710938 55.703125 114.714844 55.699219 C 116.042969 54.703125 117.378906 53.734375 118.789062 52.867188 C 117.785156 53.441406 116.820312 54.089844 115.859375 54.757812 C 117.875 53.144531 120.121094 51.597656 123.683594 49.4375 C 125.554688 48.339844 127.097656 47.101562 128.363281 46.40625 C 130.59375 44.988281 133.460938 43.585938 137.695312 41.917969 C 143.066406 39.902344 146.691406 38.839844 148.695312 37.40625 C 150.351562 36.742188 151.992188 36.085938 153.609375 35.4375 C 155.273438 34.957031 156.921875 34.484375 158.542969 34.015625 C 161.796875 33.019531 164.953125 32.054688 168 31.117188 C 170.125 30.738281 172.175781 30.277344 174.199219 29.808594 C 174.289062 29.800781 174.375 29.789062 174.464844 29.777344 C 175.992188 29.554688 177.492188 29.320312 178.199219 29.136719 C 178.054688 29.097656 177.238281 29.195312 176.25 29.335938 C 178.414062 28.828125 180.515625 28.355469 182.566406 27.941406 C 183.199219 27.863281 183.859375 27.78125 184.578125 27.683594 C 186.457031 27.417969 188.597656 27.066406 190.816406 27.03125 C 193.308594 26.894531 195.804688 26.757812 198.304688 26.621094 C 199.351562 26.621094 199.960938 26.605469 200.226562 26.515625 C 200.808594 26.484375 201.394531 26.453125 201.976562 26.417969 C 203.832031 26.242188 205.6875 26.359375 207.535156 26.449219 C 209.382812 26.527344 211.226562 26.609375 213.058594 26.6875 L 219.070312 26.953125 C 221.078125 27.039062 223.046875 27.480469 225.03125 27.738281 C 228.976562 28.386719 232.957031 28.828125 236.792969 29.691406 C 240.867188 30.824219 244.960938 31.78125 248.992188 32.945312 C 249.238281 33.183594 249.730469 33.539062 250.542969 34.039062 C 251.558594 34.671875 250.746094 34.585938 249.496094 34.195312 C 242.550781 31.679688 235.167969 30.71875 227.902344 29.1875 C 222.898438 28.648438 217.699219 28.011719 214.125 27.929688 C 213.921875 27.945312 213.699219 27.957031 213.492188 27.972656 C 210.398438 27.785156 207.296875 27.660156 204.160156 27.660156 C 169.9375 27.660156 138.328125 38.792969 112.714844 57.605469 C 113.375 56.976562 114.042969 56.347656 114.703125 55.714844 Z M 49.796875 164.683594 C 49.742188 165.164062 49.667969 165.648438 49.613281 166.132812 C 49.617188 166.105469 49.617188 166.082031 49.621094 166.050781 C 49.648438 165.710938 49.714844 165.175781 49.796875 164.683594 Z M 50.214844 168.222656 C 50.113281 168.46875 50.011719 168.667969 49.910156 168.917969 C 49.707031 168.972656 49.597656 168.574219 49.574219 167.804688 C 49.714844 166.332031 49.886719 164.863281 50.097656 163.398438 C 50.398438 162.632812 50.628906 162.683594 50.730469 163.46875 C 50.535156 165.046875 50.363281 166.628906 50.214844 168.222656 Z M 326.621094 81.523438 C 329.148438 84.773438 331.746094 88.21875 334.304688 91.710938 L 335.714844 93.664062 L 336.953125 95.726562 L 338.601562 98.460938 C 336.570312 96.171875 334.40625 93.078125 331.164062 88.765625 C 329.441406 86.625 327.976562 85.046875 326.316406 83.035156 C 326.160156 82.820312 326.011719 82.613281 325.855469 82.402344 C 325.65625 82.164062 325.445312 81.9375 325.242188 81.699219 C 324.535156 80.800781 323.78125 79.796875 322.949219 78.625 C 323.003906 78.613281 323.042969 78.578125 323.140625 78.632812 C 323.621094 78.917969 323.941406 78.953125 324.089844 78.773438 C 324.933594 79.6875 325.792969 80.621094 326.621094 81.523438 Z M 300.746094 56.632812 L 305.414062 60.210938 C 308.933594 63.15625 312.3125 66.257812 315.542969 69.507812 C 317.28125 71.484375 319.054688 73.652344 320.882812 76.011719 C 321.484375 76.785156 322.132812 77.519531 322.6875 78.324219 C 322.492188 78.269531 322.246094 78.144531 321.976562 77.980469 C 321.730469 77.703125 321.476562 77.421875 321.238281 77.144531 C 315.421875 70.105469 308.460938 63.71875 300.925781 57.804688 C 301.144531 57.746094 301.089844 57.414062 300.574219 56.609375 C 299.8125 56.222656 299.171875 56.03125 299.226562 56.464844 C 296.421875 54.316406 293.542969 52.226562 290.617188 50.203125 L 287.785156 48.457031 C 287.746094 48.386719 287.726562 48.332031 287.660156 48.242188 C 287.253906 47.660156 286.78125 47.109375 286.304688 46.566406 C 291.121094 49.492188 295.78125 52.660156 300.242188 56.078125 C 300.40625 56.261719 300.585938 56.429688 300.746094 56.632812 Z M 265.035156 35.765625 C 265.675781 36.203125 266.160156 36.582031 266.265625 36.769531 C 266.308594 36.84375 266.363281 36.925781 266.417969 37.007812 C 263.765625 35.851562 261.015625 34.910156 258.296875 33.886719 C 254.496094 32.480469 250.71875 30.972656 246.730469 30.105469 C 244.660156 29.492188 242.5625 28.933594 240.449219 28.410156 C 240.59375 28.195312 241.144531 28.113281 242.042969 28.191406 C 249.894531 30.113281 257.582031 32.660156 265.035156 35.765625 Z M 81.363281 279.910156 C 81.207031 279.792969 81.089844 279.773438 80.890625 279.546875 C 80.738281 279.328125 80.453125 278.929688 80.230469 278.609375 C 80.382812 278.71875 80.503906 278.746094 80.703125 278.96875 C 80.855469 279.1875 81.136719 279.589844 81.363281 279.910156 Z M 103.453125 299.554688 L 101.742188 297.984375 C 99.320312 295.769531 96.902344 293.5625 94.492188 291.355469 C 94.390625 291.253906 94.292969 291.140625 94.1875 291.035156 C 94.441406 291.191406 94.671875 291.332031 94.949219 291.503906 C 97.789062 294.34375 100.730469 297.082031 103.785156 299.691406 C 103.683594 299.652344 103.566406 299.601562 103.453125 299.554688 Z M 356.121094 138.476562 C 356.929688 141.855469 357.867188 145.734375 357.796875 146.214844 C 357.703125 146.859375 356.332031 141.5625 355.367188 138.15625 C 355.003906 136.886719 354.976562 136.914062 355.136719 137.566406 C 356.054688 141.128906 356.953125 144.585938 357.832031 147.984375 L 358.476562 150.515625 L 358.871094 153.078125 C 359.132812 154.78125 359.394531 156.464844 359.652344 158.144531 C 360.15625 159.523438 360.40625 160.21875 360.765625 161.984375 C 360.921875 162.871094 361.128906 164.015625 361.421875 165.652344 C 361.488281 166.257812 361.542969 166.960938 361.59375 167.71875 C 361.214844 167.332031 360.832031 167.078125 360.433594 167.066406 C 359.835938 167.039062 359.265625 168.136719 358.71875 171.246094 C 358.632812 171.738281 358.550781 172.242188 358.464844 172.742188 C 356.121094 133.949219 339.421875 99.058594 313.648438 73.203125 C 315.09375 74.265625 316.636719 75.480469 318.351562 76.960938 C 319.46875 78.167969 320.628906 79.429688 321.859375 80.789062 C 323.121094 82.148438 324.773438 83.992188 324.261719 83.21875 C 326.21875 85.609375 328.359375 88.367188 330.777344 91.722656 C 332.730469 95.023438 334.414062 97.308594 335.050781 97.386719 C 335.171875 97.398438 335.320312 97.46875 335.476562 97.574219 C 335.789062 98.039062 336.082031 98.464844 336.335938 98.796875 C 337.148438 99.886719 338.144531 101.382812 339.316406 103.230469 C 340.449219 105.09375 341.964844 107.195312 343.128906 109.871094 C 344.414062 112.488281 345.6875 115.097656 346.960938 117.699219 C 347.578125 119.007812 348.277344 120.285156 348.832031 121.617188 L 350.359375 125.675781 C 350.964844 127.296875 351.292969 128.011719 351.320312 127.867188 C 351.347656 127.726562 351.007812 126.664062 350.492188 125.179688 C 350.335938 124.722656 350.144531 124.191406 349.984375 123.742188 L 349.066406 121.28125 C 348.730469 120.476562 348.316406 119.707031 347.945312 118.921875 C 347.1875 117.355469 346.433594 115.796875 345.679688 114.242188 C 344.929688 112.6875 344.183594 111.136719 343.441406 109.59375 L 342.324219 107.28125 L 341.003906 105.085938 C 340.253906 103.832031 339.511719 102.589844 338.765625 101.34375 C 339.082031 101.773438 339.40625 102.21875 339.746094 102.695312 C 341.234375 104.53125 341.972656 106.203125 343.257812 108.191406 C 344.1875 109.925781 345.339844 112.070312 346.410156 114.066406 C 348.59375 117.632812 350.199219 124.453125 351.566406 126.679688 C 351.734375 126.960938 351.890625 127.203125 352.039062 127.421875 L 352.316406 128.113281 C 352.257812 127.929688 352.210938 127.757812 352.160156 127.582031 C 352.480469 128.027344 352.773438 128.359375 353.054688 128.636719 C 353.105469 128.78125 353.15625 128.925781 353.207031 129.074219 C 354.269531 132.195312 355.488281 135.265625 356.121094 138.476562 Z M 112.429688 350.660156 C 111.820312 350.660156 109.230469 349.429688 107.101562 348.121094 C 104.832031 346.722656 103.523438 345.664062 104.003906 345.628906 C 104.476562 345.589844 107.097656 346.855469 109.4375 348.25 C 111.75 349.621094 113.042969 350.65625 112.429688 350.660156 Z M 36.617188 116.59375 C 36.328125 117.390625 35.734375 118.761719 35.34375 119.523438 C 34.949219 120.289062 34.476562 120.984375 34.308594 121.085938 C 33.871094 121.34375 34.148438 120.117188 34.824219 118.210938 C 35.105469 117.414062 35.6875 116.019531 36.0625 115.289062 C 36.441406 114.554688 36.726562 114.3125 37.050781 113.863281 C 37.335938 113.933594 37.351562 114.558594 36.617188 116.59375 Z M 35.691406 219.320312 C 35.433594 219.460938 34.84375 217.8125 34.410156 215.71875 C 33.996094 213.691406 33.632812 210.847656 33.738281 210.121094 C 33.855469 209.324219 34.042969 208.855469 34.152344 208.445312 C 34.472656 208.894531 34.644531 209.09375 34.839844 209.425781 C 35.195312 210.03125 35.875 213.28125 36.007812 214.953125 C 36.230469 217.777344 36.09375 219.097656 35.691406 219.320312 Z M 31.28125 139.820312 C 31.121094 140.949219 30.898438 142.492188 30.722656 143.746094 C 30.53125 144.390625 30.359375 144.984375 30.289062 145.21875 C 30.1875 145.453125 30.074219 145.550781 30.074219 145.335938 C 30.164062 142.8125 29.855469 140.414062 31.113281 136.003906 C 31.320312 135.175781 31.789062 133.714844 32.09375 132.960938 C 32.347656 132.335938 32.777344 131.78125 32.71875 132.125 C 32.265625 134.550781 31.785156 137.132812 31.28125 139.820312 Z M 31.445312 201.914062 C 31.398438 202.40625 31.183594 202.484375 31.082031 201.96875 C 30.105469 196.3125 28.566406 190.320312 28.195312 185.238281 C 28.117188 184.605469 28.117188 183.257812 28.089844 182.207031 C 28.042969 180.308594 28.34375 177.121094 28.582031 176.957031 C 28.710938 177.144531 28.886719 176.96875 28.957031 177.585938 C 29.609375 183.761719 29.976562 190.929688 31.371094 199.09375 C 31.464844 199.765625 31.496094 201.398438 31.445312 201.914062 Z M 369.71875 202.640625 L 368.460938 192.988281 C 367.992188 189.765625 367.777344 185.964844 367.050781 183.515625 C 366.492188 181.804688 365.964844 179.917969 365.441406 177.785156 C 364.28125 173.035156 363.058594 169.332031 361.707031 167.820312 C 361.347656 162.820312 360.484375 158.1875 359.9375 153.652344 C 359.617188 151.292969 359.671875 150.964844 360.035156 152.824219 C 360.378906 154.695312 360.8125 157.035156 361.261719 159.484375 C 361 157.535156 360.738281 155.574219 360.480469 153.660156 C 360.222656 151.746094 360.019531 149.867188 359.550781 148.148438 C 358.320312 142.957031 357.261719 138.332031 355.820312 134.207031 C 355.238281 132.828125 354.597656 131.207031 353.921875 129.457031 C 354.105469 129.632812 354.289062 129.820312 354.488281 130.050781 C 355.339844 131.09375 356.316406 132.15625 357.175781 133.574219 C 357.585938 134.28125 358.117188 135.820312 358.675781 138.226562 L 360.1875 144.984375 C 361.570312 150.53125 361.882812 154.636719 362.847656 157.695312 C 363.320312 159.632812 363.925781 162.109375 364.449219 164.253906 C 364.914062 166.113281 365.296875 166.644531 365.667969 166.695312 C 366.484375 166.824219 366.742188 163.695312 366.425781 157.257812 L 366.476562 157.507812 C 366.039062 154.9375 365.628906 152.1875 365.394531 149.015625 C 363.785156 140.398438 362.460938 132.304688 359.457031 124.832031 C 358.054688 121.089844 356.96875 117.265625 355.308594 113.667969 C 353.625 110.082031 351.941406 106.496094 350.242188 102.867188 C 347.445312 96.898438 343.730469 91.480469 340.554688 85.957031 C 336.8125 80.78125 333.121094 75.710938 329.25 71.054688 C 323.847656 65.226562 318.375 58.773438 311.609375 52.515625 C 306.492188 47.03125 300.792969 43.25 296.753906 40.648438 C 295.886719 40.058594 294.421875 39.070312 293.242188 38.265625 C 291.339844 37.195312 289.382812 35.742188 287.285156 33.859375 C 285.710938 32.445312 283.441406 30.855469 282.769531 30.734375 C 280.691406 30.167969 275.421875 27.882812 269.878906 25.335938 L 268.554688 24.746094 C 266.230469 23.671875 263.78125 22.371094 260.882812 21.15625 C 259.5 20.523438 257.324219 19.660156 256.421875 19.410156 C 249.777344 17.21875 240.691406 15.328125 233.636719 13.992188 C 230.417969 13.597656 226.761719 13.148438 222.9375 12.679688 C 219.128906 12.15625 215.171875 11.550781 211.234375 11.570312 C 209.335938 11.503906 206.042969 10.921875 205.996094 10.632812 C 205.734375 9.351562 208.472656 7.835938 220.300781 9.277344 L 225.007812 9.988281 C 230.402344 10.765625 234.257812 11.0625 236.722656 11.289062 C 238.871094 11.371094 240.589844 11.28125 244.832031 12.183594 C 250.691406 13.164062 255.847656 15.132812 261.671875 16.867188 C 266.871094 18.40625 269.695312 19.402344 272.515625 20.125 C 273.589844 20.410156 273.023438 19.773438 271.585938 18.71875 C 269.503906 17.121094 266.773438 15.371094 263.074219 13.964844 C 252.972656 9.488281 242.207031 5.984375 231.851562 3.808594 C 219.417969 1.40625 206.539062 -0.00390625 193.738281 0.300781 C 182.671875 0.257812 171.421875 1.738281 161.992188 3.675781 C 159.136719 4.402344 155.734375 5.269531 152.496094 6.09375 C 147.59375 7.132812 142.796875 8.722656 138.046875 10.519531 C 135.207031 11.527344 133.875 11.664062 132.21875 11.925781 C 130.964844 12.121094 128.480469 12.894531 127.734375 13.460938 C 127.164062 13.820312 126.066406 14.386719 126.023438 14.535156 C 125.683594 15.707031 120.96875 18.164062 114.859375 21.164062 C 109.824219 24.027344 105.703125 26.949219 101.4375 29.734375 C 98.4375 31.65625 95.726562 33.941406 91.699219 36.242188 C 88.25 38.351562 85.652344 40.1875 83.96875 42.101562 C 82.859375 43.246094 82.285156 44.058594 81.738281 44.828125 C 80.992188 45.867188 79.832031 47.207031 77.40625 49.230469 C 70.808594 54.652344 67.402344 59.542969 65.25 62.644531 C 64.550781 63.710938 62.878906 65.667969 61.722656 67.535156 C 58.132812 73.054688 54.25 78.070312 51.070312 84.28125 C 49.464844 87.070312 47.78125 89.996094 46.066406 92.984375 C 44.609375 96.09375 43.128906 99.261719 41.664062 102.394531 C 41.480469 102.792969 40.421875 104.421875 40.121094 104.757812 C 39.09375 105.90625 39.039062 105.261719 39.355469 104.039062 C 40.121094 101.089844 41.605469 97.054688 43.425781 92.535156 C 44.300781 90.542969 45.90625 88.28125 47.765625 85.625 C 52.671875 78.773438 52.613281 78.71875 52.480469 77.207031 C 52.464844 77.011719 52.429688 76.816406 52.757812 76.261719 C 53.070312 75.730469 53.804688 74.699219 54.425781 73.960938 L 57.945312 70.015625 C 60.222656 67.425781 61.871094 65.019531 61.148438 65.34375 C 60.570312 65.597656 59.804688 66.089844 59.101562 66.507812 C 58.160156 67.058594 57.855469 66.859375 59.105469 64.957031 C 62.15625 60.417969 65.960938 56.25 69.523438 51.714844 C 69.929688 51.265625 71.195312 49.941406 72.046875 49.355469 C 72.941406 48.765625 73.527344 48.375 74.382812 47.808594 C 75.171875 47.261719 76.308594 46.464844 76.90625 45.9375 C 77.550781 45.367188 78.0625 44.738281 78.085938 44.566406 C 78.148438 43.972656 77.933594 43.601562 77.910156 43.078125 C 77.878906 42.511719 79.265625 40.910156 82.222656 38.394531 C 86.179688 35.246094 89.515625 33.011719 91.683594 30.886719 C 92.859375 29.808594 95.277344 27.929688 97.421875 26.414062 C 100.605469 24.464844 104.066406 22.347656 107.226562 20.410156 C 113.632812 16.464844 114.226562 15.539062 108.832031 17.386719 C 107.28125 17.988281 105.566406 18.652344 103.867188 19.308594 C 100.738281 20.65625 96.785156 22.222656 92.902344 24.824219 C 90.785156 26.253906 88.597656 27.730469 86.589844 29.089844 C 79.355469 33.792969 72.972656 39.871094 66.460938 45.480469 C 60.535156 51.714844 54.449219 57.625 49.917969 64.21875 C 47.726562 67.355469 44.515625 70.695312 42.367188 74.351562 C 39.332031 79.253906 35.925781 83.96875 33.363281 88.984375 C 30.859375 94.03125 28.3125 98.875 26.359375 103.589844 C 24.109375 110.246094 21.066406 116.816406 19.476562 123.871094 C 17.824219 130.320312 15.90625 136.703125 15.1875 143.167969 C 14.15625 149.5625 13.277344 155.78125 13.34375 161.710938 C 13.167969 167.535156 12.921875 173.464844 13.546875 179.480469 C 13.945312 185.492188 14.195312 191.585938 15.410156 197.644531 C 16.183594 201.914062 16.613281 206.371094 17.675781 210.8125 C 18.78125 215.242188 19.910156 219.765625 21.050781 224.332031 C 21.820312 227.660156 23.011719 230.285156 23.929688 232.390625 C 25.136719 234.910156 26.535156 238.238281 27.929688 241.675781 C 31.785156 249.21875 35.300781 257.171875 40.277344 264.257812 C 41.304688 265.847656 42.425781 267.621094 43.542969 269.589844 C 46.972656 275.578125 50.199219 278.761719 52.710938 281.632812 C 54.46875 283.605469 56.957031 286.585938 59.207031 288.515625 C 61.679688 290.773438 64.953125 295.113281 67.808594 298.074219 C 69.371094 299.460938 70.945312 300.859375 72.328125 302.085938 C 78.804688 308.011719 86.113281 312.925781 92.066406 316.574219 C 96.085938 318.988281 101.136719 321.421875 105.851562 324.046875 C 107.148438 324.8125 109.171875 326.027344 111.027344 326.863281 C 115.09375 327.886719 120.339844 330.230469 125.996094 331.914062 C 130.441406 333.183594 134.996094 334.476562 139.570312 335.78125 C 144.207031 336.625 148.863281 337.472656 153.421875 338.304688 C 160.734375 339.191406 168.566406 339.886719 173.210938 339.371094 C 173.890625 339.265625 174.734375 339.164062 175.9375 339.179688 C 182.273438 339.199219 186.734375 339.085938 191.941406 338.371094 C 191.980469 338.371094 192.015625 338.375 192.050781 338.375 C 196.449219 338.558594 200.851562 338.949219 205.25 338.960938 C 209.644531 338.757812 214.039062 338.554688 218.429688 338.355469 C 218.835938 338.308594 219.234375 338.257812 219.636719 338.210938 C 216.082031 339.269531 211.828125 340.328125 205.835938 341.335938 C 201.210938 341.859375 197.523438 342.28125 194.023438 342.675781 C 191.988281 342.925781 189.878906 343.183594 187.6875 343.449219 C 185.480469 343.453125 183.191406 343.453125 180.800781 343.453125 C 176.003906 343.386719 170.726562 343.4375 165.03125 342.335938 C 161.679688 341.824219 158.472656 341.433594 156.003906 341.257812 C 152.445312 340.90625 150.046875 340.601562 144.539062 339.15625 C 143.285156 338.8125 142.277344 338.742188 141.867188 338.808594 C 140.5 339.058594 137.710938 338.695312 134.125 337.492188 C 131.796875 336.785156 129.28125 336.011719 127.851562 335.785156 C 123.652344 335.347656 117.140625 332.472656 110.664062 329.617188 C 105.078125 327.425781 99.914062 323.871094 94.425781 320.964844 C 89.097656 317.816406 84.257812 314.082031 79.46875 311.007812 C 78.40625 310.324219 77.191406 309.15625 76.101562 308.242188 C 71.121094 303.859375 65.757812 299.773438 61.3125 294.765625 C 59.332031 292.703125 57.441406 290.867188 55.289062 288.417969 C 50.613281 282.519531 47.023438 277.992188 43.335938 273.339844 C 38.898438 266.457031 33.851562 259.730469 30.300781 252.277344 C 29.449219 250.679688 28.625 249.222656 27.898438 248.035156 C 25.378906 244.296875 23.421875 239.40625 21.234375 234.160156 C 18.863281 228.960938 17.125 223.160156 15.542969 217.355469 C 13.417969 210.921875 12.308594 203.742188 11.128906 197.527344 C 10.25 193.515625 9.613281 189.308594 9.394531 184.960938 C 9.058594 180.625 8.65625 176.183594 8.445312 171.707031 C 8.734375 162.773438 8.546875 153.636719 9.898438 145.128906 C 10.027344 144.183594 10.183594 143.042969 10.324219 142.023438 C 11.097656 133.765625 13.578125 126.035156 15.414062 117.679688 C 17.027344 112.820312 17.90625 109.671875 17.980469 107.894531 C 18.085938 105.789062 18.195312 103.679688 18.109375 102 C 18.070312 101.203125 17.109375 102.492188 15.742188 105.074219 C 14.75 106.945312 13.546875 109.328125 12.554688 111.59375 C 7.667969 123.425781 4.078125 135.78125 2.347656 147.828125 C 1.003906 153.839844 1 160.449219 0.347656 166.859375 C -0.257812 172.011719 0.078125 177.09375 0.15625 182.109375 C 0.304688 187.125 0.304688 192.085938 1.125 196.941406 C 2.578125 210.269531 5.320312 223.863281 9.714844 236.789062 C 10.703125 239.726562 11.730469 242.773438 12.753906 245.8125 C 13.136719 247.003906 13.511719 248.363281 14.0625 249.570312 C 15.054688 251.957031 15.660156 254 15.492188 254.476562 C 15.144531 255.449219 15.53125 256.585938 17.757812 261.113281 C 18.511719 262.609375 19.191406 263.949219 19.949219 265.445312 C 20.789062 267.035156 21.84375 269.046875 22.074219 269.996094 C 22.308594 270.855469 22.289062 271.292969 22.652344 272.355469 C 22.84375 272.921875 23.597656 274.511719 24.117188 275.457031 C 24.652344 276.445312 25.382812 277.578125 25.726562 278 C 26.3125 278.707031 26.75 279.078125 27.082031 279.273438 C 28.984375 280.539062 32.644531 284.492188 38.992188 292.796875 C 41.289062 295.996094 43.566406 298.222656 46.132812 300.910156 C 47.535156 302.460938 49.191406 304.285156 50.785156 306.046875 C 52.363281 307.871094 54.996094 311.285156 56.316406 312.917969 C 56.664062 313.398438 56.425781 313.507812 55.960938 313.09375 C 54.308594 311.699219 52.601562 309.933594 51.015625 308.027344 C 48.808594 305.496094 47.101562 303.714844 45.992188 302.878906 C 45.363281 302.402344 44.84375 302.085938 44.347656 301.789062 C 43.335938 301.097656 41.257812 299.410156 38.777344 295.808594 C 37.648438 294.253906 36.554688 292.742188 35.53125 291.332031 C 33.789062 288.984375 33.640625 289.75 35.226562 292.5 C 36.507812 294.691406 37.917969 297.015625 39.492188 298.972656 C 41.085938 300.6875 42.46875 302.179688 43.945312 303.769531 L 51.15625 311.410156 C 53.632812 313.882812 56.371094 316.117188 59.007812 318.492188 C 59.445312 318.882812 60.617188 320.238281 61.332031 321.0625 C 61.613281 321.386719 61.792969 321.726562 61.648438 321.648438 C 61.085938 321.351562 60.628906 321.207031 59.667969 320.429688 C 55.550781 317 50.929688 313.5625 47.214844 309.632812 C 45.628906 308.085938 44.246094 306.847656 42.992188 305.769531 C 42.574219 305.414062 42.503906 305.667969 42.886719 306.28125 C 43.546875 307.328125 44.648438 308.984375 45.640625 310.199219 C 50.257812 316.308594 56.042969 321.113281 60.9375 325.863281 C 73.628906 336.585938 87.957031 347.125 103.417969 354.480469 C 126.703125 366.152344 151.527344 372.582031 175.617188 374.097656 C 187.375 375.015625 197.988281 374.222656 209.414062 373.210938 C 224.878906 371.273438 238.785156 368.035156 251.996094 362.980469 C 256.019531 361.421875 259.90625 359.933594 263.683594 358.328125 C 267.339844 356.453125 270.957031 354.597656 274.617188 352.71875 C 278.3125 350.9375 281.898438 348.875 285.46875 346.496094 C 289.070312 344.1875 292.875 341.957031 296.71875 339.382812 C 297.582031 338.703125 298.296875 338.144531 299.058594 337.542969 C 313.097656 327.226562 325.03125 314.503906 335.632812 301.238281 C 343.714844 290.125 350.875 278.867188 356.523438 266.269531 C 361.53125 255.914062 364.183594 246.378906 366.832031 236.828125 C 368.167969 230.261719 368.988281 224.917969 369.492188 220.167969 C 369.605469 215.96875 369.71875 211.511719 369.828125 207.300781 C 369.859375 205.53125 369.773438 204.128906 369.71875 202.640625"/><path fill="#FFB905" d="M 111.148438 326.957031 L 111.261719 326.976562 L 111.246094 326.972656 L 111.027344 326.863281 L 110.949219 326.835938 L 111.148438 326.957031"/><path fill="#FFB905" d="M 109.636719 326.980469 C 110.320312 327.464844 111.246094 328.132812 112.015625 328.554688 C 114.3125 329.816406 116.316406 330.585938 115.878906 330.09375 C 115.414062 329.566406 113.902344 328.636719 112.425781 327.738281 L 111.148438 326.957031 C 110.59375 326.863281 110.023438 326.765625 109.527344 326.679688 C 109.371094 326.664062 109.359375 326.78125 109.636719 326.980469"/><path fill="#FFB905" d="M 16.441406 263.992188 C 16.355469 263.914062 16.492188 264.410156 16.527344 264.652344 C 16.777344 265.195312 17.125 265.957031 17.253906 266.242188 C 17.835938 267.238281 17.742188 266.746094 17.035156 265.058594 C 16.859375 264.640625 16.535156 264.074219 16.441406 263.992188"/><path fill="#FFB905" d="M 69.375 54.933594 L 69.980469 54.179688 L 68.964844 55.121094 Z M 69.375 54.933594"/><path fill="#FFB905" d="M 332.835938 88.847656 L 332.167969 87.796875 L 332.222656 88.132812 Z M 332.835938 88.847656"/><path fill="#FFB905" d="M 202.898438 26.871094 C 203.039062 26.867188 203.179688 26.863281 203.320312 26.859375 C 203.300781 26.859375 203.277344 26.855469 203.257812 26.855469 C 203.136719 26.863281 203.019531 26.867188 202.898438 26.871094"/><path fill="#FFB905" d="M 247.859375 33.3125 C 243.265625 32.136719 238.707031 30.699219 234.03125 29.761719 C 229.3125 29.023438 224.578125 28.277344 219.824219 27.535156 C 215.019531 27.289062 210.199219 27.039062 205.359375 26.789062 C 204.683594 26.789062 204 26.84375 203.320312 26.859375 C 207.433594 26.902344 211.515625 27.265625 215.515625 27.480469 C 226.285156 28.3125 237.214844 30.363281 247.859375 33.3125"/><path fill="#FFB905" d="M 202.898438 26.871094 C 198.871094 26.984375 194.835938 27.265625 190.78125 27.453125 C 194.828125 27.257812 198.878906 27.066406 202.898438 26.871094"/><path fill="#FFF" d="M 284.296875 247.976562 C 284.804688 248.742188 285.566406 249.25 286.585938 249.25 C 286.839844 249.25 287.09375 249.25 287.347656 249.25 C 289.128906 248.742188 304.386719 237.265625 302.351562 212.53125 C 302.351562 212.277344 299.808594 183.71875 273.871094 184.480469 C 247.679688 183.972656 245.390625 212.277344 245.390625 212.53125 C 243.355469 237.523438 258.613281 248.742188 260.394531 249.25 C 260.648438 249.25 260.902344 249.25 261.15625 249.25 C 262.175781 249.25 262.9375 248.742188 263.445312 247.976562 C 263.699219 247.210938 264.207031 245.9375 262.429688 244.40625 C 255.054688 237.265625 259.121094 223.75 260.648438 219.417969 L 287.09375 219.417969 C 288.875 224.007812 292.941406 237.265625 285.3125 244.40625 C 283.535156 245.9375 284.042969 247.210938 284.296875 247.976562 Z M 288.875 214.316406 L 258.613281 214.316406 C 257.597656 214.316406 256.578125 214.828125 256.324219 215.847656 C 256.070312 216.355469 253.019531 223.496094 252.765625 231.65625 C 250.984375 226.8125 249.714844 220.691406 250.222656 213.042969 C 250.222656 212.023438 252.257812 190.347656 272.34375 189.582031 C 272.855469 189.582031 273.363281 189.582031 273.871094 189.582031 C 274.378906 189.582031 274.886719 189.582031 275.398438 189.582031 C 295.484375 190.09375 297.265625 212.023438 297.519531 213.042969 C 298.28125 220.691406 297.011719 227.066406 294.976562 231.65625 C 294.722656 223.496094 291.671875 216.355469 291.417969 215.847656 C 290.652344 215.082031 289.890625 214.316406 288.875 214.316406 Z M 288.875 214.316406"/><path fill="#FFF" d="M 73.75 218.90625 C 73.75 237.011719 85.699219 251.800781 100.449219 251.800781 C 115.195312 251.800781 127.148438 237.011719 127.148438 218.90625 C 127.148438 200.800781 115.195312 186.011719 100.449219 186.011719 C 85.699219 186.011719 73.75 200.800781 73.75 218.90625 Z M 85.953125 198.25 C 86.207031 199.015625 86.714844 199.527344 87.226562 200.292969 C 85.445312 204.371094 82.394531 207.941406 79.851562 210.238281 C 81.121094 205.648438 83.410156 201.566406 85.953125 198.25 Z M 100.449219 246.703125 C 88.496094 246.703125 78.832031 234.207031 78.832031 218.90625 C 78.832031 218.398438 78.832031 217.886719 78.832031 217.375 C 80.359375 216.355469 86.972656 211.765625 90.785156 204.625 C 93.074219 206.921875 96.125 209.21875 100.195312 210.492188 L 103.753906 211.765625 L 103.5 205.902344 C 107.566406 208.707031 113.925781 212.277344 121.808594 214.0625 C 122.0625 215.59375 122.0625 217.121094 122.0625 218.90625 C 122.316406 234.207031 112.398438 246.703125 100.449219 246.703125 Z M 120.535156 208.453125 C 109.601562 205.136719 102.226562 198.507812 102.226562 198.507812 L 97.398438 193.917969 L 98.160156 204.117188 C 93.328125 201.3125 90.785156 196.976562 89.769531 194.683594 C 92.820312 192.386719 96.378906 191.113281 100.449219 191.113281 C 109.601562 191.113281 117.484375 198.25 120.535156 208.453125 Z M 120.535156 208.453125"/><g clip-path="url(#a)"><path fill="#FFF" d="M 146.726562 274.496094 C 146.472656 270.925781 146.21875 266.847656 145.457031 264.042969 C 143.421875 255.371094 136.8125 244.152344 125.367188 241.601562 C 124.097656 241.347656 122.570312 242.113281 122.316406 243.386719 C 122.0625 244.660156 122.824219 246.191406 124.097656 246.445312 C 132.742188 248.488281 138.335938 257.410156 140.371094 265.0625 C 141.132812 268.375 141.386719 274.242188 141.386719 278.578125 C 130.199219 287.246094 116.214844 292.601562 100.957031 292.601562 C 85.191406 292.601562 70.441406 286.992188 59.253906 277.8125 C 59.253906 273.730469 59.761719 268.121094 60.269531 265.0625 C 62.050781 257.15625 67.898438 248.488281 76.546875 246.445312 C 77.816406 246.191406 78.832031 244.660156 78.324219 243.386719 C 78.070312 242.113281 76.546875 241.09375 75.273438 241.601562 C 63.832031 244.40625 57.472656 255.371094 55.183594 264.042969 C 54.675781 266.59375 54.167969 270.160156 54.167969 273.476562 C 42.214844 261.492188 34.84375 244.917969 34.84375 226.558594 C 34.84375 190.09375 64.59375 160.257812 101.210938 160.257812 C 136.046875 160.257812 164.78125 187.542969 167.324219 221.96875 L 217.929688 221.96875 L 217.929688 226.8125 L 235.472656 216.613281 L 217.929688 206.410156 L 217.929688 211.511719 L 175.972656 211.511719 C 169.105469 176.578125 138.082031 150.058594 101.210938 150.058594 C 59 150.058594 24.671875 184.226562 24.671875 226.558594 C 24.671875 268.886719 59 303.058594 101.210938 303.058594 C 134.777344 303.058594 163.257812 281.382812 173.683594 251.035156 L 162.75 251.035156 C 158.933594 259.960938 153.59375 268.121094 146.726562 274.496094 Z M 146.726562 274.496094"/></g><g clip-path="url(#b)"><path fill="#FFF" d="M 273.617188 150.058594 C 240.050781 150.058594 211.570312 171.730469 201.144531 202.078125 L 212.078125 202.078125 C 221.996094 177.597656 245.898438 160.257812 273.617188 160.257812 C 310.234375 160.257812 339.984375 190.09375 339.984375 226.558594 C 339.984375 245.171875 332.355469 262 319.898438 273.988281 C 319.644531 270.417969 319.386719 266.59375 318.878906 264.042969 C 316.84375 255.371094 310.234375 244.152344 298.792969 241.601562 C 297.519531 241.347656 295.992188 242.113281 295.738281 243.386719 C 295.484375 244.660156 296.25 246.191406 297.519531 246.445312 C 306.164062 248.488281 311.757812 257.410156 313.792969 265.0625 C 314.558594 268.121094 314.8125 273.988281 314.8125 278.320312 C 303.367188 287.246094 289.128906 292.855469 273.617188 292.855469 C 258.105469 292.855469 243.867188 287.5 232.421875 278.320312 C 232.421875 273.988281 232.675781 268.375 233.441406 265.316406 C 235.21875 257.410156 241.066406 248.742188 249.714844 246.703125 C 250.984375 246.445312 252.003906 244.917969 251.492188 243.640625 C 251.238281 242.367188 249.714844 241.347656 248.441406 241.855469 C 237 244.660156 230.640625 255.625 228.355469 264.296875 C 227.84375 266.847656 227.335938 270.671875 227.335938 274.242188 C 216.148438 263.277344 208.773438 248.230469 207.503906 231.65625 L 155.121094 231.65625 L 155.121094 226.558594 L 137.574219 236.757812 L 155.121094 246.957031 L 155.121094 241.855469 L 198.855469 241.855469 C 205.722656 276.535156 236.746094 303.058594 273.617188 303.058594 C 315.828125 303.058594 350.15625 268.886719 350.15625 226.558594 C 350.15625 184.226562 315.828125 150.058594 273.617188 150.058594 Z M 273.617188 150.058594"/></g><g clip-path="url(#c)"><path fill="#FF7605" d="M 214.628906 26.304688 L 111.558594 26.304688 C 107.292969 26.304688 103.835938 29.765625 103.835938 34.035156 L 103.835938 92.683594 C 103.835938 96.953125 107.292969 100.414062 111.558594 100.414062 L 123.320312 100.414062 C 122.851562 107.40625 122.234375 116.199219 122.234375 116.199219 C 122.234375 116.199219 123.945312 122.8125 128.992188 115.234375 C 129.398438 114.628906 137.242188 106.445312 143.054688 100.414062 L 214.628906 100.414062 C 218.898438 100.414062 222.355469 96.953125 222.355469 92.683594 L 222.355469 34.035156 C 222.359375 29.765625 218.898438 26.304688 214.628906 26.304688 Z M 214.628906 26.304688"/></g><path fill="#BF5414" d="M 193.492188 58.113281 C 193.484375 58.113281 193.476562 58.113281 193.460938 58.113281 C 190.472656 58.105469 188.933594 56.5625 187.699219 55.320312 C 186.65625 54.269531 185.964844 53.582031 184.441406 53.574219 C 182.90625 53.550781 182.226562 54.253906 181.175781 55.300781 C 179.941406 56.527344 178.398438 58.054688 175.425781 58.054688 C 175.417969 58.054688 175.410156 58.054688 175.398438 58.054688 C 172.410156 58.050781 170.867188 56.507812 169.640625 55.265625 C 168.597656 54.21875 167.90625 53.523438 166.382812 53.515625 C 166.375 53.515625 166.375 53.515625 166.367188 53.515625 C 164.855469 53.515625 164.167969 54.207031 163.117188 55.242188 C 161.882812 56.472656 160.339844 58 157.367188 58 C 157.359375 58 157.351562 58 157.339844 58 C 154.347656 57.992188 152.816406 56.449219 151.582031 55.207031 C 150.539062 54.164062 149.847656 53.464844 148.328125 53.460938 C 148.324219 53.460938 148.324219 53.460938 148.316406 53.460938 C 146.804688 53.460938 146.113281 54.148438 145.066406 55.1875 C 143.828125 56.414062 142.289062 57.941406 139.316406 57.941406 C 139.308594 57.941406 139.300781 57.941406 139.285156 57.941406 C 136.296875 57.933594 134.757812 56.394531 133.527344 55.152344 C 132.484375 54.105469 131.796875 53.410156 130.277344 53.402344 C 129.296875 53.402344 128.503906 52.601562 128.511719 51.621094 C 128.511719 50.640625 129.304688 49.863281 130.292969 49.851562 C 133.28125 49.859375 134.820312 51.398438 136.050781 52.644531 C 137.09375 53.6875 137.78125 54.382812 139.300781 54.390625 C 139.308594 54.390625 139.308594 54.390625 139.316406 54.390625 C 140.828125 54.390625 141.523438 53.703125 142.566406 52.664062 C 143.800781 51.433594 145.339844 49.90625 148.316406 49.90625 C 148.324219 49.90625 148.328125 49.90625 148.34375 49.90625 C 151.332031 49.914062 152.867188 51.457031 154.101562 52.699219 C 155.144531 53.742188 155.832031 54.441406 157.351562 54.445312 C 157.359375 54.445312 157.359375 54.445312 157.367188 54.445312 C 158.878906 54.445312 159.566406 53.757812 160.617188 52.722656 C 161.851562 51.492188 163.394531 49.964844 166.367188 49.964844 C 166.375 49.964844 166.382812 49.964844 166.394531 49.964844 C 169.382812 49.972656 170.925781 51.511719 172.152344 52.757812 C 173.195312 53.800781 173.886719 54.496094 175.410156 54.503906 C 175.417969 54.503906 175.417969 54.503906 175.425781 54.503906 C 176.9375 54.503906 177.625 53.816406 178.675781 52.777344 C 179.910156 51.546875 181.453125 50.019531 184.425781 50.019531 C 184.433594 50.019531 184.441406 50.019531 184.453125 50.019531 C 187.441406 50.027344 188.984375 51.570312 190.21875 52.8125 C 191.261719 53.863281 191.949219 54.554688 193.476562 54.5625 C 193.484375 54.5625 193.484375 54.5625 193.492188 54.5625 C 195.003906 54.5625 195.699219 53.871094 196.742188 52.835938 C 197.976562 51.605469 199.519531 50.078125 202.492188 50.078125 C 202.5 50.078125 202.507812 50.078125 202.519531 50.078125 C 203.5 50.078125 204.296875 50.878906 204.289062 51.859375 C 204.289062 52.839844 203.492188 53.628906 202.511719 53.628906 C 202.507812 53.628906 202.5 53.628906 202.492188 53.628906 C 200.980469 53.628906 200.285156 54.320312 199.242188 55.355469 C 198.003906 56.585938 196.464844 58.113281 193.492188 58.113281 Z M 193.492188 58.113281"/><path fill="#BF5414" d="M 193.492188 74.671875 C 193.484375 74.671875 193.476562 74.671875 193.460938 74.671875 C 190.472656 74.667969 188.933594 73.125 187.699219 71.882812 C 186.65625 70.835938 185.964844 70.140625 184.441406 70.132812 C 184.433594 70.132812 184.433594 70.132812 184.425781 70.132812 C 182.914062 70.132812 182.226562 70.824219 181.175781 71.859375 C 179.941406 73.089844 178.398438 74.617188 175.425781 74.617188 C 175.417969 74.617188 175.410156 74.617188 175.398438 74.617188 C 172.410156 74.609375 170.867188 73.066406 169.640625 71.824219 C 168.597656 70.78125 167.90625 70.085938 166.382812 70.078125 C 166.375 70.078125 166.375 70.078125 166.367188 70.078125 C 164.855469 70.078125 164.167969 70.765625 163.117188 71.804688 C 161.882812 73.03125 160.339844 74.558594 157.367188 74.558594 C 157.359375 74.558594 157.351562 74.558594 157.339844 74.558594 C 154.347656 74.554688 152.816406 73.011719 151.582031 71.769531 C 150.539062 70.722656 149.847656 70.027344 148.328125 70.019531 C 148.324219 70.019531 148.324219 70.019531 148.316406 70.019531 C 146.804688 70.019531 146.113281 70.710938 145.066406 71.746094 C 143.828125 72.976562 142.289062 74.503906 139.316406 74.503906 C 139.308594 74.503906 139.300781 74.503906 139.285156 74.503906 C 136.296875 74.496094 134.757812 72.953125 133.527344 71.710938 C 132.484375 70.667969 131.796875 69.96875 130.277344 69.964844 C 129.296875 69.964844 128.503906 69.160156 128.511719 68.179688 C 128.511719 67.199219 129.304688 66.410156 130.285156 66.410156 C 130.285156 66.410156 130.285156 66.410156 130.292969 66.410156 C 133.28125 66.417969 134.820312 67.960938 136.050781 69.203125 C 137.09375 70.246094 137.78125 70.945312 139.300781 70.949219 C 139.308594 70.949219 139.308594 70.949219 139.316406 70.949219 C 140.828125 70.949219 141.523438 70.261719 142.566406 69.222656 C 143.800781 67.996094 145.339844 66.46875 148.316406 66.46875 C 148.324219 66.46875 148.328125 66.46875 148.34375 66.46875 C 151.332031 66.476562 152.867188 68.015625 154.101562 69.261719 C 155.144531 70.304688 155.832031 71 157.351562 71.007812 C 157.359375 71.007812 157.359375 71.007812 157.367188 71.007812 C 158.878906 71.007812 159.566406 70.320312 160.617188 69.28125 C 161.851562 68.050781 163.394531 66.523438 166.367188 66.523438 C 166.375 66.523438 166.382812 66.523438 166.394531 66.523438 C 169.382812 66.53125 170.925781 68.074219 172.152344 69.316406 C 173.195312 70.359375 173.886719 71.058594 175.410156 71.066406 C 175.417969 71.066406 175.417969 71.066406 175.425781 71.066406 C 176.9375 71.066406 177.625 70.375 178.675781 69.339844 C 179.910156 68.109375 181.453125 66.582031 184.425781 66.582031 C 184.433594 66.582031 184.441406 66.582031 184.453125 66.582031 C 187.441406 66.589844 188.984375 68.128906 190.21875 69.375 C 191.261719 70.417969 191.949219 71.113281 193.476562 71.121094 C 195.011719 71.144531 195.691406 70.441406 196.742188 69.394531 C 197.976562 68.167969 199.519531 66.636719 202.492188 66.636719 C 202.5 66.636719 202.507812 66.636719 202.519531 66.636719 C 203.5 66.636719 204.296875 67.441406 204.289062 68.421875 C 204.289062 69.402344 203.492188 70.191406 202.511719 70.191406 C 202.507812 70.191406 202.5 70.191406 202.492188 70.191406 C 200.980469 70.191406 200.285156 70.878906 199.242188 71.917969 C 198.003906 73.144531 196.464844 74.671875 193.492188 74.671875 Z M 193.492188 74.671875"/><path fill="#F6F6E9" d="M 264.03125 176.808594 C 263.964844 176.800781 263.035156 176.652344 261.238281 173.960938 C 261.054688 173.683594 260.671875 173.105469 246.980469 158.890625 L 246.453125 158.351562 L 174.125 158.351562 C 170.847656 158.351562 168.175781 155.679688 168.175781 152.398438 L 168.175781 93.75 C 168.175781 90.46875 170.847656 87.796875 174.125 87.796875 L 277.203125 87.796875 C 280.484375 87.796875 283.152344 90.46875 283.152344 93.75 L 283.152344 152.398438 C 283.152344 155.679688 280.484375 158.351562 277.203125 158.351562 L 263.539062 158.351562 L 263.667969 160.246094 C 264.085938 166.4375 264.617188 174.042969 264.734375 175.707031 C 264.539062 176.234375 264.207031 176.730469 264.03125 176.808594 Z M 264.03125 176.808594"/><g clip-path="url(#d)"><path fill="#BF5414" d="M 277.203125 89.566406 C 279.503906 89.566406 281.378906 91.441406 281.378906 93.742188 L 281.378906 152.390625 C 281.378906 154.691406 279.503906 156.566406 277.203125 156.566406 L 261.636719 156.566406 L 261.894531 160.363281 C 262.183594 164.730469 262.539062 169.847656 262.765625 173.050781 C 262.753906 173.027344 262.730469 173 262.714844 172.980469 C 262.441406 172.566406 262.0625 172 248.257812 157.660156 L 247.214844 156.574219 L 174.125 156.574219 C 171.828125 156.574219 169.953125 154.699219 169.953125 152.398438 L 169.953125 93.75 C 169.953125 91.449219 171.828125 89.570312 174.125 89.570312 L 277.203125 89.570312 M 277.203125 86.011719 L 174.125 86.011719 C 169.859375 86.011719 166.402344 89.472656 166.402344 93.742188 L 166.402344 152.390625 C 166.402344 156.660156 169.859375 160.121094 174.125 160.121094 L 245.703125 160.121094 C 251.515625 166.152344 259.359375 174.335938 259.761719 174.941406 C 261.601562 177.703125 263 178.578125 264.03125 178.578125 C 265.832031 178.578125 266.523438 175.90625 266.523438 175.90625 C 266.523438 175.90625 265.902344 167.109375 265.433594 160.121094 L 277.199219 160.121094 C 281.464844 160.121094 284.921875 156.660156 284.921875 152.390625 L 284.921875 93.742188 C 284.929688 89.472656 281.472656 86.011719 277.203125 86.011719 Z M 277.203125 86.011719"/></g><path fill="#BF5414" d="M 186.257812 117.839844 C 185.277344 117.839844 184.484375 117.050781 184.484375 116.070312 C 184.484375 115.089844 185.269531 114.296875 186.25 114.289062 C 187.777344 114.28125 188.464844 113.59375 189.507812 112.539062 C 190.742188 111.304688 192.277344 109.761719 195.273438 109.75 C 195.28125 109.75 195.285156 109.75 195.300781 109.75 C 198.277344 109.75 199.816406 111.277344 201.050781 112.503906 C 202.09375 113.542969 202.789062 114.230469 204.300781 114.230469 C 204.308594 114.230469 204.308594 114.230469 204.316406 114.230469 C 205.84375 114.226562 206.53125 113.535156 207.566406 112.484375 C 208.804688 111.246094 210.335938 109.707031 213.324219 109.691406 C 213.332031 109.691406 213.339844 109.691406 213.351562 109.691406 C 216.328125 109.691406 217.867188 111.21875 219.101562 112.449219 C 220.144531 113.484375 220.84375 114.175781 222.355469 114.175781 C 222.359375 114.175781 222.359375 114.175781 222.367188 114.175781 C 223.886719 114.167969 224.582031 113.480469 225.621094 112.425781 C 226.855469 111.191406 228.386719 109.648438 231.375 109.636719 C 234.351562 109.640625 235.914062 111.164062 237.148438 112.390625 C 238.191406 113.429688 238.886719 114.117188 240.398438 114.117188 C 240.40625 114.117188 240.40625 114.117188 240.414062 114.117188 C 241.933594 114.109375 242.628906 113.421875 243.664062 112.371094 C 244.898438 111.132812 246.433594 109.59375 249.421875 109.578125 C 249.429688 109.578125 249.433594 109.578125 249.449219 109.578125 C 252.421875 109.578125 253.964844 111.105469 255.199219 112.335938 C 256.25 113.378906 256.9375 114.082031 258.464844 114.0625 C 258.464844 114.0625 258.464844 114.0625 258.472656 114.0625 C 259.453125 114.0625 260.246094 114.851562 260.246094 115.832031 C 260.246094 116.8125 259.457031 117.605469 258.480469 117.613281 C 258.472656 117.613281 258.464844 117.613281 258.449219 117.613281 C 255.476562 117.613281 253.9375 116.085938 252.699219 114.855469 C 251.65625 113.820312 250.960938 113.128906 249.449219 113.128906 C 249.441406 113.128906 249.441406 113.128906 249.433594 113.128906 C 247.910156 113.136719 247.21875 113.828125 246.183594 114.878906 C 244.949219 116.113281 243.414062 117.65625 240.425781 117.671875 C 240.421875 117.671875 240.414062 117.671875 240.398438 117.671875 C 237.425781 117.671875 235.882812 116.144531 234.648438 114.914062 C 233.597656 113.871094 232.875 113.1875 231.382812 113.1875 C 229.863281 113.195312 229.175781 113.882812 228.132812 114.933594 C 226.898438 116.171875 225.363281 117.714844 222.375 117.726562 C 222.367188 117.726562 222.359375 117.726562 222.347656 117.726562 C 219.371094 117.726562 217.832031 116.199219 216.597656 114.96875 C 215.554688 113.933594 214.859375 113.246094 213.347656 113.246094 C 213.339844 113.246094 213.339844 113.246094 213.332031 113.246094 C 211.8125 113.25 211.117188 113.941406 210.082031 114.992188 C 208.84375 116.226562 207.3125 117.769531 204.324219 117.785156 C 204.316406 117.785156 204.308594 117.785156 204.296875 117.785156 C 201.320312 117.785156 199.78125 116.257812 198.546875 115.027344 C 197.5 113.988281 196.804688 113.300781 195.292969 113.300781 C 195.285156 113.300781 195.285156 113.300781 195.28125 113.300781 C 193.753906 113.308594 193.066406 113.996094 192.023438 115.046875 C 190.785156 116.292969 189.253906 117.832031 186.257812 117.839844 Z M 186.257812 117.839844"/><path fill="#BF5414" d="M 186.257812 134.410156 C 185.277344 134.410156 184.484375 133.621094 184.484375 132.640625 C 184.484375 131.660156 185.269531 130.863281 186.25 130.855469 C 187.777344 130.847656 188.464844 130.160156 189.507812 129.109375 C 190.742188 127.871094 192.277344 126.332031 195.273438 126.316406 C 195.28125 126.316406 195.285156 126.316406 195.300781 126.316406 C 198.277344 126.316406 199.816406 127.84375 201.050781 129.074219 C 202.101562 130.117188 202.789062 130.769531 204.316406 130.800781 C 205.835938 130.792969 206.53125 130.101562 207.566406 129.050781 C 208.804688 127.816406 210.335938 126.273438 213.324219 126.257812 C 213.332031 126.257812 213.339844 126.257812 213.351562 126.257812 C 216.328125 126.257812 217.867188 127.789062 219.101562 129.015625 C 220.144531 130.054688 220.84375 130.742188 222.355469 130.742188 C 222.359375 130.742188 222.359375 130.742188 222.367188 130.742188 C 223.886719 130.734375 224.582031 130.046875 225.621094 128.996094 C 226.855469 127.757812 228.386719 126.21875 231.375 126.203125 C 231.382812 126.203125 231.390625 126.203125 231.40625 126.203125 C 234.378906 126.203125 235.917969 127.730469 237.15625 128.960938 C 238.199219 129.996094 238.894531 130.6875 240.40625 130.6875 C 240.414062 130.6875 240.414062 130.6875 240.421875 130.6875 C 241.9375 130.679688 242.632812 129.988281 243.671875 128.9375 C 244.90625 127.703125 246.441406 126.160156 249.429688 126.144531 C 249.433594 126.144531 249.441406 126.144531 249.457031 126.144531 C 252.429688 126.144531 253.972656 127.671875 255.207031 128.902344 C 256.25 129.941406 256.945312 130.628906 258.457031 130.628906 C 258.464844 130.628906 258.472656 130.628906 258.480469 130.628906 C 259.457031 130.628906 260.253906 131.417969 260.253906 132.398438 C 260.253906 133.378906 259.464844 134.175781 258.484375 134.179688 C 258.480469 134.179688 258.472656 134.179688 258.457031 134.179688 C 255.484375 134.179688 253.941406 132.652344 252.707031 131.425781 C 251.65625 130.378906 250.988281 129.707031 249.441406 129.699219 C 247.917969 129.707031 247.226562 130.394531 246.191406 131.445312 C 244.957031 132.683594 243.421875 134.222656 240.433594 134.238281 C 237.46875 134.273438 235.898438 132.710938 234.664062 131.480469 C 233.621094 130.445312 232.921875 129.753906 231.410156 129.753906 C 231.40625 129.753906 231.40625 129.753906 231.398438 129.753906 C 229.878906 129.761719 229.191406 130.453125 228.148438 131.503906 C 226.910156 132.738281 225.378906 134.28125 222.390625 134.296875 C 222.382812 134.296875 222.375 134.296875 222.359375 134.296875 C 219.386719 134.296875 217.847656 132.765625 216.609375 131.539062 C 215.566406 130.5 214.871094 129.8125 213.359375 129.8125 C 213.351562 129.8125 213.351562 129.8125 213.347656 129.8125 C 211.828125 129.820312 211.132812 130.507812 210.09375 131.558594 C 208.859375 132.796875 207.328125 134.335938 204.335938 134.351562 C 204.332031 134.351562 204.324219 134.351562 204.308594 134.351562 C 201.335938 134.351562 199.792969 132.824219 198.558594 131.59375 C 197.515625 130.558594 196.820312 129.867188 195.308594 129.867188 C 195.300781 129.867188 195.300781 129.867188 195.292969 129.867188 C 193.769531 129.875 193.078125 130.566406 192.035156 131.617188 C 190.785156 132.851562 189.253906 134.394531 186.257812 134.410156 Z M 186.257812 134.410156"/></svg>