<svg xmlns="http://www.w3.org/2000/svg" width="375" viewBox="0 0 375 375" height="375" version="1.0"><defs><clipPath id="a"><path d="M 48.699219 117.746094 L 215 117.746094 L 215 242 L 48.699219 242 Z M 48.699219 117.746094"/></clipPath><clipPath id="b"><path d="M 161 151 L 325 151 L 325 323.996094 L 161 323.996094 Z M 161 151"/></clipPath><clipPath id="c"><path d="M 185 37.5 L 190 37.5 L 190 49 L 185 49 Z M 185 37.5"/></clipPath><clipPath id="d"><path d="M 213 67 L 224.15625 67 L 224.15625 72 L 213 72 Z M 213 67"/></clipPath><clipPath id="e"><path d="M 150.65625 67 L 161 67 L 161 72 L 150.65625 72 Z M 150.65625 67"/></clipPath></defs><path fill="#FFB905" d="M 300.574219 56.609375 L 300.796875 56.695312 L 300.746094 56.632812 L 300.523438 56.464844 C 300.59375 56.566406 300.519531 56.519531 300.574219 56.609375"/><path fill="#FFB905" d="M 193.378906 338.15625 C 193.589844 338.125 193.785156 338.101562 193.992188 338.066406 C 197.222656 337.742188 200.964844 337.363281 204.703125 336.988281 C 205.316406 336.863281 205.945312 336.757812 206.5625 336.644531 C 213.667969 336.53125 220.65625 335.960938 227.496094 334.914062 C 226.625 335.289062 225.753906 335.675781 224.859375 336.09375 C 223.792969 336.542969 222.765625 337.007812 221.710938 337.449219 C 212.3125 338.488281 202.828125 338.71875 193.378906 338.15625 Z M 86.542969 288.433594 C 81.160156 284.664062 77.136719 280.839844 71.679688 275.492188 C 69.808594 273.78125 67.984375 270.316406 67.019531 268.3125 C 66.113281 266.242188 66.082031 265.453125 66.953125 266.023438 C 68.085938 266.769531 69.664062 268.351562 71.996094 271.449219 C 74.910156 274.929688 78.132812 278.128906 81.105469 281.433594 C 85.632812 286.054688 89.679688 288.699219 91.777344 289.660156 C 92.140625 289.832031 92.578125 290.078125 93.050781 290.347656 L 93.398438 290.730469 C 95.15625 292.710938 97.257812 294.339844 99.167969 296.160156 L 102.242188 298.960938 C 100.773438 298.160156 98.894531 296.945312 96.890625 295.601562 C 92.507812 292.941406 89.027344 289.589844 86.542969 288.433594 Z M 63.003906 263.699219 C 61.902344 262.855469 60.402344 260.328125 59.457031 258.050781 C 59.15625 257.335938 59.179688 257.007812 59.054688 256.5 C 59.367188 256.828125 59.617188 257 60 257.523438 C 61.085938 258.910156 62.007812 260.886719 62.84375 262.398438 C 63.449219 263.53125 63.527344 264.164062 63.003906 263.699219 Z M 55.890625 260.179688 C 55.511719 259.496094 55.101562 258.5 54.789062 257.75 C 54.699219 257.535156 54.894531 257.671875 54.972656 257.648438 C 55.4375 258.152344 56.058594 259.082031 56.847656 260.742188 C 57.042969 261.144531 57.222656 261.636719 57.257812 261.828125 C 57.382812 262.460938 56.765625 261.773438 55.890625 260.179688 Z M 48.726562 249.355469 C 48.492188 248.917969 47.835938 247.1875 47.71875 246.695312 C 47.59375 246.171875 47.75 245.996094 48 246.394531 C 48.464844 247.144531 49.089844 248.421875 49.648438 249.480469 C 49.832031 250.390625 50.265625 251.640625 50.164062 251.5 C 49.730469 251.136719 49.277344 250.355469 48.726562 249.355469 Z M 181.117188 11.335938 C 184.9375 10.988281 189.113281 10.90625 193.257812 10.671875 C 193.894531 10.644531 195.226562 10.785156 196.085938 10.871094 C 196.425781 10.90625 196.371094 11 196.496094 11.070312 C 196.140625 11.191406 196.078125 11.351562 195.390625 11.433594 C 190.75 12.109375 185.445312 12.125 179.101562 12.929688 C 178.667969 12.984375 177.757812 13.042969 177.515625 13.023438 C 176.890625 12.96875 176.066406 12.910156 176.109375 12.792969 C 176.292969 12.335938 178.21875 11.808594 181.117188 11.335938 Z M 184.027344 9.597656 C 184.308594 9.617188 184.75 9.644531 185.125 9.667969 C 184.945312 9.710938 184.832031 9.78125 184.554688 9.789062 C 184.265625 9.769531 183.828125 9.738281 183.449219 9.714844 C 183.632812 9.671875 183.75 9.605469 184.027344 9.597656 Z M 249.636719 27.515625 C 249.886719 27.578125 250.53125 27.859375 250.996094 28.039062 C 251.160156 28.171875 251.527344 28.402344 251.425781 28.414062 C 251.324219 28.429688 250.796875 28.292969 250.449219 28.144531 C 249.042969 27.542969 248.710938 27.285156 249.636719 27.515625 Z M 260.550781 33.207031 C 261.25 33.492188 262.269531 34.042969 263.257812 34.628906 C 262.867188 34.484375 262.480469 34.328125 262.089844 34.183594 C 259.9375 33.359375 257.808594 32.546875 255.699219 31.738281 C 257.292969 32.199219 258.917969 32.609375 260.550781 33.207031 Z M 271.324219 37.050781 C 273.378906 37.984375 275.214844 39.125 276.679688 40.453125 C 277.046875 40.765625 277.382812 41.0625 277.707031 41.351562 C 276.855469 40.949219 276.003906 40.554688 275.175781 40.125 C 273.527344 39.324219 271.890625 38.527344 270.257812 37.730469 C 269.839844 37.429688 269.429688 37.132812 269.105469 36.84375 C 267.921875 35.863281 268.863281 35.859375 271.324219 37.050781 Z M 288.09375 45.792969 C 289.710938 46.984375 291.355469 48.199219 293.046875 49.449219 C 294.839844 50.808594 296.539062 52.292969 297.96875 53.710938 C 298.605469 54.390625 299.238281 55.003906 299.847656 55.640625 L 299.183594 55.144531 L 295.304688 52.210938 C 294.023438 51.214844 292.738281 50.222656 291.324219 49.410156 C 289.605469 48.355469 287.753906 47.21875 285.878906 46.070312 C 285.464844 45.605469 285.042969 45.144531 284.664062 44.691406 C 283.609375 43.425781 284.75 43.804688 288.09375 45.792969 Z M 298.515625 52.03125 C 298.921875 52.253906 299.972656 53.019531 300.648438 53.59375 C 302.074219 54.726562 302.582031 55.820312 301.816406 55.246094 C 301.421875 54.949219 300.429688 54.1875 299.699219 53.636719 C 298.363281 52.457031 297.667969 51.578125 298.515625 52.03125 Z M 312.105469 62.625 C 315.136719 65.214844 317.636719 68.503906 320.449219 71.445312 L 317.273438 69.515625 C 314.949219 67.039062 313.21875 65.347656 310.203125 62.53125 C 309.644531 61.980469 308.707031 60.832031 308.636719 60.625 C 308.351562 59.746094 309.875 60.613281 312.105469 62.625 Z M 320.738281 71.757812 C 321.375 71.4375 324.359375 73.390625 327.992188 78.285156 C 330.007812 80.90625 331.796875 83.59375 333.703125 86.574219 C 334.722656 88.105469 335.570312 89.242188 335.984375 89.644531 C 336.253906 89.867188 336.4375 89.917969 336.605469 89.9375 C 337.054688 89.984375 337.917969 90.921875 339.453125 93.523438 C 342.011719 98.023438 344.46875 101.273438 345.960938 103.6875 C 346.175781 104.007812 346.921875 105.699219 347.21875 106.515625 C 347.523438 107.351562 347.742188 108.265625 347.710938 108.496094 C 347.625 109.175781 347.308594 109.347656 347.230469 110.039062 C 347.089844 111.300781 346.546875 111.261719 344.007812 105.707031 C 343.234375 103.960938 342.359375 102.625 341.519531 101.636719 C 341.007812 100.980469 340.589844 100.546875 340.179688 100.128906 C 338.679688 97.625 337.1875 95.117188 335.574219 92.683594 L 328.527344 83.300781 L 326.742188 80.972656 L 324.753906 78.800781 L 324.148438 78.140625 C 323.984375 77.070312 322.890625 74.867188 320.714844 71.730469 Z M 352.101562 114.816406 C 352.5625 115.523438 353.21875 116.644531 353.65625 117.9375 C 353.828125 118.398438 354.078125 119.648438 354.292969 120.539062 C 354.167969 121.105469 353.71875 120.398438 352.894531 118.128906 C 352.640625 117.371094 352.144531 115.921875 351.957031 115.371094 C 351.800781 114.804688 351.871094 114.460938 352.101562 114.816406 Z M 281.308594 44.476562 L 280.328125 43.875 C 278.617188 42.929688 276.863281 42.0625 275.101562 41.203125 C 274.003906 40.285156 272.8125 39.46875 271.691406 38.71875 C 274.050781 39.835938 276.378906 41.003906 278.679688 42.230469 C 279.453125 42.9375 280.261719 43.65625 281.308594 44.476562 Z M 307.855469 62.0625 C 309.394531 63.253906 310.941406 64.660156 312.507812 66.25 C 310.957031 64.859375 309.402344 63.46875 307.855469 62.0625 Z M 320.855469 79.199219 C 321.71875 80.171875 322.648438 81.269531 323.613281 82.429688 C 323.050781 81.78125 322.246094 80.867188 321.617188 80.167969 C 321.136719 79.648438 320.648438 79.109375 320.160156 78.574219 C 320.394531 78.789062 320.613281 78.976562 320.855469 79.199219 Z M 263.03125 38.210938 C 262.300781 37.960938 261.71875 37.804688 261.597656 37.804688 C 261.417969 37.804688 262.082031 38.097656 263.160156 38.523438 C 263.265625 38.734375 263.398438 38.964844 263.554688 39.207031 C 262.007812 38.699219 260.5625 38.226562 259.179688 37.769531 C 258.679688 37.578125 258.167969 37.417969 257.664062 37.230469 C 257.832031 36.914062 257.335938 36.300781 256.121094 35.363281 C 257.25 35.777344 258.371094 36.1875 259.503906 36.601562 C 260.636719 37.046875 261.800781 37.433594 262.957031 37.84375 C 262.964844 37.957031 262.984375 38.078125 263.03125 38.210938 Z M 277.886719 46.136719 C 277.652344 46.027344 277.71875 46.179688 277.851562 46.378906 C 276.449219 45.617188 275.039062 44.859375 273.605469 44.140625 C 274.804688 44.671875 275.992188 45.203125 277.21875 45.75 C 277.773438 46.019531 278.308594 46.304688 278.835938 46.601562 C 278.519531 46.449219 278.203125 46.296875 277.886719 46.136719 Z M 267.5625 40.917969 C 267.703125 40.851562 267.886719 40.8125 268.128906 40.804688 C 268.585938 41.035156 269.042969 41.269531 269.507812 41.488281 C 271.359375 42.398438 273.605469 43.503906 274.058594 43.824219 C 274.65625 44.253906 272.078125 43.011719 270.382812 42.222656 C 269.40625 41.78125 268.480469 41.347656 267.5625 40.917969 Z M 271.921875 42.003906 C 272.613281 42.445312 271.074219 41.730469 269.558594 41.019531 C 269.976562 41.132812 270.488281 41.308594 271.042969 41.515625 C 271.441406 41.722656 271.753906 41.894531 271.921875 42.003906 Z M 213.292969 24.308594 C 213.410156 24.296875 213.523438 24.277344 213.65625 24.265625 C 215.449219 24.160156 217.746094 24.402344 220.933594 24.964844 C 218.398438 24.683594 215.851562 24.464844 213.292969 24.308594 Z M 148.363281 37.476562 L 144.382812 38.539062 C 144 38.632812 143.570312 38.675781 143.417969 38.660156 C 143.277344 38.640625 143.351562 38.5 143.542969 38.433594 C 144.367188 38.160156 145.6875 37.707031 146.074219 37.644531 C 147.023438 37.507812 147.644531 37.511719 148.363281 37.476562 Z M 114.703125 55.714844 C 114.710938 55.707031 114.710938 55.703125 114.714844 55.699219 C 116.042969 54.703125 117.378906 53.734375 118.789062 52.867188 C 117.785156 53.441406 116.820312 54.089844 115.859375 54.757812 C 117.875 53.144531 120.121094 51.597656 123.683594 49.4375 C 125.554688 48.339844 127.097656 47.101562 128.363281 46.40625 C 130.59375 44.988281 133.460938 43.585938 137.695312 41.917969 C 143.066406 39.902344 146.691406 38.839844 148.695312 37.40625 C 150.351562 36.742188 151.992188 36.085938 153.609375 35.4375 C 155.273438 34.957031 156.921875 34.484375 158.542969 34.015625 C 161.796875 33.019531 164.953125 32.054688 168 31.117188 C 170.125 30.738281 172.175781 30.277344 174.199219 29.808594 C 174.289062 29.800781 174.375 29.789062 174.464844 29.777344 C 175.992188 29.554688 177.492188 29.320312 178.199219 29.136719 C 178.054688 29.097656 177.238281 29.195312 176.25 29.335938 C 178.414062 28.828125 180.515625 28.355469 182.566406 27.941406 C 183.199219 27.863281 183.859375 27.78125 184.578125 27.683594 C 186.457031 27.417969 188.597656 27.066406 190.816406 27.03125 C 193.308594 26.894531 195.804688 26.757812 198.304688 26.621094 C 199.351562 26.621094 199.960938 26.605469 200.226562 26.515625 C 200.808594 26.484375 201.394531 26.453125 201.976562 26.417969 C 203.832031 26.242188 205.6875 26.359375 207.535156 26.449219 C 209.382812 26.527344 211.226562 26.609375 213.058594 26.6875 L 219.070312 26.953125 C 221.078125 27.039062 223.046875 27.480469 225.03125 27.738281 C 228.976562 28.386719 232.957031 28.828125 236.792969 29.691406 C 240.867188 30.824219 244.960938 31.78125 248.992188 32.945312 C 249.238281 33.183594 249.730469 33.539062 250.542969 34.039062 C 251.558594 34.671875 250.746094 34.585938 249.496094 34.195312 C 242.550781 31.679688 235.167969 30.71875 227.902344 29.1875 C 222.898438 28.648438 217.699219 28.011719 214.125 27.929688 C 213.921875 27.945312 213.699219 27.957031 213.492188 27.972656 C 210.398438 27.785156 207.296875 27.660156 204.160156 27.660156 C 169.9375 27.660156 138.328125 38.792969 112.714844 57.605469 C 113.375 56.976562 114.042969 56.347656 114.703125 55.714844 Z M 49.796875 164.683594 C 49.742188 165.164062 49.667969 165.648438 49.613281 166.132812 C 49.617188 166.105469 49.617188 166.082031 49.621094 166.050781 C 49.648438 165.710938 49.714844 165.175781 49.796875 164.683594 Z M 50.214844 168.222656 C 50.113281 168.46875 50.011719 168.667969 49.910156 168.917969 C 49.707031 168.972656 49.597656 168.574219 49.574219 167.804688 C 49.714844 166.332031 49.886719 164.863281 50.097656 163.398438 C 50.398438 162.632812 50.628906 162.683594 50.730469 163.46875 C 50.535156 165.046875 50.363281 166.628906 50.214844 168.222656 Z M 326.621094 81.523438 C 329.148438 84.773438 331.746094 88.21875 334.304688 91.710938 L 335.714844 93.664062 L 336.953125 95.726562 L 338.601562 98.460938 C 336.570312 96.171875 334.40625 93.078125 331.164062 88.765625 C 329.441406 86.625 327.976562 85.046875 326.316406 83.035156 C 326.160156 82.820312 326.011719 82.613281 325.855469 82.402344 C 325.65625 82.164062 325.445312 81.9375 325.242188 81.699219 C 324.535156 80.800781 323.78125 79.796875 322.949219 78.625 C 323.003906 78.613281 323.042969 78.578125 323.140625 78.632812 C 323.621094 78.917969 323.941406 78.953125 324.089844 78.773438 C 324.933594 79.6875 325.792969 80.621094 326.621094 81.523438 Z M 300.746094 56.632812 L 305.414062 60.210938 C 308.933594 63.15625 312.3125 66.257812 315.542969 69.507812 C 317.28125 71.484375 319.054688 73.652344 320.882812 76.011719 C 321.484375 76.785156 322.132812 77.519531 322.6875 78.324219 C 322.492188 78.269531 322.246094 78.144531 321.976562 77.980469 C 321.730469 77.703125 321.476562 77.421875 321.238281 77.144531 C 315.421875 70.105469 308.460938 63.71875 300.925781 57.804688 C 301.144531 57.746094 301.089844 57.414062 300.574219 56.609375 C 299.8125 56.222656 299.171875 56.03125 299.226562 56.464844 C 296.421875 54.316406 293.542969 52.226562 290.617188 50.203125 L 287.785156 48.457031 C 287.746094 48.386719 287.726562 48.332031 287.660156 48.242188 C 287.253906 47.660156 286.78125 47.109375 286.304688 46.566406 C 291.121094 49.492188 295.78125 52.660156 300.242188 56.078125 C 300.40625 56.261719 300.585938 56.429688 300.746094 56.632812 Z M 265.035156 35.765625 C 265.675781 36.203125 266.160156 36.582031 266.265625 36.769531 C 266.308594 36.84375 266.363281 36.925781 266.417969 37.007812 C 263.765625 35.851562 261.015625 34.910156 258.296875 33.886719 C 254.496094 32.480469 250.71875 30.972656 246.730469 30.105469 C 244.660156 29.492188 242.5625 28.933594 240.449219 28.410156 C 240.59375 28.195312 241.144531 28.113281 242.042969 28.191406 C 249.894531 30.113281 257.582031 32.660156 265.035156 35.765625 Z M 81.363281 279.910156 C 81.207031 279.792969 81.089844 279.773438 80.890625 279.546875 C 80.738281 279.328125 80.453125 278.929688 80.230469 278.609375 C 80.382812 278.71875 80.503906 278.746094 80.703125 278.96875 C 80.855469 279.1875 81.136719 279.589844 81.363281 279.910156 Z M 103.453125 299.554688 L 101.742188 297.984375 C 99.320312 295.769531 96.902344 293.5625 94.492188 291.355469 C 94.390625 291.253906 94.292969 291.140625 94.1875 291.035156 C 94.441406 291.191406 94.671875 291.332031 94.949219 291.503906 C 97.789062 294.34375 100.730469 297.082031 103.785156 299.691406 C 103.683594 299.652344 103.566406 299.601562 103.453125 299.554688 Z M 356.121094 138.476562 C 356.929688 141.855469 357.867188 145.734375 357.796875 146.214844 C 357.703125 146.859375 356.332031 141.5625 355.367188 138.15625 C 355.003906 136.886719 354.976562 136.914062 355.136719 137.566406 C 356.054688 141.128906 356.953125 144.585938 357.832031 147.984375 L 358.476562 150.515625 L 358.871094 153.078125 C 359.132812 154.78125 359.394531 156.464844 359.652344 158.144531 C 360.15625 159.523438 360.40625 160.21875 360.765625 161.984375 C 360.921875 162.871094 361.128906 164.015625 361.421875 165.652344 C 361.488281 166.257812 361.542969 166.960938 361.59375 167.71875 C 361.214844 167.332031 360.832031 167.078125 360.433594 167.066406 C 359.835938 167.039062 359.265625 168.136719 358.71875 171.246094 C 358.632812 171.738281 358.550781 172.242188 358.464844 172.742188 C 356.121094 133.949219 339.421875 99.058594 313.648438 73.203125 C 315.09375 74.265625 316.636719 75.480469 318.351562 76.960938 C 319.46875 78.167969 320.628906 79.429688 321.859375 80.789062 C 323.121094 82.148438 324.773438 83.992188 324.261719 83.21875 C 326.21875 85.609375 328.359375 88.367188 330.777344 91.722656 C 332.730469 95.023438 334.414062 97.308594 335.050781 97.386719 C 335.171875 97.398438 335.320312 97.46875 335.476562 97.574219 C 335.789062 98.039062 336.082031 98.464844 336.335938 98.796875 C 337.148438 99.886719 338.144531 101.382812 339.316406 103.230469 C 340.449219 105.09375 341.964844 107.195312 343.128906 109.871094 C 344.414062 112.488281 345.6875 115.097656 346.960938 117.699219 C 347.578125 119.007812 348.277344 120.285156 348.832031 121.617188 L 350.359375 125.675781 C 350.964844 127.296875 351.292969 128.011719 351.320312 127.867188 C 351.347656 127.726562 351.007812 126.664062 350.492188 125.179688 C 350.335938 124.722656 350.144531 124.191406 349.984375 123.742188 L 349.066406 121.28125 C 348.730469 120.476562 348.316406 119.707031 347.945312 118.921875 C 347.1875 117.355469 346.433594 115.796875 345.679688 114.242188 C 344.929688 112.6875 344.183594 111.136719 343.441406 109.59375 L 342.324219 107.28125 L 341.003906 105.085938 C 340.253906 103.832031 339.511719 102.589844 338.765625 101.34375 C 339.082031 101.773438 339.40625 102.21875 339.746094 102.695312 C 341.234375 104.53125 341.972656 106.203125 343.257812 108.191406 C 344.1875 109.925781 345.339844 112.070312 346.410156 114.066406 C 348.59375 117.632812 350.199219 124.453125 351.566406 126.679688 C 351.734375 126.960938 351.890625 127.203125 352.039062 127.421875 L 352.316406 128.113281 C 352.257812 127.929688 352.210938 127.757812 352.160156 127.582031 C 352.480469 128.027344 352.773438 128.359375 353.054688 128.636719 C 353.105469 128.78125 353.15625 128.925781 353.207031 129.074219 C 354.269531 132.195312 355.488281 135.265625 356.121094 138.476562 Z M 112.429688 350.660156 C 111.820312 350.660156 109.230469 349.429688 107.101562 348.121094 C 104.832031 346.722656 103.523438 345.664062 104.003906 345.628906 C 104.476562 345.589844 107.097656 346.855469 109.4375 348.25 C 111.75 349.621094 113.042969 350.65625 112.429688 350.660156 Z M 36.617188 116.59375 C 36.328125 117.390625 35.734375 118.761719 35.34375 119.523438 C 34.949219 120.289062 34.476562 120.984375 34.308594 121.085938 C 33.871094 121.34375 34.148438 120.117188 34.824219 118.210938 C 35.105469 117.414062 35.6875 116.019531 36.0625 115.289062 C 36.441406 114.554688 36.726562 114.3125 37.050781 113.863281 C 37.335938 113.933594 37.351562 114.558594 36.617188 116.59375 Z M 35.691406 219.320312 C 35.433594 219.460938 34.84375 217.8125 34.410156 215.71875 C 33.996094 213.691406 33.632812 210.847656 33.738281 210.121094 C 33.855469 209.324219 34.042969 208.855469 34.152344 208.445312 C 34.472656 208.894531 34.644531 209.09375 34.839844 209.425781 C 35.195312 210.03125 35.875 213.28125 36.007812 214.953125 C 36.230469 217.777344 36.09375 219.097656 35.691406 219.320312 Z M 31.28125 139.820312 C 31.121094 140.949219 30.898438 142.492188 30.722656 143.746094 C 30.53125 144.390625 30.359375 144.984375 30.289062 145.21875 C 30.1875 145.453125 30.074219 145.550781 30.074219 145.335938 C 30.164062 142.8125 29.855469 140.414062 31.113281 136.003906 C 31.320312 135.175781 31.789062 133.714844 32.09375 132.960938 C 32.347656 132.335938 32.777344 131.78125 32.71875 132.125 C 32.265625 134.550781 31.785156 137.132812 31.28125 139.820312 Z M 31.445312 201.914062 C 31.398438 202.40625 31.183594 202.484375 31.082031 201.96875 C 30.105469 196.3125 28.566406 190.320312 28.195312 185.238281 C 28.117188 184.605469 28.117188 183.257812 28.089844 182.207031 C 28.042969 180.308594 28.34375 177.121094 28.582031 176.957031 C 28.710938 177.144531 28.886719 176.96875 28.957031 177.585938 C 29.609375 183.761719 29.976562 190.929688 31.371094 199.09375 C 31.464844 199.765625 31.496094 201.398438 31.445312 201.914062 Z M 369.71875 202.640625 L 368.460938 192.988281 C 367.992188 189.765625 367.777344 185.964844 367.050781 183.515625 C 366.492188 181.804688 365.964844 179.917969 365.441406 177.785156 C 364.28125 173.035156 363.058594 169.332031 361.707031 167.820312 C 361.347656 162.820312 360.484375 158.1875 359.9375 153.652344 C 359.617188 151.292969 359.671875 150.964844 360.035156 152.824219 C 360.378906 154.695312 360.8125 157.035156 361.261719 159.484375 C 361 157.535156 360.738281 155.574219 360.480469 153.660156 C 360.222656 151.746094 360.019531 149.867188 359.550781 148.148438 C 358.320312 142.957031 357.261719 138.332031 355.820312 134.207031 C 355.238281 132.828125 354.597656 131.207031 353.921875 129.457031 C 354.105469 129.632812 354.289062 129.820312 354.488281 130.050781 C 355.339844 131.09375 356.316406 132.15625 357.175781 133.574219 C 357.585938 134.28125 358.117188 135.820312 358.675781 138.226562 L 360.1875 144.984375 C 361.570312 150.53125 361.882812 154.636719 362.847656 157.695312 C 363.320312 159.632812 363.925781 162.109375 364.449219 164.253906 C 364.914062 166.113281 365.296875 166.644531 365.667969 166.695312 C 366.484375 166.824219 366.742188 163.695312 366.425781 157.257812 L 366.476562 157.507812 C 366.039062 154.9375 365.628906 152.1875 365.394531 149.015625 C 363.785156 140.398438 362.460938 132.304688 359.457031 124.832031 C 358.054688 121.089844 356.96875 117.265625 355.308594 113.667969 C 353.625 110.082031 351.941406 106.496094 350.242188 102.867188 C 347.445312 96.898438 343.730469 91.480469 340.554688 85.957031 C 336.8125 80.78125 333.121094 75.710938 329.25 71.054688 C 323.847656 65.226562 318.375 58.773438 311.609375 52.515625 C 306.492188 47.03125 300.792969 43.25 296.753906 40.648438 C 295.886719 40.058594 294.421875 39.070312 293.242188 38.265625 C 291.339844 37.195312 289.382812 35.742188 287.285156 33.859375 C 285.710938 32.445312 283.441406 30.855469 282.769531 30.734375 C 280.691406 30.167969 275.421875 27.882812 269.878906 25.335938 L 268.554688 24.746094 C 266.230469 23.671875 263.78125 22.371094 260.882812 21.15625 C 259.5 20.523438 257.324219 19.660156 256.421875 19.410156 C 249.777344 17.21875 240.691406 15.328125 233.636719 13.992188 C 230.417969 13.597656 226.761719 13.148438 222.9375 12.679688 C 219.128906 12.15625 215.171875 11.550781 211.234375 11.570312 C 209.335938 11.503906 206.042969 10.921875 205.996094 10.632812 C 205.734375 9.351562 208.472656 7.835938 220.300781 9.277344 L 225.007812 9.988281 C 230.402344 10.765625 234.257812 11.0625 236.722656 11.289062 C 238.871094 11.371094 240.589844 11.28125 244.832031 12.183594 C 250.691406 13.164062 255.847656 15.132812 261.671875 16.867188 C 266.871094 18.40625 269.695312 19.402344 272.515625 20.125 C 273.589844 20.410156 273.023438 19.773438 271.585938 18.71875 C 269.503906 17.121094 266.773438 15.371094 263.074219 13.964844 C 252.972656 9.488281 242.207031 5.984375 231.851562 3.808594 C 219.417969 1.40625 206.539062 -0.00390625 193.738281 0.300781 C 182.671875 0.257812 171.421875 1.738281 161.992188 3.675781 C 159.136719 4.402344 155.734375 5.269531 152.496094 6.09375 C 147.59375 7.132812 142.796875 8.722656 138.046875 10.519531 C 135.207031 11.527344 133.875 11.664062 132.21875 11.925781 C 130.964844 12.121094 128.480469 12.894531 127.734375 13.460938 C 127.164062 13.820312 126.066406 14.386719 126.023438 14.535156 C 125.683594 15.707031 120.96875 18.164062 114.859375 21.164062 C 109.824219 24.027344 105.703125 26.949219 101.4375 29.734375 C 98.4375 31.65625 95.726562 33.941406 91.699219 36.242188 C 88.25 38.351562 85.652344 40.1875 83.96875 42.101562 C 82.859375 43.246094 82.285156 44.058594 81.738281 44.828125 C 80.992188 45.867188 79.832031 47.207031 77.40625 49.230469 C 70.808594 54.652344 67.402344 59.542969 65.25 62.644531 C 64.550781 63.710938 62.878906 65.667969 61.722656 67.535156 C 58.132812 73.054688 54.25 78.070312 51.070312 84.28125 C 49.464844 87.070312 47.78125 89.996094 46.066406 92.984375 C 44.609375 96.09375 43.128906 99.261719 41.664062 102.394531 C 41.480469 102.792969 40.421875 104.421875 40.121094 104.757812 C 39.09375 105.90625 39.039062 105.261719 39.355469 104.039062 C 40.121094 101.089844 41.605469 97.054688 43.425781 92.535156 C 44.300781 90.542969 45.90625 88.28125 47.765625 85.625 C 52.671875 78.773438 52.613281 78.71875 52.480469 77.207031 C 52.464844 77.011719 52.429688 76.816406 52.757812 76.261719 C 53.070312 75.730469 53.804688 74.699219 54.425781 73.960938 L 57.945312 70.015625 C 60.222656 67.425781 61.871094 65.019531 61.148438 65.34375 C 60.570312 65.597656 59.804688 66.089844 59.101562 66.507812 C 58.160156 67.058594 57.855469 66.859375 59.105469 64.957031 C 62.15625 60.417969 65.960938 56.25 69.523438 51.714844 C 69.929688 51.265625 71.195312 49.941406 72.046875 49.355469 C 72.941406 48.765625 73.527344 48.375 74.382812 47.808594 C 75.171875 47.261719 76.308594 46.464844 76.90625 45.9375 C 77.550781 45.367188 78.0625 44.738281 78.085938 44.566406 C 78.148438 43.972656 77.933594 43.601562 77.910156 43.078125 C 77.878906 42.511719 79.265625 40.910156 82.222656 38.394531 C 86.179688 35.246094 89.515625 33.011719 91.683594 30.886719 C 92.859375 29.808594 95.277344 27.929688 97.421875 26.414062 C 100.605469 24.464844 104.066406 22.347656 107.226562 20.410156 C 113.632812 16.464844 114.226562 15.539062 108.832031 17.386719 C 107.28125 17.988281 105.566406 18.652344 103.867188 19.308594 C 100.738281 20.65625 96.785156 22.222656 92.902344 24.824219 C 90.785156 26.253906 88.597656 27.730469 86.589844 29.089844 C 79.355469 33.792969 72.972656 39.871094 66.460938 45.480469 C 60.535156 51.714844 54.449219 57.625 49.917969 64.21875 C 47.726562 67.355469 44.515625 70.695312 42.367188 74.351562 C 39.332031 79.253906 35.925781 83.96875 33.363281 88.984375 C 30.859375 94.03125 28.3125 98.875 26.359375 103.589844 C 24.109375 110.246094 21.066406 116.816406 19.476562 123.871094 C 17.824219 130.320312 15.90625 136.703125 15.1875 143.167969 C 14.15625 149.5625 13.277344 155.78125 13.34375 161.710938 C 13.167969 167.535156 12.921875 173.464844 13.546875 179.480469 C 13.945312 185.492188 14.195312 191.585938 15.410156 197.644531 C 16.183594 201.914062 16.613281 206.371094 17.675781 210.8125 C 18.78125 215.242188 19.910156 219.765625 21.050781 224.332031 C 21.820312 227.660156 23.011719 230.285156 23.929688 232.390625 C 25.136719 234.910156 26.535156 238.238281 27.929688 241.675781 C 31.785156 249.21875 35.300781 257.171875 40.277344 264.257812 C 41.304688 265.847656 42.425781 267.621094 43.542969 269.589844 C 46.972656 275.578125 50.199219 278.761719 52.710938 281.632812 C 54.46875 283.605469 56.957031 286.585938 59.207031 288.515625 C 61.679688 290.773438 64.953125 295.113281 67.808594 298.074219 C 69.371094 299.460938 70.945312 300.859375 72.328125 302.085938 C 78.804688 308.011719 86.113281 312.925781 92.066406 316.574219 C 96.085938 318.988281 101.136719 321.421875 105.851562 324.046875 C 107.148438 324.8125 109.171875 326.027344 111.027344 326.863281 C 115.09375 327.886719 120.339844 330.230469 125.996094 331.914062 C 130.441406 333.183594 134.996094 334.476562 139.570312 335.78125 C 144.207031 336.625 148.863281 337.472656 153.421875 338.304688 C 160.734375 339.191406 168.566406 339.886719 173.210938 339.371094 C 173.890625 339.265625 174.734375 339.164062 175.9375 339.179688 C 182.273438 339.199219 186.734375 339.085938 191.941406 338.371094 C 191.980469 338.371094 192.015625 338.375 192.050781 338.375 C 196.449219 338.558594 200.851562 338.949219 205.25 338.960938 C 209.644531 338.757812 214.039062 338.554688 218.429688 338.355469 C 218.835938 338.308594 219.234375 338.257812 219.636719 338.210938 C 216.082031 339.269531 211.828125 340.328125 205.835938 341.335938 C 201.210938 341.859375 197.523438 342.28125 194.023438 342.675781 C 191.988281 342.925781 189.878906 343.183594 187.6875 343.449219 C 185.480469 343.453125 183.191406 343.453125 180.800781 343.453125 C 176.003906 343.386719 170.726562 343.4375 165.03125 342.335938 C 161.679688 341.824219 158.472656 341.433594 156.003906 341.257812 C 152.445312 340.90625 150.046875 340.601562 144.539062 339.15625 C 143.285156 338.8125 142.277344 338.742188 141.867188 338.808594 C 140.5 339.058594 137.710938 338.695312 134.125 337.492188 C 131.796875 336.785156 129.28125 336.011719 127.851562 335.785156 C 123.652344 335.347656 117.140625 332.472656 110.664062 329.617188 C 105.078125 327.425781 99.914062 323.871094 94.425781 320.964844 C 89.097656 317.816406 84.257812 314.082031 79.46875 311.007812 C 78.40625 310.324219 77.191406 309.15625 76.101562 308.242188 C 71.121094 303.859375 65.757812 299.773438 61.3125 294.765625 C 59.332031 292.703125 57.441406 290.867188 55.289062 288.417969 C 50.613281 282.519531 47.023438 277.992188 43.335938 273.339844 C 38.898438 266.457031 33.851562 259.730469 30.300781 252.277344 C 29.449219 250.679688 28.625 249.222656 27.898438 248.035156 C 25.378906 244.296875 23.421875 239.40625 21.234375 234.160156 C 18.863281 228.960938 17.125 223.160156 15.542969 217.355469 C 13.417969 210.921875 12.308594 203.742188 11.128906 197.527344 C 10.25 193.515625 9.613281 189.308594 9.394531 184.960938 C 9.058594 180.625 8.65625 176.183594 8.445312 171.707031 C 8.734375 162.773438 8.546875 153.636719 9.898438 145.128906 C 10.027344 144.183594 10.183594 143.042969 10.324219 142.023438 C 11.097656 133.765625 13.578125 126.035156 15.414062 117.679688 C 17.027344 112.820312 17.90625 109.671875 17.980469 107.894531 C 18.085938 105.789062 18.195312 103.679688 18.109375 102 C 18.070312 101.203125 17.109375 102.492188 15.742188 105.074219 C 14.75 106.945312 13.546875 109.328125 12.554688 111.59375 C 7.667969 123.425781 4.078125 135.78125 2.347656 147.828125 C 1.003906 153.839844 1 160.449219 0.347656 166.859375 C -0.257812 172.011719 0.078125 177.09375 0.15625 182.109375 C 0.304688 187.125 0.304688 192.085938 1.125 196.941406 C 2.578125 210.269531 5.320312 223.863281 9.714844 236.789062 C 10.703125 239.726562 11.730469 242.773438 12.753906 245.8125 C 13.136719 247.003906 13.511719 248.363281 14.0625 249.570312 C 15.054688 251.957031 15.660156 254 15.492188 254.476562 C 15.144531 255.449219 15.53125 256.585938 17.757812 261.113281 C 18.511719 262.609375 19.191406 263.949219 19.949219 265.445312 C 20.789062 267.035156 21.84375 269.046875 22.074219 269.996094 C 22.308594 270.855469 22.289062 271.292969 22.652344 272.355469 C 22.84375 272.921875 23.597656 274.511719 24.117188 275.457031 C 24.652344 276.445312 25.382812 277.578125 25.726562 278 C 26.3125 278.707031 26.75 279.078125 27.082031 279.273438 C 28.984375 280.539062 32.644531 284.492188 38.992188 292.796875 C 41.289062 295.996094 43.566406 298.222656 46.132812 300.910156 C 47.535156 302.460938 49.191406 304.285156 50.785156 306.046875 C 52.363281 307.871094 54.996094 311.285156 56.316406 312.917969 C 56.664062 313.398438 56.425781 313.507812 55.960938 313.09375 C 54.308594 311.699219 52.601562 309.933594 51.015625 308.027344 C 48.808594 305.496094 47.101562 303.714844 45.992188 302.878906 C 45.363281 302.402344 44.84375 302.085938 44.347656 301.789062 C 43.335938 301.097656 41.257812 299.410156 38.777344 295.808594 C 37.648438 294.253906 36.554688 292.742188 35.53125 291.332031 C 33.789062 288.984375 33.640625 289.75 35.226562 292.5 C 36.507812 294.691406 37.917969 297.015625 39.492188 298.972656 C 41.085938 300.6875 42.46875 302.179688 43.945312 303.769531 L 51.15625 311.410156 C 53.632812 313.882812 56.371094 316.117188 59.007812 318.492188 C 59.445312 318.882812 60.617188 320.238281 61.332031 321.0625 C 61.613281 321.386719 61.792969 321.726562 61.648438 321.648438 C 61.085938 321.351562 60.628906 321.207031 59.667969 320.429688 C 55.550781 317 50.929688 313.5625 47.214844 309.632812 C 45.628906 308.085938 44.246094 306.847656 42.992188 305.769531 C 42.574219 305.414062 42.503906 305.667969 42.886719 306.28125 C 43.546875 307.328125 44.648438 308.984375 45.640625 310.199219 C 50.257812 316.308594 56.042969 321.113281 60.9375 325.863281 C 73.628906 336.585938 87.957031 347.125 103.417969 354.480469 C 126.703125 366.152344 151.527344 372.582031 175.617188 374.097656 C 187.375 375.015625 197.988281 374.222656 209.414062 373.210938 C 224.878906 371.273438 238.785156 368.035156 251.996094 362.980469 C 256.019531 361.421875 259.90625 359.933594 263.683594 358.328125 C 267.339844 356.453125 270.957031 354.597656 274.617188 352.71875 C 278.3125 350.9375 281.898438 348.875 285.46875 346.496094 C 289.070312 344.1875 292.875 341.957031 296.71875 339.382812 C 297.582031 338.703125 298.296875 338.144531 299.058594 337.542969 C 313.097656 327.226562 325.03125 314.503906 335.632812 301.238281 C 343.714844 290.125 350.875 278.867188 356.523438 266.269531 C 361.53125 255.914062 364.183594 246.378906 366.832031 236.828125 C 368.167969 230.261719 368.988281 224.917969 369.492188 220.167969 C 369.605469 215.96875 369.71875 211.511719 369.828125 207.300781 C 369.859375 205.53125 369.773438 204.128906 369.71875 202.640625"/><path fill="#FFB905" d="M 111.148438 326.957031 L 111.261719 326.976562 L 111.246094 326.972656 L 111.027344 326.863281 L 110.949219 326.835938 L 111.148438 326.957031"/><path fill="#FFB905" d="M 109.636719 326.980469 C 110.320312 327.464844 111.246094 328.132812 112.015625 328.554688 C 114.3125 329.816406 116.316406 330.585938 115.878906 330.09375 C 115.414062 329.566406 113.902344 328.636719 112.425781 327.738281 L 111.148438 326.957031 C 110.59375 326.863281 110.023438 326.765625 109.527344 326.679688 C 109.371094 326.664062 109.359375 326.78125 109.636719 326.980469"/><path fill="#FFB905" d="M 16.441406 263.992188 C 16.355469 263.914062 16.492188 264.410156 16.527344 264.652344 C 16.777344 265.195312 17.125 265.957031 17.253906 266.242188 C 17.835938 267.238281 17.742188 266.746094 17.035156 265.058594 C 16.859375 264.640625 16.535156 264.074219 16.441406 263.992188"/><path fill="#FFB905" d="M 69.375 54.933594 L 69.980469 54.179688 L 68.964844 55.121094 Z M 69.375 54.933594"/><path fill="#FFB905" d="M 332.835938 88.847656 L 332.167969 87.796875 L 332.222656 88.132812 Z M 332.835938 88.847656"/><path fill="#FFB905" d="M 202.898438 26.871094 C 203.039062 26.867188 203.179688 26.863281 203.320312 26.859375 C 203.300781 26.859375 203.277344 26.855469 203.257812 26.855469 C 203.136719 26.863281 203.019531 26.867188 202.898438 26.871094"/><path fill="#FFB905" d="M 247.859375 33.3125 C 243.265625 32.136719 238.707031 30.699219 234.03125 29.761719 C 229.3125 29.023438 224.578125 28.277344 219.824219 27.535156 C 215.019531 27.289062 210.199219 27.039062 205.359375 26.789062 C 204.683594 26.789062 204 26.84375 203.320312 26.859375 C 207.433594 26.902344 211.515625 27.265625 215.515625 27.480469 C 226.285156 28.3125 237.214844 30.363281 247.859375 33.3125"/><path fill="#FFB905" d="M 202.898438 26.871094 C 198.871094 26.984375 194.835938 27.265625 190.78125 27.453125 C 194.828125 27.257812 198.878906 27.066406 202.898438 26.871094"/><path fill="#BF5414" d="M 125.164062 247.476562 L 138.1875 247.476562 C 139.15625 247.476562 140.035156 248.113281 140.425781 249.101562 L 150.804688 273.480469 C 151.519531 275.277344 150.335938 277.292969 148.566406 277.292969 L 114.78125 277.292969 C 113.015625 277.292969 111.832031 275.277344 112.542969 273.480469 L 122.925781 249.101562 C 123.316406 248.113281 124.191406 247.476562 125.164062 247.476562"/><path fill="#BF5414" d="M 146.945312 178.605469 C 147.574219 177.691406 148.203125 176.707031 148.835938 175.664062 C 149.417969 174.628906 149.945312 173.578125 150.429688 172.511719 C 150.546875 172.609375 150.691406 172.667969 150.847656 172.683594 L 150.847656 174.523438 C 150.847656 176.722656 149.117188 178.511719 146.945312 178.605469 Z M 134.90625 185.976562 C 133.652344 186.402344 132.308594 186.554688 130.992188 186.390625 C 126.585938 185.828125 122.542969 183.429688 119.480469 179.707031 C 115.667969 175.070312 113.386719 168.382812 113.886719 160.675781 C 113.902344 160.425781 114.101562 160.21875 114.363281 160.175781 C 119.210938 159.417969 122.621094 156.34375 124.5625 151.132812 C 124.710938 150.726562 125.273438 150.648438 125.53125 151.003906 C 130.542969 157.894531 135.945312 160.816406 148.820312 160.261719 C 149.121094 160.253906 149.375 160.460938 149.410156 160.746094 C 149.910156 165.328125 148.835938 171.027344 146.179688 175.925781 C 145.675781 176.855469 145.113281 177.753906 144.496094 178.613281 L 136.542969 178.613281 L 136.542969 176.730469 C 136.542969 175.546875 135.585938 174.589844 134.410156 174.589844 L 131.648438 174.589844 C 130.472656 174.589844 129.515625 175.546875 129.515625 176.730469 L 129.515625 179.871094 C 129.515625 180.566406 130.078125 181.128906 130.769531 181.128906 L 142.414062 181.128906 C 140.355469 183.265625 137.859375 184.976562 134.90625 185.976562 Z M 154.046875 155.246094 C 153.300781 143.667969 143.929688 134.0625 131.964844 133.519531 C 131.878906 133.511719 131.792969 133.375 131.710938 133.375 L 131.660156 133.375 C 125.628906 133.375 120.621094 135.222656 116.546875 138.488281 C 111.425781 142.597656 108.527344 148.789062 108.226562 155.257812 C 106.335938 156.285156 105.054688 158.289062 105.054688 160.59375 L 105.054688 166.617188 C 105.054688 169.972656 107.769531 172.691406 111.121094 172.691406 L 111.371094 172.691406 C 111.640625 172.691406 111.878906 172.554688 112.023438 172.34375 C 112.800781 174 113.695312 175.589844 114.726562 177.109375 C 114.761719 177.136719 114.796875 177.1875 114.832031 177.222656 C 115.183594 177.753906 115.628906 178.394531 116.171875 179.09375 C 116.277344 179.234375 116.390625 179.382812 116.511719 179.523438 C 116.527344 179.546875 116.546875 179.578125 116.5625 179.597656 C 116.664062 179.71875 116.769531 179.84375 116.867188 179.960938 C 116.898438 180 116.925781 180.027344 116.953125 180.0625 C 118.910156 182.394531 121.773438 185.121094 125.382812 186.804688 C 130.519531 189.199219 135.503906 188.921875 141.105469 184.960938 C 142.460938 184.007812 143.773438 182.714844 145.0625 181.128906 L 146.519531 181.128906 C 150.25 181.128906 153.273438 178.097656 153.273438 174.359375 L 153.273438 172.3125 C 155.589844 171.457031 157.242188 169.234375 157.242188 166.617188 L 157.242188 160.59375 C 157.242188 158.28125 155.949219 156.269531 154.046875 155.246094"/><path fill="#BF5414" d="M 137.824219 210.433594 C 138.050781 210.820312 138.089844 211.269531 137.933594 211.679688 L 137.152344 213.742188 C 137.117188 213.828125 137.078125 213.898438 137.023438 213.960938 C 135.640625 217.785156 134.339844 221.414062 133.371094 224.101562 C 133.332031 224.207031 133.316406 224.308594 133.320312 224.410156 L 129.605469 224.410156 C 129.609375 224.308594 129.597656 224.207031 129.558594 224.101562 C 128.589844 221.414062 127.285156 217.785156 125.90625 213.960938 C 125.855469 213.898438 125.8125 213.828125 125.78125 213.742188 L 124.832031 211.234375 C 124.683594 210.835938 124.714844 210.402344 124.921875 210.023438 L 128.195312 204.070312 C 128.394531 203.738281 128.320312 203.324219 128.027344 203.070312 C 121.25 197.226562 124.144531 192.402344 131.074219 191.886719 C 131.097656 191.886719 131.121094 191.878906 131.144531 191.878906 C 131.175781 191.878906 131.199219 191.886719 131.21875 191.886719 C 138.15625 192.402344 141.046875 197.226562 134.269531 203.070312 C 133.976562 203.324219 133.902344 203.738281 134.101562 204.070312 L 137.824219 210.433594"/><path fill="#BF5414" d="M 125.507812 224.410156 L 95.34375 224.410156 C 95.292969 224.40625 95.203125 224.398438 95.148438 224.390625 C 93.253906 224.015625 91.953125 222.367188 91.105469 219.753906 C 91.097656 219.714844 91.089844 219.675781 91.078125 219.636719 C 90.21875 213.722656 91.8125 204.152344 96.273438 201.523438 C 100.726562 198.753906 107.066406 196.546875 114.144531 194.550781 C 114.542969 194.433594 114.96875 194.644531 115.117188 195.03125 L 121.871094 212.859375 C 121.902344 212.945312 121.941406 213.019531 121.996094 213.082031 C 123.503906 217.25 124.914062 221.183594 125.902344 223.925781 C 125.988281 224.164062 125.789062 224.410156 125.507812 224.410156"/><path fill="#BF5414" d="M 137.421875 224.410156 L 167.582031 224.410156 C 167.636719 224.40625 167.722656 224.398438 167.777344 224.390625 C 169.675781 224.015625 170.976562 222.367188 171.820312 219.753906 C 171.832031 219.714844 171.839844 219.675781 171.847656 219.636719 C 172.710938 213.722656 171.117188 204.152344 166.65625 201.523438 C 162.203125 198.753906 155.859375 196.546875 148.785156 194.550781 C 148.382812 194.433594 147.957031 194.644531 147.8125 195.03125 L 141.058594 212.859375 C 141.023438 212.945312 140.984375 213.019531 140.933594 213.082031 C 139.425781 217.25 138.015625 221.183594 137.027344 223.925781 C 136.941406 224.164062 137.140625 224.410156 137.421875 224.410156"/><g clip-path="url(#a)"><path fill="#BF5414" d="M 131.152344 228.863281 C 133.441406 228.863281 135.300781 230.726562 135.300781 233.023438 C 135.300781 235.324219 133.441406 237.183594 131.152344 237.183594 C 128.855469 237.183594 126.996094 235.324219 126.996094 233.023438 C 126.996094 230.726562 128.855469 228.863281 131.152344 228.863281 Z M 202.839844 117.75 L 60.089844 117.75 C 53.851562 117.75 48.789062 122.929688 48.789062 129.320312 L 48.789062 231.800781 C 48.789062 236.910156 52.914062 241.050781 58.015625 241.050781 L 205.304688 241.050781 L 204.871094 240.410156 C 203.75 238.773438 202.699219 237.078125 201.703125 235.316406 C 194.527344 234.191406 188.59375 229.230469 186.09375 222.589844 L 61.324219 222.589844 C 60.652344 222.589844 60.105469 222.03125 60.105469 221.351562 L 60.105469 130.171875 C 60.105469 129.480469 60.652344 128.933594 61.324219 128.933594 L 201.59375 128.933594 C 202.273438 128.933594 202.8125 129.480469 202.8125 130.171875 L 202.8125 162.105469 C 204.96875 159.496094 207.386719 157.109375 210.046875 154.984375 C 211.386719 153.917969 212.753906 152.945312 214.140625 152.074219 L 214.140625 129.320312 C 214.140625 122.929688 209.078125 117.75 202.839844 117.75"/></g><g clip-path="url(#b)"><path fill="#BF5414" d="M 277.296875 232.957031 C 278.414062 230.96875 279.433594 228.945312 280.371094 226.894531 C 280.585938 227.074219 280.863281 227.199219 281.160156 227.226562 L 281.160156 230.761719 C 281.160156 234.992188 277.839844 238.425781 273.664062 238.605469 C 274.875 236.84375 276.085938 234.960938 277.296875 232.957031 Z M 313.847656 272.898438 C 301.0625 263.132812 272.835938 257.140625 255.28125 254.921875 C 257.617188 253.898438 259.996094 252.558594 262.441406 250.832031 C 265.042969 248.996094 267.566406 246.503906 270.042969 243.464844 L 272.84375 243.464844 C 280.019531 243.464844 285.828125 237.636719 285.828125 230.445312 L 285.828125 226.507812 C 290.28125 224.867188 293.460938 220.585938 293.460938 215.566406 L 293.460938 203.980469 C 293.460938 199.535156 290.976562 195.667969 287.320312 193.695312 C 285.886719 171.441406 267.859375 152.972656 244.863281 151.929688 C 244.703125 151.910156 227.964844 151.304688 215.222656 161.480469 C 205.359375 169.363281 199.804688 181.28125 199.222656 193.714844 C 195.59375 195.695312 193.125 199.554688 193.125 203.980469 L 193.125 215.566406 C 193.125 222.015625 198.351562 227.242188 204.789062 227.242188 L 205.265625 227.242188 C 205.789062 227.242188 206.246094 226.972656 206.523438 226.570312 C 208.015625 229.753906 209.738281 232.8125 211.722656 235.726562 C 211.792969 235.78125 211.855469 235.878906 211.929688 235.953125 C 212.59375 236.96875 213.457031 238.203125 214.496094 239.542969 C 214.703125 239.820312 214.917969 240.097656 215.152344 240.378906 C 215.179688 240.414062 215.222656 240.476562 215.25 240.515625 C 215.441406 240.75 215.648438 240.980469 215.84375 241.214844 C 215.898438 241.285156 215.953125 241.339844 216.003906 241.414062 C 219.769531 245.894531 225.273438 251.128906 232.207031 254.367188 C 232.460938 254.484375 232.714844 254.589844 232.96875 254.699219 C 215.617188 256.722656 185.832031 262.785156 172.597656 272.898438 C 163.554688 278.769531 160.328125 300.132812 162.070312 313.335938 C 162.085938 313.421875 162.105469 313.503906 162.125 313.589844 C 163.839844 319.429688 166.472656 323.117188 170.316406 323.953125 C 170.429688 323.964844 170.609375 323.984375 170.714844 323.996094 L 315.730469 323.996094 C 315.832031 323.984375 316.015625 323.964844 316.128906 323.953125 C 319.972656 323.117188 322.605469 319.429688 324.320312 313.589844 C 324.339844 313.503906 324.355469 313.421875 324.375 313.335938 C 326.117188 300.132812 322.890625 278.769531 313.847656 272.898438"/></g><g clip-path="url(#c)"><path fill="#F6F6E9" d="M 187.066406 48.28125 C 185.964844 48.28125 185.0625 47.378906 185.0625 46.277344 L 185.0625 39.988281 C 185.0625 38.882812 185.964844 37.980469 187.066406 37.980469 C 188.167969 37.980469 189.070312 38.882812 189.070312 39.988281 L 189.070312 46.277344 C 189.070312 47.378906 188.167969 48.28125 187.066406 48.28125 Z M 187.066406 48.28125"/></g><g clip-path="url(#d)"><path fill="#F6F6E9" d="M 222.203125 71.433594 L 215.925781 71.433594 C 214.824219 71.433594 213.921875 70.53125 213.921875 69.429688 C 213.921875 68.324219 214.824219 67.421875 215.925781 67.421875 L 222.203125 67.421875 C 223.304688 67.421875 224.207031 68.324219 224.207031 69.429688 C 224.207031 70.53125 223.304688 71.433594 222.203125 71.433594 Z M 222.203125 71.433594"/></g><g clip-path="url(#e)"><path fill="#F6F6E9" d="M 158.9375 71.433594 L 152.660156 71.433594 C 151.558594 71.433594 150.65625 70.53125 150.65625 69.429688 C 150.65625 68.324219 151.558594 67.421875 152.660156 67.421875 L 158.9375 67.421875 C 160.039062 67.421875 160.941406 68.324219 160.941406 69.429688 C 160.941406 70.53125 160.039062 71.433594 158.9375 71.433594 Z M 158.9375 71.433594"/></g><path fill="#F6F6E9" d="M 166.789062 56.890625 C 166.277344 56.890625 165.765625 56.6875 165.375 56.296875 L 160.941406 51.851562 C 160.160156 51.070312 160.160156 49.796875 160.941406 49.015625 C 161.722656 48.230469 162.992188 48.230469 163.773438 49.015625 L 168.210938 53.457031 C 168.992188 54.242188 168.992188 55.515625 168.210938 56.296875 C 167.808594 56.6875 167.300781 56.890625 166.789062 56.890625 Z M 166.789062 56.890625"/><path fill="#F6F6E9" d="M 207.792969 56.890625 C 207.285156 56.890625 206.773438 56.6875 206.382812 56.296875 C 205.601562 55.515625 205.601562 54.242188 206.382812 53.457031 L 210.820312 49.015625 C 211.601562 48.230469 212.871094 48.230469 213.652344 49.015625 C 214.433594 49.796875 214.433594 51.070312 213.652344 51.851562 L 209.214844 56.296875 C 208.824219 56.6875 208.316406 56.890625 207.792969 56.890625 Z M 207.792969 56.890625"/><path fill="#F6F6E9" d="M 200.34375 104.808594 L 174.910156 104.808594 C 173.808594 104.808594 172.90625 103.90625 172.90625 102.800781 L 172.90625 101.710938 C 172.90625 97.367188 171.433594 93.0625 168.652344 89.25 C 165.6875 85.199219 164.113281 80.390625 164.113281 75.355469 C 164.113281 68.886719 166.820312 62.628906 171.535156 58.191406 C 176.3125 53.699219 182.570312 51.441406 189.128906 51.855469 C 201.277344 52.617188 210.9375 62.765625 211.140625 74.964844 C 211.230469 80.371094 209.535156 85.488281 206.242188 89.75 C 203.738281 93 202.355469 97.265625 202.355469 101.757812 L 202.355469 102.8125 C 202.347656 103.914062 201.457031 104.808594 200.34375 104.808594 Z M 176.902344 100.796875 L 198.371094 100.796875 C 198.5625 95.769531 200.214844 91.003906 203.078125 87.292969 C 205.8125 83.753906 207.214844 79.511719 207.144531 75.027344 C 206.972656 64.902344 198.960938 56.476562 188.890625 55.855469 C 183.441406 55.515625 178.253906 57.378906 174.289062 61.113281 C 170.324219 64.84375 168.128906 69.910156 168.128906 75.355469 C 168.128906 79.539062 169.433594 83.523438 171.886719 86.882812 C 174.980469 91.125 176.703125 95.921875 176.902344 100.796875 Z M 176.902344 100.796875"/><path fill="#F6F6E9" d="M 200.585938 112.542969 L 174.679688 112.542969 C 173.578125 112.542969 172.675781 111.640625 172.675781 110.535156 C 172.675781 109.433594 173.578125 108.53125 174.679688 108.53125 L 200.574219 108.53125 C 201.675781 108.53125 202.578125 109.433594 202.578125 110.535156 C 202.578125 111.640625 201.6875 112.542969 200.585938 112.542969 Z M 200.585938 112.542969"/><path fill="#F6F6E9" d="M 187.628906 130.757812 C 181.289062 130.757812 176.121094 125.59375 176.121094 119.234375 L 176.121094 117.699219 C 176.121094 116.59375 177.023438 115.691406 178.125 115.691406 L 197.121094 115.691406 C 198.222656 115.691406 199.121094 116.59375 199.121094 117.699219 L 199.121094 119.234375 C 199.132812 125.59375 193.976562 130.757812 187.628906 130.757812 Z M 180.148438 119.707031 C 180.386719 123.628906 183.652344 126.746094 187.628906 126.746094 C 191.601562 126.746094 194.867188 123.628906 195.105469 119.707031 Z M 180.148438 119.707031"/><path fill="#F6F6E9" d="M 191.480469 104.808594 L 183.78125 104.808594 C 182.859375 104.808594 182.058594 104.1875 181.839844 103.292969 L 176.191406 80.765625 C 175.992188 79.972656 176.292969 79.136719 176.941406 78.65625 C 177.59375 78.175781 178.472656 78.136719 179.175781 78.558594 L 182.660156 80.671875 L 185.855469 74.433594 C 186.195312 73.761719 186.886719 73.339844 187.636719 73.339844 C 188.386719 73.339844 189.078125 73.761719 189.417969 74.433594 L 192.613281 80.671875 L 196.097656 78.558594 C 196.789062 78.136719 197.671875 78.175781 198.332031 78.65625 C 198.984375 79.136719 199.28125 79.972656 199.082031 80.765625 L 193.433594 103.292969 C 193.203125 104.1875 192.402344 104.808594 191.480469 104.808594 Z M 185.34375 100.796875 L 189.929688 100.796875 L 194.003906 84.527344 L 192.855469 85.226562 C 192.375 85.519531 191.800781 85.597656 191.273438 85.449219 C 190.742188 85.296875 190.289062 84.925781 190.03125 84.433594 L 187.636719 79.75 L 185.242188 84.433594 C 184.992188 84.925781 184.542969 85.296875 184.003906 85.449219 C 183.472656 85.597656 182.890625 85.519531 182.421875 85.226562 L 181.269531 84.527344 Z M 185.34375 100.796875"/></svg>