<svg xmlns="http://www.w3.org/2000/svg" width="375" viewBox="0 0 375 375" height="375" version="1.0"><defs><clipPath id="a"><path d="M 90.921875 174.464844 L 284.421875 174.464844 L 284.421875 367.964844 L 90.921875 367.964844 Z M 90.921875 174.464844"/></clipPath><clipPath id="b"><path d="M 108 62 L 249.746094 62 L 249.746094 168 L 108 168 Z M 108 62"/></clipPath><clipPath id="c"><path d="M 160 146.683594 L 183 146.683594 L 183 168 L 160 168 Z M 160 146.683594"/></clipPath><clipPath id="d"><path d="M 73 37.5 L 139 37.5 L 139 119 L 73 119 Z M 73 37.5"/></clipPath></defs><path fill="#FFB905" d="M 300.574219 56.609375 L 300.796875 56.695312 L 300.746094 56.632812 L 300.523438 56.464844 C 300.59375 56.566406 300.519531 56.519531 300.574219 56.609375"/><path fill="#FFB905" d="M 193.378906 338.15625 C 193.589844 338.125 193.785156 338.101562 193.992188 338.066406 C 197.222656 337.742188 200.964844 337.363281 204.703125 336.988281 C 205.316406 336.863281 205.945312 336.757812 206.5625 336.644531 C 213.667969 336.53125 220.65625 335.960938 227.496094 334.914062 C 226.625 335.289062 225.753906 335.675781 224.859375 336.09375 C 223.792969 336.542969 222.765625 337.007812 221.710938 337.449219 C 212.3125 338.488281 202.828125 338.71875 193.378906 338.15625 Z M 86.542969 288.433594 C 81.160156 284.664062 77.136719 280.839844 71.679688 275.492188 C 69.808594 273.78125 67.984375 270.316406 67.019531 268.3125 C 66.113281 266.242188 66.082031 265.453125 66.953125 266.023438 C 68.085938 266.769531 69.664062 268.351562 71.996094 271.449219 C 74.910156 274.929688 78.132812 278.128906 81.105469 281.433594 C 85.632812 286.054688 89.679688 288.699219 91.777344 289.660156 C 92.140625 289.832031 92.578125 290.078125 93.050781 290.347656 L 93.398438 290.730469 C 95.15625 292.710938 97.257812 294.339844 99.167969 296.160156 L 102.242188 298.960938 C 100.773438 298.160156 98.894531 296.945312 96.890625 295.601562 C 92.507812 292.941406 89.027344 289.589844 86.542969 288.433594 Z M 63.003906 263.699219 C 61.902344 262.855469 60.402344 260.328125 59.457031 258.050781 C 59.15625 257.335938 59.179688 257.007812 59.054688 256.5 C 59.367188 256.828125 59.617188 257 60 257.523438 C 61.085938 258.910156 62.007812 260.886719 62.84375 262.398438 C 63.449219 263.53125 63.527344 264.164062 63.003906 263.699219 Z M 55.890625 260.179688 C 55.511719 259.496094 55.101562 258.5 54.789062 257.75 C 54.699219 257.535156 54.894531 257.671875 54.972656 257.648438 C 55.4375 258.152344 56.058594 259.082031 56.847656 260.742188 C 57.042969 261.144531 57.222656 261.636719 57.257812 261.828125 C 57.382812 262.460938 56.765625 261.773438 55.890625 260.179688 Z M 48.726562 249.355469 C 48.492188 248.917969 47.835938 247.1875 47.71875 246.695312 C 47.59375 246.171875 47.75 245.996094 48 246.394531 C 48.464844 247.144531 49.089844 248.421875 49.648438 249.480469 C 49.832031 250.390625 50.265625 251.640625 50.164062 251.5 C 49.730469 251.136719 49.277344 250.355469 48.726562 249.355469 Z M 181.117188 11.335938 C 184.9375 10.988281 189.113281 10.90625 193.257812 10.671875 C 193.894531 10.644531 195.226562 10.785156 196.085938 10.871094 C 196.425781 10.90625 196.371094 11 196.496094 11.070312 C 196.140625 11.191406 196.078125 11.351562 195.390625 11.433594 C 190.75 12.109375 185.445312 12.125 179.101562 12.929688 C 178.667969 12.984375 177.757812 13.042969 177.515625 13.023438 C 176.890625 12.96875 176.066406 12.910156 176.109375 12.792969 C 176.292969 12.335938 178.21875 11.808594 181.117188 11.335938 Z M 184.027344 9.597656 C 184.308594 9.617188 184.75 9.644531 185.125 9.667969 C 184.945312 9.710938 184.832031 9.78125 184.554688 9.789062 C 184.265625 9.769531 183.828125 9.738281 183.449219 9.714844 C 183.632812 9.671875 183.75 9.605469 184.027344 9.597656 Z M 249.636719 27.515625 C 249.886719 27.578125 250.53125 27.859375 250.996094 28.039062 C 251.160156 28.171875 251.527344 28.402344 251.425781 28.414062 C 251.324219 28.429688 250.796875 28.292969 250.449219 28.144531 C 249.042969 27.542969 248.710938 27.285156 249.636719 27.515625 Z M 260.550781 33.207031 C 261.25 33.492188 262.269531 34.042969 263.257812 34.628906 C 262.867188 34.484375 262.480469 34.328125 262.089844 34.183594 C 259.9375 33.359375 257.808594 32.546875 255.699219 31.738281 C 257.292969 32.199219 258.917969 32.609375 260.550781 33.207031 Z M 271.324219 37.050781 C 273.378906 37.984375 275.214844 39.125 276.679688 40.453125 C 277.046875 40.765625 277.382812 41.0625 277.707031 41.351562 C 276.855469 40.949219 276.003906 40.554688 275.175781 40.125 C 273.527344 39.324219 271.890625 38.527344 270.257812 37.730469 C 269.839844 37.429688 269.429688 37.132812 269.105469 36.84375 C 267.921875 35.863281 268.863281 35.859375 271.324219 37.050781 Z M 288.09375 45.792969 C 289.710938 46.984375 291.355469 48.199219 293.046875 49.449219 C 294.839844 50.808594 296.539062 52.292969 297.96875 53.710938 C 298.605469 54.390625 299.238281 55.003906 299.847656 55.640625 L 299.183594 55.144531 L 295.304688 52.210938 C 294.023438 51.214844 292.738281 50.222656 291.324219 49.410156 C 289.605469 48.355469 287.753906 47.21875 285.878906 46.070312 C 285.464844 45.605469 285.042969 45.144531 284.664062 44.691406 C 283.609375 43.425781 284.75 43.804688 288.09375 45.792969 Z M 298.515625 52.03125 C 298.921875 52.253906 299.972656 53.019531 300.648438 53.59375 C 302.074219 54.726562 302.582031 55.820312 301.816406 55.246094 C 301.421875 54.949219 300.429688 54.1875 299.699219 53.636719 C 298.363281 52.457031 297.667969 51.578125 298.515625 52.03125 Z M 312.105469 62.625 C 315.136719 65.214844 317.636719 68.503906 320.449219 71.445312 L 317.273438 69.515625 C 314.949219 67.039062 313.21875 65.347656 310.203125 62.53125 C 309.644531 61.980469 308.707031 60.832031 308.636719 60.625 C 308.351562 59.746094 309.875 60.613281 312.105469 62.625 Z M 320.738281 71.757812 C 321.375 71.4375 324.359375 73.390625 327.992188 78.285156 C 330.007812 80.90625 331.796875 83.59375 333.703125 86.574219 C 334.722656 88.105469 335.570312 89.242188 335.984375 89.644531 C 336.253906 89.867188 336.4375 89.917969 336.605469 89.9375 C 337.054688 89.984375 337.917969 90.921875 339.453125 93.523438 C 342.011719 98.023438 344.46875 101.273438 345.960938 103.6875 C 346.175781 104.007812 346.921875 105.699219 347.21875 106.515625 C 347.523438 107.351562 347.742188 108.265625 347.710938 108.496094 C 347.625 109.175781 347.308594 109.347656 347.230469 110.039062 C 347.089844 111.300781 346.546875 111.261719 344.007812 105.707031 C 343.234375 103.960938 342.359375 102.625 341.519531 101.636719 C 341.007812 100.980469 340.589844 100.546875 340.179688 100.128906 C 338.679688 97.625 337.1875 95.117188 335.574219 92.683594 L 328.527344 83.300781 L 326.742188 80.972656 L 324.753906 78.800781 L 324.148438 78.140625 C 323.984375 77.070312 322.890625 74.867188 320.714844 71.730469 Z M 352.101562 114.816406 C 352.5625 115.523438 353.21875 116.644531 353.65625 117.9375 C 353.828125 118.398438 354.078125 119.648438 354.292969 120.539062 C 354.167969 121.105469 353.71875 120.398438 352.894531 118.128906 C 352.640625 117.371094 352.144531 115.921875 351.957031 115.371094 C 351.800781 114.804688 351.871094 114.460938 352.101562 114.816406 Z M 281.308594 44.476562 L 280.328125 43.875 C 278.617188 42.929688 276.863281 42.0625 275.101562 41.203125 C 274.003906 40.285156 272.8125 39.46875 271.691406 38.71875 C 274.050781 39.835938 276.378906 41.003906 278.679688 42.230469 C 279.453125 42.9375 280.261719 43.65625 281.308594 44.476562 Z M 307.855469 62.0625 C 309.394531 63.253906 310.941406 64.660156 312.507812 66.25 C 310.957031 64.859375 309.402344 63.46875 307.855469 62.0625 Z M 320.855469 79.199219 C 321.71875 80.171875 322.648438 81.269531 323.613281 82.429688 C 323.050781 81.78125 322.246094 80.867188 321.617188 80.167969 C 321.136719 79.648438 320.648438 79.109375 320.160156 78.574219 C 320.394531 78.789062 320.613281 78.976562 320.855469 79.199219 Z M 263.03125 38.210938 C 262.300781 37.960938 261.71875 37.804688 261.597656 37.804688 C 261.417969 37.804688 262.082031 38.097656 263.160156 38.523438 C 263.265625 38.734375 263.398438 38.964844 263.554688 39.207031 C 262.007812 38.699219 260.5625 38.226562 259.179688 37.769531 C 258.679688 37.578125 258.167969 37.417969 257.664062 37.230469 C 257.832031 36.914062 257.335938 36.300781 256.121094 35.363281 C 257.25 35.777344 258.371094 36.1875 259.503906 36.601562 C 260.636719 37.046875 261.800781 37.433594 262.957031 37.84375 C 262.964844 37.957031 262.984375 38.078125 263.03125 38.210938 Z M 277.886719 46.136719 C 277.652344 46.027344 277.71875 46.179688 277.851562 46.378906 C 276.449219 45.617188 275.039062 44.859375 273.605469 44.140625 C 274.804688 44.671875 275.992188 45.203125 277.21875 45.75 C 277.773438 46.019531 278.308594 46.304688 278.835938 46.601562 C 278.519531 46.449219 278.203125 46.296875 277.886719 46.136719 Z M 267.5625 40.917969 C 267.703125 40.851562 267.886719 40.8125 268.128906 40.804688 C 268.585938 41.035156 269.042969 41.269531 269.507812 41.488281 C 271.359375 42.398438 273.605469 43.503906 274.058594 43.824219 C 274.65625 44.253906 272.078125 43.011719 270.382812 42.222656 C 269.40625 41.78125 268.480469 41.347656 267.5625 40.917969 Z M 271.921875 42.003906 C 272.613281 42.445312 271.074219 41.730469 269.558594 41.019531 C 269.976562 41.132812 270.488281 41.308594 271.042969 41.515625 C 271.441406 41.722656 271.753906 41.894531 271.921875 42.003906 Z M 213.292969 24.308594 C 213.410156 24.296875 213.523438 24.277344 213.65625 24.265625 C 215.449219 24.160156 217.746094 24.402344 220.933594 24.964844 C 218.398438 24.683594 215.851562 24.464844 213.292969 24.308594 Z M 148.363281 37.476562 L 144.382812 38.539062 C 144 38.632812 143.570312 38.675781 143.417969 38.660156 C 143.277344 38.640625 143.351562 38.5 143.542969 38.433594 C 144.367188 38.160156 145.6875 37.707031 146.074219 37.644531 C 147.023438 37.507812 147.644531 37.511719 148.363281 37.476562 Z M 114.703125 55.714844 C 114.710938 55.707031 114.710938 55.703125 114.714844 55.699219 C 116.042969 54.703125 117.378906 53.734375 118.789062 52.867188 C 117.785156 53.441406 116.820312 54.089844 115.859375 54.757812 C 117.875 53.144531 120.121094 51.597656 123.683594 49.4375 C 125.554688 48.339844 127.097656 47.101562 128.363281 46.40625 C 130.59375 44.988281 133.460938 43.585938 137.695312 41.917969 C 143.066406 39.902344 146.691406 38.839844 148.695312 37.40625 C 150.351562 36.742188 151.992188 36.085938 153.609375 35.4375 C 155.273438 34.957031 156.921875 34.484375 158.542969 34.015625 C 161.796875 33.019531 164.953125 32.054688 168 31.117188 C 170.125 30.738281 172.175781 30.277344 174.199219 29.808594 C 174.289062 29.800781 174.375 29.789062 174.464844 29.777344 C 175.992188 29.554688 177.492188 29.320312 178.199219 29.136719 C 178.054688 29.097656 177.238281 29.195312 176.25 29.335938 C 178.414062 28.828125 180.515625 28.355469 182.566406 27.941406 C 183.199219 27.863281 183.859375 27.78125 184.578125 27.683594 C 186.457031 27.417969 188.597656 27.066406 190.816406 27.03125 C 193.308594 26.894531 195.804688 26.757812 198.304688 26.621094 C 199.351562 26.621094 199.960938 26.605469 200.226562 26.515625 C 200.808594 26.484375 201.394531 26.453125 201.976562 26.417969 C 203.832031 26.242188 205.6875 26.359375 207.535156 26.449219 C 209.382812 26.527344 211.226562 26.609375 213.058594 26.6875 L 219.070312 26.953125 C 221.078125 27.039062 223.046875 27.480469 225.03125 27.738281 C 228.976562 28.386719 232.957031 28.828125 236.792969 29.691406 C 240.867188 30.824219 244.960938 31.78125 248.992188 32.945312 C 249.238281 33.183594 249.730469 33.539062 250.542969 34.039062 C 251.558594 34.671875 250.746094 34.585938 249.496094 34.195312 C 242.550781 31.679688 235.167969 30.71875 227.902344 29.1875 C 222.898438 28.648438 217.699219 28.011719 214.125 27.929688 C 213.921875 27.945312 213.699219 27.957031 213.492188 27.972656 C 210.398438 27.785156 207.296875 27.660156 204.160156 27.660156 C 169.9375 27.660156 138.328125 38.792969 112.714844 57.605469 C 113.375 56.976562 114.042969 56.347656 114.703125 55.714844 Z M 49.796875 164.683594 C 49.742188 165.164062 49.667969 165.648438 49.613281 166.132812 C 49.617188 166.105469 49.617188 166.082031 49.621094 166.050781 C 49.648438 165.710938 49.714844 165.175781 49.796875 164.683594 Z M 50.214844 168.222656 C 50.113281 168.46875 50.011719 168.667969 49.910156 168.917969 C 49.707031 168.972656 49.597656 168.574219 49.574219 167.804688 C 49.714844 166.332031 49.886719 164.863281 50.097656 163.398438 C 50.398438 162.632812 50.628906 162.683594 50.730469 163.46875 C 50.535156 165.046875 50.363281 166.628906 50.214844 168.222656 Z M 326.621094 81.523438 C 329.148438 84.773438 331.746094 88.21875 334.304688 91.710938 L 335.714844 93.664062 L 336.953125 95.726562 L 338.601562 98.460938 C 336.570312 96.171875 334.40625 93.078125 331.164062 88.765625 C 329.441406 86.625 327.976562 85.046875 326.316406 83.035156 C 326.160156 82.820312 326.011719 82.613281 325.855469 82.402344 C 325.65625 82.164062 325.445312 81.9375 325.242188 81.699219 C 324.535156 80.800781 323.78125 79.796875 322.949219 78.625 C 323.003906 78.613281 323.042969 78.578125 323.140625 78.632812 C 323.621094 78.917969 323.941406 78.953125 324.089844 78.773438 C 324.933594 79.6875 325.792969 80.621094 326.621094 81.523438 Z M 300.746094 56.632812 L 305.414062 60.210938 C 308.933594 63.15625 312.3125 66.257812 315.542969 69.507812 C 317.28125 71.484375 319.054688 73.652344 320.882812 76.011719 C 321.484375 76.785156 322.132812 77.519531 322.6875 78.324219 C 322.492188 78.269531 322.246094 78.144531 321.976562 77.980469 C 321.730469 77.703125 321.476562 77.421875 321.238281 77.144531 C 315.421875 70.105469 308.460938 63.71875 300.925781 57.804688 C 301.144531 57.746094 301.089844 57.414062 300.574219 56.609375 C 299.8125 56.222656 299.171875 56.03125 299.226562 56.464844 C 296.421875 54.316406 293.542969 52.226562 290.617188 50.203125 L 287.785156 48.457031 C 287.746094 48.386719 287.726562 48.332031 287.660156 48.242188 C 287.253906 47.660156 286.78125 47.109375 286.304688 46.566406 C 291.121094 49.492188 295.78125 52.660156 300.242188 56.078125 C 300.40625 56.261719 300.585938 56.429688 300.746094 56.632812 Z M 265.035156 35.765625 C 265.675781 36.203125 266.160156 36.582031 266.265625 36.769531 C 266.308594 36.84375 266.363281 36.925781 266.417969 37.007812 C 263.765625 35.851562 261.015625 34.910156 258.296875 33.886719 C 254.496094 32.480469 250.71875 30.972656 246.730469 30.105469 C 244.660156 29.492188 242.5625 28.933594 240.449219 28.410156 C 240.59375 28.195312 241.144531 28.113281 242.042969 28.191406 C 249.894531 30.113281 257.582031 32.660156 265.035156 35.765625 Z M 81.363281 279.910156 C 81.207031 279.792969 81.089844 279.773438 80.890625 279.546875 C 80.738281 279.328125 80.453125 278.929688 80.230469 278.609375 C 80.382812 278.71875 80.503906 278.746094 80.703125 278.96875 C 80.855469 279.1875 81.136719 279.589844 81.363281 279.910156 Z M 103.453125 299.554688 L 101.742188 297.984375 C 99.320312 295.769531 96.902344 293.5625 94.492188 291.355469 C 94.390625 291.253906 94.292969 291.140625 94.1875 291.035156 C 94.441406 291.191406 94.671875 291.332031 94.949219 291.503906 C 97.789062 294.34375 100.730469 297.082031 103.785156 299.691406 C 103.683594 299.652344 103.566406 299.601562 103.453125 299.554688 Z M 356.121094 138.476562 C 356.929688 141.855469 357.867188 145.734375 357.796875 146.214844 C 357.703125 146.859375 356.332031 141.5625 355.367188 138.15625 C 355.003906 136.886719 354.976562 136.914062 355.136719 137.566406 C 356.054688 141.128906 356.953125 144.585938 357.832031 147.984375 L 358.476562 150.515625 L 358.871094 153.078125 C 359.132812 154.78125 359.394531 156.464844 359.652344 158.144531 C 360.15625 159.523438 360.40625 160.21875 360.765625 161.984375 C 360.921875 162.871094 361.128906 164.015625 361.421875 165.652344 C 361.488281 166.257812 361.542969 166.960938 361.59375 167.71875 C 361.214844 167.332031 360.832031 167.078125 360.433594 167.066406 C 359.835938 167.039062 359.265625 168.136719 358.71875 171.246094 C 358.632812 171.738281 358.550781 172.242188 358.464844 172.742188 C 356.121094 133.949219 339.421875 99.058594 313.648438 73.203125 C 315.09375 74.265625 316.636719 75.480469 318.351562 76.960938 C 319.46875 78.167969 320.628906 79.429688 321.859375 80.789062 C 323.121094 82.148438 324.773438 83.992188 324.261719 83.21875 C 326.21875 85.609375 328.359375 88.367188 330.777344 91.722656 C 332.730469 95.023438 334.414062 97.308594 335.050781 97.386719 C 335.171875 97.398438 335.320312 97.46875 335.476562 97.574219 C 335.789062 98.039062 336.082031 98.464844 336.335938 98.796875 C 337.148438 99.886719 338.144531 101.382812 339.316406 103.230469 C 340.449219 105.09375 341.964844 107.195312 343.128906 109.871094 C 344.414062 112.488281 345.6875 115.097656 346.960938 117.699219 C 347.578125 119.007812 348.277344 120.285156 348.832031 121.617188 L 350.359375 125.675781 C 350.964844 127.296875 351.292969 128.011719 351.320312 127.867188 C 351.347656 127.726562 351.007812 126.664062 350.492188 125.179688 C 350.335938 124.722656 350.144531 124.191406 349.984375 123.742188 L 349.066406 121.28125 C 348.730469 120.476562 348.316406 119.707031 347.945312 118.921875 C 347.1875 117.355469 346.433594 115.796875 345.679688 114.242188 C 344.929688 112.6875 344.183594 111.136719 343.441406 109.59375 L 342.324219 107.28125 L 341.003906 105.085938 C 340.253906 103.832031 339.511719 102.589844 338.765625 101.34375 C 339.082031 101.773438 339.40625 102.21875 339.746094 102.695312 C 341.234375 104.53125 341.972656 106.203125 343.257812 108.191406 C 344.1875 109.925781 345.339844 112.070312 346.410156 114.066406 C 348.59375 117.632812 350.199219 124.453125 351.566406 126.679688 C 351.734375 126.960938 351.890625 127.203125 352.039062 127.421875 L 352.316406 128.113281 C 352.257812 127.929688 352.210938 127.757812 352.160156 127.582031 C 352.480469 128.027344 352.773438 128.359375 353.054688 128.636719 C 353.105469 128.78125 353.15625 128.925781 353.207031 129.074219 C 354.269531 132.195312 355.488281 135.265625 356.121094 138.476562 Z M 112.429688 350.660156 C 111.820312 350.660156 109.230469 349.429688 107.101562 348.121094 C 104.832031 346.722656 103.523438 345.664062 104.003906 345.628906 C 104.476562 345.589844 107.097656 346.855469 109.4375 348.25 C 111.75 349.621094 113.042969 350.65625 112.429688 350.660156 Z M 36.617188 116.59375 C 36.328125 117.390625 35.734375 118.761719 35.34375 119.523438 C 34.949219 120.289062 34.476562 120.984375 34.308594 121.085938 C 33.871094 121.34375 34.148438 120.117188 34.824219 118.210938 C 35.105469 117.414062 35.6875 116.019531 36.0625 115.289062 C 36.441406 114.554688 36.726562 114.3125 37.050781 113.863281 C 37.335938 113.933594 37.351562 114.558594 36.617188 116.59375 Z M 35.691406 219.320312 C 35.433594 219.460938 34.84375 217.8125 34.410156 215.71875 C 33.996094 213.691406 33.632812 210.847656 33.738281 210.121094 C 33.855469 209.324219 34.042969 208.855469 34.152344 208.445312 C 34.472656 208.894531 34.644531 209.09375 34.839844 209.425781 C 35.195312 210.03125 35.875 213.28125 36.007812 214.953125 C 36.230469 217.777344 36.09375 219.097656 35.691406 219.320312 Z M 31.28125 139.820312 C 31.121094 140.949219 30.898438 142.492188 30.722656 143.746094 C 30.53125 144.390625 30.359375 144.984375 30.289062 145.21875 C 30.1875 145.453125 30.074219 145.550781 30.074219 145.335938 C 30.164062 142.8125 29.855469 140.414062 31.113281 136.003906 C 31.320312 135.175781 31.789062 133.714844 32.09375 132.960938 C 32.347656 132.335938 32.777344 131.78125 32.71875 132.125 C 32.265625 134.550781 31.785156 137.132812 31.28125 139.820312 Z M 31.445312 201.914062 C 31.398438 202.40625 31.183594 202.484375 31.082031 201.96875 C 30.105469 196.3125 28.566406 190.320312 28.195312 185.238281 C 28.117188 184.605469 28.117188 183.257812 28.089844 182.207031 C 28.042969 180.308594 28.34375 177.121094 28.582031 176.957031 C 28.710938 177.144531 28.886719 176.96875 28.957031 177.585938 C 29.609375 183.761719 29.976562 190.929688 31.371094 199.09375 C 31.464844 199.765625 31.496094 201.398438 31.445312 201.914062 Z M 369.71875 202.640625 L 368.460938 192.988281 C 367.992188 189.765625 367.777344 185.964844 367.050781 183.515625 C 366.492188 181.804688 365.964844 179.917969 365.441406 177.785156 C 364.28125 173.035156 363.058594 169.332031 361.707031 167.820312 C 361.347656 162.820312 360.484375 158.1875 359.9375 153.652344 C 359.617188 151.292969 359.671875 150.964844 360.035156 152.824219 C 360.378906 154.695312 360.8125 157.035156 361.261719 159.484375 C 361 157.535156 360.738281 155.574219 360.480469 153.660156 C 360.222656 151.746094 360.019531 149.867188 359.550781 148.148438 C 358.320312 142.957031 357.261719 138.332031 355.820312 134.207031 C 355.238281 132.828125 354.597656 131.207031 353.921875 129.457031 C 354.105469 129.632812 354.289062 129.820312 354.488281 130.050781 C 355.339844 131.09375 356.316406 132.15625 357.175781 133.574219 C 357.585938 134.28125 358.117188 135.820312 358.675781 138.226562 L 360.1875 144.984375 C 361.570312 150.53125 361.882812 154.636719 362.847656 157.695312 C 363.320312 159.632812 363.925781 162.109375 364.449219 164.253906 C 364.914062 166.113281 365.296875 166.644531 365.667969 166.695312 C 366.484375 166.824219 366.742188 163.695312 366.425781 157.257812 L 366.476562 157.507812 C 366.039062 154.9375 365.628906 152.1875 365.394531 149.015625 C 363.785156 140.398438 362.460938 132.304688 359.457031 124.832031 C 358.054688 121.089844 356.96875 117.265625 355.308594 113.667969 C 353.625 110.082031 351.941406 106.496094 350.242188 102.867188 C 347.445312 96.898438 343.730469 91.480469 340.554688 85.957031 C 336.8125 80.78125 333.121094 75.710938 329.25 71.054688 C 323.847656 65.226562 318.375 58.773438 311.609375 52.515625 C 306.492188 47.03125 300.792969 43.25 296.753906 40.648438 C 295.886719 40.058594 294.421875 39.070312 293.242188 38.265625 C 291.339844 37.195312 289.382812 35.742188 287.285156 33.859375 C 285.710938 32.445312 283.441406 30.855469 282.769531 30.734375 C 280.691406 30.167969 275.421875 27.882812 269.878906 25.335938 L 268.554688 24.746094 C 266.230469 23.671875 263.78125 22.371094 260.882812 21.15625 C 259.5 20.523438 257.324219 19.660156 256.421875 19.410156 C 249.777344 17.21875 240.691406 15.328125 233.636719 13.992188 C 230.417969 13.597656 226.761719 13.148438 222.9375 12.679688 C 219.128906 12.15625 215.171875 11.550781 211.234375 11.570312 C 209.335938 11.503906 206.042969 10.921875 205.996094 10.632812 C 205.734375 9.351562 208.472656 7.835938 220.300781 9.277344 L 225.007812 9.988281 C 230.402344 10.765625 234.257812 11.0625 236.722656 11.289062 C 238.871094 11.371094 240.589844 11.28125 244.832031 12.183594 C 250.691406 13.164062 255.847656 15.132812 261.671875 16.867188 C 266.871094 18.40625 269.695312 19.402344 272.515625 20.125 C 273.589844 20.410156 273.023438 19.773438 271.585938 18.71875 C 269.503906 17.121094 266.773438 15.371094 263.074219 13.964844 C 252.972656 9.488281 242.207031 5.984375 231.851562 3.808594 C 219.417969 1.40625 206.539062 -0.00390625 193.738281 0.300781 C 182.671875 0.257812 171.421875 1.738281 161.992188 3.675781 C 159.136719 4.402344 155.734375 5.269531 152.496094 6.09375 C 147.59375 7.132812 142.796875 8.722656 138.046875 10.519531 C 135.207031 11.527344 133.875 11.664062 132.21875 11.925781 C 130.964844 12.121094 128.480469 12.894531 127.734375 13.460938 C 127.164062 13.820312 126.066406 14.386719 126.023438 14.535156 C 125.683594 15.707031 120.96875 18.164062 114.859375 21.164062 C 109.824219 24.027344 105.703125 26.949219 101.4375 29.734375 C 98.4375 31.65625 95.726562 33.941406 91.699219 36.242188 C 88.25 38.351562 85.652344 40.1875 83.96875 42.101562 C 82.859375 43.246094 82.285156 44.058594 81.738281 44.828125 C 80.992188 45.867188 79.832031 47.207031 77.40625 49.230469 C 70.808594 54.652344 67.402344 59.542969 65.25 62.644531 C 64.550781 63.710938 62.878906 65.667969 61.722656 67.535156 C 58.132812 73.054688 54.25 78.070312 51.070312 84.28125 C 49.464844 87.070312 47.78125 89.996094 46.066406 92.984375 C 44.609375 96.09375 43.128906 99.261719 41.664062 102.394531 C 41.480469 102.792969 40.421875 104.421875 40.121094 104.757812 C 39.09375 105.90625 39.039062 105.261719 39.355469 104.039062 C 40.121094 101.089844 41.605469 97.054688 43.425781 92.535156 C 44.300781 90.542969 45.90625 88.28125 47.765625 85.625 C 52.671875 78.773438 52.613281 78.71875 52.480469 77.207031 C 52.464844 77.011719 52.429688 76.816406 52.757812 76.261719 C 53.070312 75.730469 53.804688 74.699219 54.425781 73.960938 L 57.945312 70.015625 C 60.222656 67.425781 61.871094 65.019531 61.148438 65.34375 C 60.570312 65.597656 59.804688 66.089844 59.101562 66.507812 C 58.160156 67.058594 57.855469 66.859375 59.105469 64.957031 C 62.15625 60.417969 65.960938 56.25 69.523438 51.714844 C 69.929688 51.265625 71.195312 49.941406 72.046875 49.355469 C 72.941406 48.765625 73.527344 48.375 74.382812 47.808594 C 75.171875 47.261719 76.308594 46.464844 76.90625 45.9375 C 77.550781 45.367188 78.0625 44.738281 78.085938 44.566406 C 78.148438 43.972656 77.933594 43.601562 77.910156 43.078125 C 77.878906 42.511719 79.265625 40.910156 82.222656 38.394531 C 86.179688 35.246094 89.515625 33.011719 91.683594 30.886719 C 92.859375 29.808594 95.277344 27.929688 97.421875 26.414062 C 100.605469 24.464844 104.066406 22.347656 107.226562 20.410156 C 113.632812 16.464844 114.226562 15.539062 108.832031 17.386719 C 107.28125 17.988281 105.566406 18.652344 103.867188 19.308594 C 100.738281 20.65625 96.785156 22.222656 92.902344 24.824219 C 90.785156 26.253906 88.597656 27.730469 86.589844 29.089844 C 79.355469 33.792969 72.972656 39.871094 66.460938 45.480469 C 60.535156 51.714844 54.449219 57.625 49.917969 64.21875 C 47.726562 67.355469 44.515625 70.695312 42.367188 74.351562 C 39.332031 79.253906 35.925781 83.96875 33.363281 88.984375 C 30.859375 94.03125 28.3125 98.875 26.359375 103.589844 C 24.109375 110.246094 21.066406 116.816406 19.476562 123.871094 C 17.824219 130.320312 15.90625 136.703125 15.1875 143.167969 C 14.15625 149.5625 13.277344 155.78125 13.34375 161.710938 C 13.167969 167.535156 12.921875 173.464844 13.546875 179.480469 C 13.945312 185.492188 14.195312 191.585938 15.410156 197.644531 C 16.183594 201.914062 16.613281 206.371094 17.675781 210.8125 C 18.78125 215.242188 19.910156 219.765625 21.050781 224.332031 C 21.820312 227.660156 23.011719 230.285156 23.929688 232.390625 C 25.136719 234.910156 26.535156 238.238281 27.929688 241.675781 C 31.785156 249.21875 35.300781 257.171875 40.277344 264.257812 C 41.304688 265.847656 42.425781 267.621094 43.542969 269.589844 C 46.972656 275.578125 50.199219 278.761719 52.710938 281.632812 C 54.46875 283.605469 56.957031 286.585938 59.207031 288.515625 C 61.679688 290.773438 64.953125 295.113281 67.808594 298.074219 C 69.371094 299.460938 70.945312 300.859375 72.328125 302.085938 C 78.804688 308.011719 86.113281 312.925781 92.066406 316.574219 C 96.085938 318.988281 101.136719 321.421875 105.851562 324.046875 C 107.148438 324.8125 109.171875 326.027344 111.027344 326.863281 C 115.09375 327.886719 120.339844 330.230469 125.996094 331.914062 C 130.441406 333.183594 134.996094 334.476562 139.570312 335.78125 C 144.207031 336.625 148.863281 337.472656 153.421875 338.304688 C 160.734375 339.191406 168.566406 339.886719 173.210938 339.371094 C 173.890625 339.265625 174.734375 339.164062 175.9375 339.179688 C 182.273438 339.199219 186.734375 339.085938 191.941406 338.371094 C 191.980469 338.371094 192.015625 338.375 192.050781 338.375 C 196.449219 338.558594 200.851562 338.949219 205.25 338.960938 C 209.644531 338.757812 214.039062 338.554688 218.429688 338.355469 C 218.835938 338.308594 219.234375 338.257812 219.636719 338.210938 C 216.082031 339.269531 211.828125 340.328125 205.835938 341.335938 C 201.210938 341.859375 197.523438 342.28125 194.023438 342.675781 C 191.988281 342.925781 189.878906 343.183594 187.6875 343.449219 C 185.480469 343.453125 183.191406 343.453125 180.800781 343.453125 C 176.003906 343.386719 170.726562 343.4375 165.03125 342.335938 C 161.679688 341.824219 158.472656 341.433594 156.003906 341.257812 C 152.445312 340.90625 150.046875 340.601562 144.539062 339.15625 C 143.285156 338.8125 142.277344 338.742188 141.867188 338.808594 C 140.5 339.058594 137.710938 338.695312 134.125 337.492188 C 131.796875 336.785156 129.28125 336.011719 127.851562 335.785156 C 123.652344 335.347656 117.140625 332.472656 110.664062 329.617188 C 105.078125 327.425781 99.914062 323.871094 94.425781 320.964844 C 89.097656 317.816406 84.257812 314.082031 79.46875 311.007812 C 78.40625 310.324219 77.191406 309.15625 76.101562 308.242188 C 71.121094 303.859375 65.757812 299.773438 61.3125 294.765625 C 59.332031 292.703125 57.441406 290.867188 55.289062 288.417969 C 50.613281 282.519531 47.023438 277.992188 43.335938 273.339844 C 38.898438 266.457031 33.851562 259.730469 30.300781 252.277344 C 29.449219 250.679688 28.625 249.222656 27.898438 248.035156 C 25.378906 244.296875 23.421875 239.40625 21.234375 234.160156 C 18.863281 228.960938 17.125 223.160156 15.542969 217.355469 C 13.417969 210.921875 12.308594 203.742188 11.128906 197.527344 C 10.25 193.515625 9.613281 189.308594 9.394531 184.960938 C 9.058594 180.625 8.65625 176.183594 8.445312 171.707031 C 8.734375 162.773438 8.546875 153.636719 9.898438 145.128906 C 10.027344 144.183594 10.183594 143.042969 10.324219 142.023438 C 11.097656 133.765625 13.578125 126.035156 15.414062 117.679688 C 17.027344 112.820312 17.90625 109.671875 17.980469 107.894531 C 18.085938 105.789062 18.195312 103.679688 18.109375 102 C 18.070312 101.203125 17.109375 102.492188 15.742188 105.074219 C 14.75 106.945312 13.546875 109.328125 12.554688 111.59375 C 7.667969 123.425781 4.078125 135.78125 2.347656 147.828125 C 1.003906 153.839844 1 160.449219 0.347656 166.859375 C -0.257812 172.011719 0.078125 177.09375 0.15625 182.109375 C 0.304688 187.125 0.304688 192.085938 1.125 196.941406 C 2.578125 210.269531 5.320312 223.863281 9.714844 236.789062 C 10.703125 239.726562 11.730469 242.773438 12.753906 245.8125 C 13.136719 247.003906 13.511719 248.363281 14.0625 249.570312 C 15.054688 251.957031 15.660156 254 15.492188 254.476562 C 15.144531 255.449219 15.53125 256.585938 17.757812 261.113281 C 18.511719 262.609375 19.191406 263.949219 19.949219 265.445312 C 20.789062 267.035156 21.84375 269.046875 22.074219 269.996094 C 22.308594 270.855469 22.289062 271.292969 22.652344 272.355469 C 22.84375 272.921875 23.597656 274.511719 24.117188 275.457031 C 24.652344 276.445312 25.382812 277.578125 25.726562 278 C 26.3125 278.707031 26.75 279.078125 27.082031 279.273438 C 28.984375 280.539062 32.644531 284.492188 38.992188 292.796875 C 41.289062 295.996094 43.566406 298.222656 46.132812 300.910156 C 47.535156 302.460938 49.191406 304.285156 50.785156 306.046875 C 52.363281 307.871094 54.996094 311.285156 56.316406 312.917969 C 56.664062 313.398438 56.425781 313.507812 55.960938 313.09375 C 54.308594 311.699219 52.601562 309.933594 51.015625 308.027344 C 48.808594 305.496094 47.101562 303.714844 45.992188 302.878906 C 45.363281 302.402344 44.84375 302.085938 44.347656 301.789062 C 43.335938 301.097656 41.257812 299.410156 38.777344 295.808594 C 37.648438 294.253906 36.554688 292.742188 35.53125 291.332031 C 33.789062 288.984375 33.640625 289.75 35.226562 292.5 C 36.507812 294.691406 37.917969 297.015625 39.492188 298.972656 C 41.085938 300.6875 42.46875 302.179688 43.945312 303.769531 L 51.15625 311.410156 C 53.632812 313.882812 56.371094 316.117188 59.007812 318.492188 C 59.445312 318.882812 60.617188 320.238281 61.332031 321.0625 C 61.613281 321.386719 61.792969 321.726562 61.648438 321.648438 C 61.085938 321.351562 60.628906 321.207031 59.667969 320.429688 C 55.550781 317 50.929688 313.5625 47.214844 309.632812 C 45.628906 308.085938 44.246094 306.847656 42.992188 305.769531 C 42.574219 305.414062 42.503906 305.667969 42.886719 306.28125 C 43.546875 307.328125 44.648438 308.984375 45.640625 310.199219 C 50.257812 316.308594 56.042969 321.113281 60.9375 325.863281 C 73.628906 336.585938 87.957031 347.125 103.417969 354.480469 C 126.703125 366.152344 151.527344 372.582031 175.617188 374.097656 C 187.375 375.015625 197.988281 374.222656 209.414062 373.210938 C 224.878906 371.273438 238.785156 368.035156 251.996094 362.980469 C 256.019531 361.421875 259.90625 359.933594 263.683594 358.328125 C 267.339844 356.453125 270.957031 354.597656 274.617188 352.71875 C 278.3125 350.9375 281.898438 348.875 285.46875 346.496094 C 289.070312 344.1875 292.875 341.957031 296.71875 339.382812 C 297.582031 338.703125 298.296875 338.144531 299.058594 337.542969 C 313.097656 327.226562 325.03125 314.503906 335.632812 301.238281 C 343.714844 290.125 350.875 278.867188 356.523438 266.269531 C 361.53125 255.914062 364.183594 246.378906 366.832031 236.828125 C 368.167969 230.261719 368.988281 224.917969 369.492188 220.167969 C 369.605469 215.96875 369.71875 211.511719 369.828125 207.300781 C 369.859375 205.53125 369.773438 204.128906 369.71875 202.640625"/><path fill="#FFB905" d="M 111.148438 326.957031 L 111.261719 326.976562 L 111.246094 326.972656 L 111.027344 326.863281 L 110.949219 326.835938 L 111.148438 326.957031"/><path fill="#FFB905" d="M 109.636719 326.980469 C 110.320312 327.464844 111.246094 328.132812 112.015625 328.554688 C 114.3125 329.816406 116.316406 330.585938 115.878906 330.09375 C 115.414062 329.566406 113.902344 328.636719 112.425781 327.738281 L 111.148438 326.957031 C 110.59375 326.863281 110.023438 326.765625 109.527344 326.679688 C 109.371094 326.664062 109.359375 326.78125 109.636719 326.980469"/><path fill="#FFB905" d="M 16.441406 263.992188 C 16.355469 263.914062 16.492188 264.410156 16.527344 264.652344 C 16.777344 265.195312 17.125 265.957031 17.253906 266.242188 C 17.835938 267.238281 17.742188 266.746094 17.035156 265.058594 C 16.859375 264.640625 16.535156 264.074219 16.441406 263.992188"/><path fill="#FFB905" d="M 69.375 54.933594 L 69.980469 54.179688 L 68.964844 55.121094 Z M 69.375 54.933594"/><path fill="#FFB905" d="M 332.835938 88.847656 L 332.167969 87.796875 L 332.222656 88.132812 Z M 332.835938 88.847656"/><path fill="#FFB905" d="M 202.898438 26.871094 C 203.039062 26.867188 203.179688 26.863281 203.320312 26.859375 C 203.300781 26.859375 203.277344 26.855469 203.257812 26.855469 C 203.136719 26.863281 203.019531 26.867188 202.898438 26.871094"/><path fill="#FFB905" d="M 247.859375 33.3125 C 243.265625 32.136719 238.707031 30.699219 234.03125 29.761719 C 229.3125 29.023438 224.578125 28.277344 219.824219 27.535156 C 215.019531 27.289062 210.199219 27.039062 205.359375 26.789062 C 204.683594 26.789062 204 26.84375 203.320312 26.859375 C 207.433594 26.902344 211.515625 27.265625 215.515625 27.480469 C 226.285156 28.3125 237.214844 30.363281 247.859375 33.3125"/><path fill="#FFB905" d="M 202.898438 26.871094 C 198.871094 26.984375 194.835938 27.265625 190.78125 27.453125 C 194.828125 27.257812 198.878906 27.066406 202.898438 26.871094"/><g clip-path="url(#a)"><path fill="#F6F6E9" d="M 284.421875 271.214844 C 284.421875 272.796875 284.382812 274.378906 284.304688 275.960938 C 284.226562 277.542969 284.113281 279.121094 283.957031 280.695312 C 283.800781 282.273438 283.609375 283.84375 283.375 285.410156 C 283.144531 286.976562 282.871094 288.535156 282.5625 290.089844 C 282.253906 291.640625 281.90625 293.1875 281.523438 294.722656 C 281.136719 296.257812 280.714844 297.785156 280.257812 299.296875 C 279.796875 300.8125 279.300781 302.316406 278.765625 303.808594 C 278.234375 305.296875 277.664062 306.777344 277.058594 308.238281 C 276.453125 309.699219 275.808594 311.148438 275.132812 312.578125 C 274.457031 314.011719 273.746094 315.425781 273 316.820312 C 272.253906 318.21875 271.472656 319.59375 270.65625 320.953125 C 269.84375 322.3125 268.996094 323.648438 268.117188 324.964844 C 267.238281 326.28125 266.324219 327.574219 265.382812 328.847656 C 264.441406 330.121094 263.464844 331.367188 262.460938 332.589844 C 261.457031 333.816406 260.421875 335.015625 259.359375 336.1875 C 258.296875 337.359375 257.203125 338.507812 256.085938 339.625 C 254.964844 340.746094 253.820312 341.835938 252.644531 342.902344 C 251.472656 343.964844 250.273438 344.996094 249.050781 346.003906 C 247.824219 347.007812 246.578125 347.980469 245.304688 348.925781 C 244.035156 349.867188 242.742188 350.777344 241.425781 351.660156 C 240.105469 352.539062 238.769531 353.386719 237.410156 354.199219 C 236.054688 355.011719 234.675781 355.792969 233.28125 356.539062 C 231.882812 357.285156 230.46875 357.996094 229.039062 358.675781 C 227.605469 359.351562 226.160156 359.992188 224.695312 360.597656 C 223.234375 361.203125 221.757812 361.773438 220.265625 362.308594 C 218.777344 362.839844 217.273438 363.339844 215.757812 363.796875 C 214.242188 364.257812 212.71875 364.679688 211.179688 365.0625 C 209.644531 365.449219 208.101562 365.796875 206.546875 366.105469 C 204.996094 366.414062 203.433594 366.683594 201.867188 366.917969 C 200.300781 367.148438 198.730469 367.34375 197.15625 367.496094 C 195.578125 367.652344 194 367.769531 192.417969 367.847656 C 190.839844 367.925781 189.257812 367.964844 187.671875 367.964844 C 186.089844 367.964844 184.507812 367.925781 182.925781 367.847656 C 181.34375 367.769531 179.765625 367.652344 178.1875 367.496094 C 176.613281 367.34375 175.042969 367.148438 173.476562 366.917969 C 171.910156 366.683594 170.351562 366.414062 168.796875 366.105469 C 167.246094 365.796875 165.699219 365.449219 164.164062 365.0625 C 162.628906 364.679688 161.101562 364.257812 159.585938 363.796875 C 158.074219 363.339844 156.570312 362.839844 155.078125 362.308594 C 153.585938 361.773438 152.109375 361.203125 150.648438 360.597656 C 149.183594 359.992188 147.738281 359.351562 146.304688 358.675781 C 144.875 357.996094 143.460938 357.285156 142.066406 356.539062 C 140.667969 355.792969 139.292969 355.011719 137.933594 354.199219 C 136.574219 353.386719 135.238281 352.539062 133.921875 351.660156 C 132.605469 350.777344 131.308594 349.867188 130.039062 348.925781 C 128.765625 347.980469 127.519531 347.007812 126.296875 346.003906 C 125.070312 344.996094 123.871094 343.964844 122.699219 342.902344 C 121.527344 341.835938 120.378906 340.746094 119.261719 339.625 C 118.140625 338.507812 117.050781 337.359375 115.984375 336.1875 C 114.921875 335.015625 113.886719 333.816406 112.882812 332.589844 C 111.878906 331.367188 110.90625 330.121094 109.960938 328.847656 C 109.019531 327.574219 108.109375 326.28125 107.226562 324.964844 C 106.347656 323.648438 105.5 322.3125 104.6875 320.953125 C 103.875 319.59375 103.09375 318.21875 102.347656 316.820312 C 101.601562 315.425781 100.886719 314.011719 100.210938 312.578125 C 99.535156 311.148438 98.894531 309.699219 98.289062 308.238281 C 97.679688 306.777344 97.113281 305.296875 96.578125 303.808594 C 96.042969 302.316406 95.546875 300.8125 95.089844 299.296875 C 94.628906 297.785156 94.207031 296.257812 93.820312 294.722656 C 93.4375 293.1875 93.089844 291.640625 92.78125 290.089844 C 92.472656 288.535156 92.203125 286.976562 91.96875 285.410156 C 91.738281 283.84375 91.542969 282.273438 91.386719 280.695312 C 91.234375 279.121094 91.117188 277.542969 91.039062 275.960938 C 90.960938 274.378906 90.921875 272.796875 90.921875 271.214844 C 90.921875 269.628906 90.960938 268.046875 91.039062 266.464844 C 91.117188 264.886719 91.234375 263.304688 91.386719 261.730469 C 91.542969 260.15625 91.738281 258.582031 91.96875 257.015625 C 92.203125 255.453125 92.472656 253.890625 92.78125 252.339844 C 93.089844 250.785156 93.4375 249.242188 93.820312 247.707031 C 94.207031 246.167969 94.628906 244.644531 95.089844 243.128906 C 95.546875 241.613281 96.042969 240.109375 96.578125 238.621094 C 97.113281 237.128906 97.679688 235.652344 98.289062 234.1875 C 98.894531 232.726562 99.535156 231.277344 100.210938 229.847656 C 100.886719 228.417969 101.601562 227.003906 102.347656 225.605469 C 103.09375 224.210938 103.875 222.832031 104.6875 221.472656 C 105.5 220.117188 106.347656 218.777344 107.226562 217.460938 C 108.109375 216.144531 109.019531 214.851562 109.960938 213.578125 C 110.90625 212.308594 111.878906 211.058594 112.882812 209.835938 C 113.886719 208.613281 114.921875 207.414062 115.984375 206.242188 C 117.050781 205.066406 118.140625 203.921875 119.261719 202.800781 C 120.378906 201.679688 121.527344 200.589844 122.699219 199.527344 C 123.871094 198.464844 125.070312 197.429688 126.296875 196.425781 C 127.519531 195.421875 128.765625 194.445312 130.039062 193.503906 C 131.308594 192.558594 132.605469 191.648438 133.921875 190.769531 C 135.238281 189.890625 136.574219 189.042969 137.933594 188.226562 C 139.292969 187.414062 140.667969 186.632812 142.066406 185.886719 C 143.460938 185.140625 144.875 184.429688 146.304688 183.753906 C 147.738281 183.074219 149.183594 182.433594 150.648438 181.828125 C 152.109375 181.222656 153.585938 180.652344 155.078125 180.121094 C 156.570312 179.585938 158.074219 179.089844 159.585938 178.628906 C 161.101562 178.171875 162.628906 177.746094 164.164062 177.363281 C 165.699219 176.976562 167.246094 176.632812 168.796875 176.324219 C 170.351562 176.015625 171.910156 175.742188 173.476562 175.511719 C 175.042969 175.277344 176.613281 175.085938 178.1875 174.929688 C 179.765625 174.773438 181.34375 174.65625 182.925781 174.582031 C 184.507812 174.503906 186.089844 174.464844 187.671875 174.464844 C 189.257812 174.464844 190.839844 174.503906 192.417969 174.582031 C 194 174.65625 195.578125 174.773438 197.15625 174.929688 C 198.730469 175.085938 200.300781 175.277344 201.867188 175.511719 C 203.433594 175.742188 204.996094 176.015625 206.546875 176.324219 C 208.101562 176.632812 209.644531 176.976562 211.179688 177.363281 C 212.71875 177.746094 214.242188 178.171875 215.757812 178.628906 C 217.273438 179.089844 218.777344 179.585938 220.265625 180.121094 C 221.757812 180.652344 223.234375 181.222656 224.695312 181.828125 C 226.160156 182.433594 227.605469 183.074219 229.039062 183.753906 C 230.46875 184.429688 231.882812 185.140625 233.28125 185.886719 C 234.675781 186.632812 236.054688 187.414062 237.410156 188.226562 C 238.769531 189.042969 240.105469 189.890625 241.425781 190.769531 C 242.742188 191.648438 244.035156 192.558594 245.304688 193.503906 C 246.578125 194.445312 247.824219 195.421875 249.050781 196.425781 C 250.273438 197.429688 251.472656 198.464844 252.644531 199.527344 C 253.820312 200.589844 254.964844 201.679688 256.085938 202.800781 C 257.203125 203.921875 258.296875 205.066406 259.359375 206.242188 C 260.421875 207.414062 261.457031 208.613281 262.460938 209.835938 C 263.464844 211.058594 264.441406 212.308594 265.382812 213.578125 C 266.324219 214.851562 267.238281 216.144531 268.117188 217.460938 C 268.996094 218.777344 269.84375 220.117188 270.65625 221.472656 C 271.472656 222.832031 272.253906 224.210938 273 225.605469 C 273.746094 227.003906 274.457031 228.417969 275.132812 229.847656 C 275.808594 231.277344 276.453125 232.726562 277.058594 234.1875 C 277.664062 235.652344 278.234375 237.128906 278.765625 238.621094 C 279.300781 240.109375 279.796875 241.613281 280.257812 243.128906 C 280.714844 244.644531 281.136719 246.167969 281.523438 247.707031 C 281.90625 249.242188 282.253906 250.785156 282.5625 252.339844 C 282.871094 253.890625 283.144531 255.453125 283.375 257.015625 C 283.609375 258.582031 283.800781 260.15625 283.957031 261.730469 C 284.113281 263.304688 284.226562 264.886719 284.304688 266.464844 C 284.382812 268.046875 284.421875 269.628906 284.421875 271.214844 Z M 284.421875 271.214844"/></g><path fill="#FF7605" d="M 203.796875 218.871094 L 171.546875 218.871094 C 171.027344 218.894531 170.53125 219.011719 170.054688 219.222656 C 169.582031 219.4375 169.164062 219.730469 168.800781 220.105469 C 168.441406 220.484375 168.164062 220.910156 167.96875 221.394531 C 167.773438 221.878906 167.675781 222.378906 167.675781 222.898438 C 167.675781 223.421875 167.773438 223.921875 167.96875 224.40625 C 168.164062 224.886719 168.441406 225.316406 168.800781 225.691406 C 169.164062 226.070312 169.582031 226.363281 170.054688 226.578125 C 170.53125 226.789062 171.027344 226.90625 171.546875 226.929688 L 203.796875 226.929688 C 204.316406 226.90625 204.816406 226.789062 205.289062 226.578125 C 205.765625 226.363281 206.183594 226.070312 206.542969 225.691406 C 206.902344 225.316406 207.179688 224.886719 207.375 224.40625 C 207.570312 223.921875 207.667969 223.421875 207.667969 222.898438 C 207.667969 222.378906 207.570312 221.878906 207.375 221.394531 C 207.179688 220.910156 206.902344 220.484375 206.542969 220.105469 C 206.183594 219.730469 205.765625 219.4375 205.289062 219.222656 C 204.816406 219.011719 204.316406 218.894531 203.796875 218.871094 Z M 203.796875 218.871094" fill-rule="evenodd"/><path fill="#FF7605" d="M 155.460938 214.847656 L 155.460938 230.972656 C 155.480469 231.492188 155.597656 231.988281 155.8125 232.464844 C 156.027344 232.9375 156.320312 233.355469 156.695312 233.71875 C 157.070312 234.078125 157.5 234.355469 157.984375 234.550781 C 158.46875 234.746094 158.96875 234.84375 159.488281 234.84375 C 160.011719 234.84375 160.511719 234.746094 160.996094 234.550781 C 161.476562 234.355469 161.90625 234.078125 162.28125 233.71875 C 162.65625 233.355469 162.953125 232.9375 163.164062 232.464844 C 163.378906 231.988281 163.496094 231.492188 163.515625 230.972656 L 163.515625 214.847656 C 163.496094 214.328125 163.378906 213.828125 163.164062 213.355469 C 162.953125 212.878906 162.65625 212.460938 162.28125 212.101562 C 161.90625 211.742188 161.476562 211.464844 160.996094 211.269531 C 160.511719 211.074219 160.011719 210.976562 159.488281 210.976562 C 158.96875 210.976562 158.46875 211.074219 157.984375 211.269531 C 157.5 211.464844 157.070312 211.742188 156.695312 212.101562 C 156.320312 212.460938 156.027344 212.878906 155.8125 213.355469 C 155.597656 213.828125 155.480469 214.328125 155.460938 214.847656 Z M 155.460938 214.847656" fill-rule="evenodd"/><path fill="#FF7605" d="M 211.828125 214.847656 L 211.828125 230.972656 C 211.847656 231.492188 211.964844 231.988281 212.179688 232.464844 C 212.394531 232.941406 212.6875 233.355469 213.0625 233.71875 C 213.4375 234.078125 213.867188 234.355469 214.351562 234.550781 C 214.832031 234.746094 215.335938 234.84375 215.855469 234.84375 C 216.375 234.84375 216.878906 234.746094 217.359375 234.550781 C 217.84375 234.355469 218.273438 234.078125 218.648438 233.71875 C 219.023438 233.355469 219.320312 232.941406 219.53125 232.464844 C 219.746094 231.988281 219.863281 231.492188 219.882812 230.972656 L 219.882812 214.847656 C 219.863281 214.328125 219.746094 213.828125 219.53125 213.355469 C 219.320312 212.878906 219.023438 212.460938 218.648438 212.101562 C 218.273438 211.742188 217.84375 211.464844 217.359375 211.269531 C 216.878906 211.074219 216.375 210.976562 215.855469 210.976562 C 215.335938 210.976562 214.832031 211.074219 214.351562 211.269531 C 213.867188 211.464844 213.4375 211.742188 213.0625 212.101562 C 212.6875 212.460938 212.394531 212.878906 212.179688 213.355469 C 211.964844 213.828125 211.847656 214.328125 211.828125 214.847656 Z M 211.828125 214.847656" fill-rule="evenodd"/><path fill="#FF7605" d="M 240.015625 243.027344 L 223.890625 243.027344 C 223.625 243.027344 223.363281 243.054688 223.101562 243.105469 C 222.84375 243.15625 222.59375 243.234375 222.347656 243.332031 C 222.101562 243.433594 221.871094 243.558594 221.652344 243.707031 C 221.429688 243.851562 221.226562 244.019531 221.042969 244.207031 C 220.855469 244.394531 220.6875 244.597656 220.539062 244.816406 C 220.394531 245.039062 220.269531 245.269531 220.167969 245.515625 C 220.066406 245.757812 219.992188 246.011719 219.9375 246.269531 C 219.886719 246.527344 219.859375 246.789062 219.859375 247.054688 C 219.859375 247.320312 219.886719 247.582031 219.9375 247.839844 C 219.992188 248.101562 220.066406 248.351562 220.167969 248.597656 C 220.269531 248.839844 220.394531 249.074219 220.539062 249.292969 C 220.6875 249.511719 220.855469 249.714844 221.042969 249.902344 C 221.226562 250.089844 221.429688 250.257812 221.652344 250.40625 C 221.871094 250.550781 222.101562 250.675781 222.347656 250.777344 C 222.59375 250.878906 222.84375 250.953125 223.101562 251.003906 C 223.363281 251.058594 223.625 251.082031 223.890625 251.082031 L 240.015625 251.082031 L 240.015625 319.53125 C 240.015625 319.792969 239.988281 320.054688 239.9375 320.316406 C 239.882812 320.574219 239.808594 320.824219 239.707031 321.070312 C 239.605469 321.3125 239.480469 321.546875 239.335938 321.765625 C 239.1875 321.984375 239.019531 322.1875 238.832031 322.375 C 238.648438 322.5625 238.445312 322.726562 238.222656 322.875 C 238.003906 323.023438 237.773438 323.144531 237.527344 323.246094 C 237.285156 323.347656 237.035156 323.425781 236.773438 323.476562 C 236.515625 323.527344 236.253906 323.554688 235.988281 323.554688 L 139.355469 323.554688 C 139.089844 323.554688 138.828125 323.527344 138.570312 323.476562 C 138.3125 323.425781 138.058594 323.347656 137.816406 323.246094 C 137.574219 323.144531 137.339844 323.023438 137.121094 322.875 C 136.902344 322.726562 136.699219 322.5625 136.511719 322.375 C 136.324219 322.1875 136.15625 321.984375 136.011719 321.765625 C 135.863281 321.546875 135.738281 321.3125 135.640625 321.070312 C 135.539062 320.824219 135.460938 320.574219 135.410156 320.316406 C 135.355469 320.054688 135.332031 319.792969 135.332031 319.53125 L 135.332031 251.082031 L 207.804688 251.082031 C 208.066406 251.082031 208.328125 251.058594 208.589844 251.003906 C 208.847656 250.953125 209.101562 250.878906 209.34375 250.777344 C 209.589844 250.675781 209.820312 250.550781 210.039062 250.40625 C 210.261719 250.257812 210.464844 250.089844 210.652344 249.902344 C 210.839844 249.714844 211.003906 249.511719 211.152344 249.292969 C 211.300781 249.074219 211.421875 248.839844 211.523438 248.597656 C 211.625 248.351562 211.703125 248.101562 211.753906 247.839844 C 211.804688 247.582031 211.832031 247.320312 211.832031 247.054688 C 211.832031 246.789062 211.804688 246.527344 211.753906 246.269531 C 211.703125 246.011719 211.625 245.757812 211.523438 245.515625 C 211.421875 245.269531 211.300781 245.039062 211.152344 244.816406 C 211.003906 244.597656 210.839844 244.394531 210.652344 244.207031 C 210.464844 244.019531 210.261719 243.851562 210.039062 243.707031 C 209.820312 243.558594 209.589844 243.433594 209.34375 243.332031 C 209.101562 243.234375 208.847656 243.15625 208.589844 243.105469 C 208.328125 243.054688 208.066406 243.027344 207.804688 243.027344 L 135.332031 243.027344 L 135.332031 230.953125 C 135.332031 230.6875 135.355469 230.425781 135.40625 230.167969 C 135.457031 229.90625 135.535156 229.65625 135.636719 229.410156 C 135.738281 229.167969 135.859375 228.933594 136.007812 228.714844 C 136.152344 228.496094 136.320312 228.292969 136.507812 228.105469 C 136.695312 227.917969 136.898438 227.75 137.117188 227.605469 C 137.339844 227.457031 137.570312 227.332031 137.8125 227.234375 C 138.058594 227.132812 138.3125 227.054688 138.570312 227.003906 C 138.828125 226.953125 139.089844 226.925781 139.355469 226.929688 L 147.410156 226.929688 C 147.933594 226.90625 148.429688 226.789062 148.902344 226.578125 C 149.378906 226.363281 149.796875 226.070312 150.15625 225.691406 C 150.519531 225.316406 150.796875 224.886719 150.988281 224.40625 C 151.183594 223.921875 151.28125 223.421875 151.28125 222.898438 C 151.28125 222.378906 151.183594 221.878906 150.988281 221.394531 C 150.796875 220.910156 150.519531 220.484375 150.15625 220.105469 C 149.796875 219.730469 149.378906 219.4375 148.902344 219.222656 C 148.429688 219.011719 147.933594 218.894531 147.410156 218.871094 L 139.355469 218.871094 C 138.5625 218.871094 137.777344 218.949219 137 219.105469 C 136.222656 219.261719 135.46875 219.488281 134.734375 219.792969 C 134.003906 220.097656 133.304688 220.46875 132.648438 220.910156 C 131.988281 221.351562 131.378906 221.851562 130.816406 222.414062 C 130.257812 222.972656 129.757812 223.582031 129.316406 224.242188 C 128.875 224.902344 128.503906 225.597656 128.199219 226.332031 C 127.898438 227.0625 127.667969 227.820312 127.511719 228.597656 C 127.359375 229.375 127.28125 230.160156 127.28125 230.953125 L 127.28125 319.53125 C 127.28125 320.324219 127.359375 321.109375 127.511719 321.886719 C 127.667969 322.664062 127.894531 323.417969 128.199219 324.152344 C 128.5 324.886719 128.875 325.582031 129.3125 326.242188 C 129.753906 326.898438 130.253906 327.507812 130.816406 328.070312 C 131.375 328.632812 131.988281 329.132812 132.644531 329.570312 C 133.304688 330.011719 134 330.382812 134.734375 330.6875 C 135.464844 330.992188 136.222656 331.21875 137 331.375 C 137.777344 331.527344 138.5625 331.605469 139.355469 331.605469 L 235.988281 331.605469 C 236.78125 331.605469 237.566406 331.527344 238.34375 331.375 C 239.125 331.21875 239.878906 330.992188 240.609375 330.6875 C 241.34375 330.382812 242.039062 330.011719 242.699219 329.570312 C 243.359375 329.132812 243.96875 328.632812 244.527344 328.070312 C 245.089844 327.507812 245.589844 326.898438 246.03125 326.242188 C 246.472656 325.582031 246.84375 324.886719 247.148438 324.152344 C 247.449219 323.417969 247.679688 322.664062 247.832031 321.886719 C 247.988281 321.109375 248.0625 320.324219 248.0625 319.53125 L 248.0625 230.953125 C 248.0625 230.160156 247.988281 229.375 247.832031 228.597656 C 247.675781 227.820312 247.449219 227.0625 247.144531 226.332031 C 246.839844 225.597656 246.46875 224.902344 246.027344 224.242188 C 245.589844 223.582031 245.089844 222.972656 244.527344 222.414062 C 243.96875 221.851562 243.355469 221.351562 242.699219 220.910156 C 242.039062 220.46875 241.34375 220.097656 240.609375 219.792969 C 239.878906 219.488281 239.125 219.261719 238.34375 219.105469 C 237.566406 218.949219 236.78125 218.871094 235.988281 218.871094 L 227.933594 218.871094 C 227.414062 218.894531 226.914062 219.011719 226.441406 219.222656 C 225.964844 219.4375 225.546875 219.730469 225.1875 220.105469 C 224.828125 220.484375 224.550781 220.910156 224.355469 221.394531 C 224.160156 221.878906 224.0625 222.378906 224.0625 222.898438 C 224.0625 223.421875 224.160156 223.921875 224.355469 224.40625 C 224.550781 224.886719 224.828125 225.316406 225.1875 225.691406 C 225.546875 226.070312 225.964844 226.363281 226.441406 226.578125 C 226.914062 226.789062 227.414062 226.90625 227.933594 226.929688 L 235.988281 226.929688 C 236.253906 226.925781 236.515625 226.953125 236.773438 227.003906 C 237.035156 227.054688 237.285156 227.132812 237.53125 227.234375 C 237.773438 227.332031 238.007812 227.457031 238.226562 227.605469 C 238.445312 227.75 238.652344 227.917969 238.835938 228.105469 C 239.023438 228.292969 239.191406 228.496094 239.339844 228.714844 C 239.484375 228.933594 239.609375 229.167969 239.710938 229.410156 C 239.8125 229.65625 239.886719 229.90625 239.9375 230.167969 C 239.988281 230.425781 240.015625 230.6875 240.015625 230.953125 Z M 240.015625 243.027344" fill-rule="evenodd"/><path fill="#FF7605" d="M 163.949219 266.71875 C 163.949219 267.070312 163.914062 267.421875 163.847656 267.769531 C 163.777344 268.117188 163.675781 268.453125 163.539062 268.78125 C 163.402344 269.109375 163.238281 269.417969 163.039062 269.714844 C 162.84375 270.007812 162.621094 270.28125 162.371094 270.53125 C 162.121094 270.78125 161.847656 271.003906 161.554688 271.203125 C 161.257812 271.398438 160.949219 271.5625 160.621094 271.699219 C 160.292969 271.835938 159.957031 271.9375 159.609375 272.007812 C 159.261719 272.074219 158.910156 272.109375 158.558594 272.109375 C 158.203125 272.109375 157.851562 272.074219 157.503906 272.007812 C 157.15625 271.9375 156.820312 271.835938 156.492188 271.699219 C 156.167969 271.5625 155.855469 271.398438 155.5625 271.203125 C 155.265625 271.003906 154.996094 270.78125 154.746094 270.53125 C 154.492188 270.28125 154.269531 270.007812 154.074219 269.714844 C 153.878906 269.417969 153.710938 269.109375 153.574219 268.78125 C 153.441406 268.453125 153.335938 268.117188 153.269531 267.769531 C 153.199219 267.421875 153.164062 267.070312 153.164062 266.71875 C 153.164062 266.363281 153.199219 266.011719 153.269531 265.667969 C 153.335938 265.320312 153.441406 264.980469 153.574219 264.65625 C 153.710938 264.328125 153.878906 264.015625 154.074219 263.722656 C 154.269531 263.429688 154.492188 263.15625 154.746094 262.90625 C 154.996094 262.65625 155.265625 262.429688 155.5625 262.234375 C 155.855469 262.039062 156.167969 261.871094 156.492188 261.734375 C 156.820312 261.601562 157.15625 261.5 157.503906 261.429688 C 157.851562 261.359375 158.203125 261.324219 158.558594 261.324219 C 158.910156 261.324219 159.261719 261.359375 159.609375 261.429688 C 159.957031 261.5 160.292969 261.601562 160.621094 261.734375 C 160.949219 261.871094 161.257812 262.039062 161.554688 262.234375 C 161.847656 262.429688 162.121094 262.65625 162.371094 262.90625 C 162.621094 263.15625 162.84375 263.429688 163.039062 263.722656 C 163.238281 264.015625 163.402344 264.328125 163.539062 264.65625 C 163.675781 264.980469 163.777344 265.320312 163.847656 265.667969 C 163.914062 266.011719 163.949219 266.363281 163.949219 266.71875 Z M 163.949219 266.71875"/><path fill="#FF7605" d="M 163.949219 285.589844 C 163.949219 285.945312 163.914062 286.296875 163.847656 286.644531 C 163.777344 286.988281 163.675781 287.328125 163.539062 287.652344 C 163.402344 287.980469 163.238281 288.292969 163.039062 288.585938 C 162.84375 288.882812 162.621094 289.152344 162.371094 289.402344 C 162.121094 289.652344 161.847656 289.878906 161.554688 290.074219 C 161.257812 290.269531 160.949219 290.4375 160.621094 290.574219 C 160.292969 290.707031 159.957031 290.808594 159.609375 290.878906 C 159.261719 290.949219 158.910156 290.984375 158.558594 290.984375 C 158.203125 290.984375 157.851562 290.949219 157.503906 290.878906 C 157.15625 290.808594 156.820312 290.707031 156.492188 290.574219 C 156.167969 290.4375 155.855469 290.269531 155.5625 290.074219 C 155.265625 289.878906 154.996094 289.652344 154.746094 289.402344 C 154.492188 289.152344 154.269531 288.882812 154.074219 288.585938 C 153.878906 288.292969 153.710938 287.980469 153.574219 287.652344 C 153.441406 287.328125 153.335938 286.988281 153.269531 286.644531 C 153.199219 286.296875 153.164062 285.945312 153.164062 285.589844 C 153.164062 285.238281 153.199219 284.886719 153.269531 284.539062 C 153.335938 284.191406 153.441406 283.855469 153.574219 283.527344 C 153.710938 283.199219 153.878906 282.890625 154.074219 282.59375 C 154.269531 282.300781 154.492188 282.027344 154.746094 281.777344 C 154.996094 281.527344 155.265625 281.304688 155.5625 281.105469 C 155.855469 280.910156 156.167969 280.746094 156.492188 280.609375 C 156.820312 280.472656 157.15625 280.371094 157.503906 280.300781 C 157.851562 280.234375 158.203125 280.199219 158.558594 280.199219 C 158.910156 280.199219 159.261719 280.234375 159.609375 280.300781 C 159.957031 280.371094 160.292969 280.472656 160.621094 280.609375 C 160.949219 280.746094 161.257812 280.910156 161.554688 281.105469 C 161.847656 281.304688 162.121094 281.527344 162.371094 281.777344 C 162.621094 282.027344 162.84375 282.300781 163.039062 282.59375 C 163.238281 282.890625 163.402344 283.199219 163.539062 283.527344 C 163.675781 283.855469 163.777344 284.191406 163.847656 284.539062 C 163.914062 284.886719 163.949219 285.238281 163.949219 285.589844 Z M 163.949219 285.589844"/><path fill="#FF7605" d="M 163.949219 304.464844 C 163.949219 304.816406 163.914062 305.167969 163.847656 305.515625 C 163.777344 305.863281 163.675781 306.199219 163.539062 306.527344 C 163.402344 306.855469 163.238281 307.164062 163.039062 307.460938 C 162.84375 307.753906 162.621094 308.027344 162.371094 308.277344 C 162.121094 308.527344 161.847656 308.75 161.554688 308.945312 C 161.257812 309.144531 160.949219 309.308594 160.621094 309.445312 C 160.292969 309.582031 159.957031 309.683594 159.609375 309.753906 C 159.261719 309.820312 158.910156 309.855469 158.558594 309.855469 C 158.203125 309.855469 157.851562 309.820312 157.503906 309.753906 C 157.15625 309.683594 156.820312 309.582031 156.492188 309.445312 C 156.167969 309.308594 155.855469 309.144531 155.5625 308.945312 C 155.265625 308.75 154.996094 308.527344 154.746094 308.277344 C 154.492188 308.027344 154.269531 307.753906 154.074219 307.460938 C 153.878906 307.164062 153.710938 306.855469 153.574219 306.527344 C 153.441406 306.199219 153.335938 305.863281 153.269531 305.515625 C 153.199219 305.167969 153.164062 304.816406 153.164062 304.464844 C 153.164062 304.109375 153.199219 303.757812 153.269531 303.410156 C 153.335938 303.0625 153.441406 302.726562 153.574219 302.398438 C 153.710938 302.074219 153.878906 301.761719 154.074219 301.46875 C 154.269531 301.171875 154.492188 300.902344 154.746094 300.652344 C 154.996094 300.398438 155.265625 300.175781 155.5625 299.980469 C 155.855469 299.785156 156.167969 299.617188 156.492188 299.480469 C 156.820312 299.347656 157.15625 299.242188 157.503906 299.175781 C 157.851562 299.105469 158.203125 299.070312 158.558594 299.070312 C 158.910156 299.070312 159.261719 299.105469 159.609375 299.175781 C 159.957031 299.242188 160.292969 299.347656 160.621094 299.480469 C 160.949219 299.617188 161.257812 299.785156 161.554688 299.980469 C 161.847656 300.175781 162.121094 300.398438 162.371094 300.652344 C 162.621094 300.902344 162.84375 301.171875 163.039062 301.46875 C 163.238281 301.761719 163.402344 302.074219 163.539062 302.398438 C 163.675781 302.726562 163.777344 303.0625 163.847656 303.410156 C 163.914062 303.757812 163.949219 304.109375 163.949219 304.464844 Z M 163.949219 304.464844"/><path fill="#FF7605" d="M 183.359375 266.71875 C 183.359375 267.070312 183.324219 267.421875 183.253906 267.769531 C 183.183594 268.117188 183.082031 268.453125 182.945312 268.78125 C 182.8125 269.109375 182.644531 269.417969 182.449219 269.714844 C 182.253906 270.007812 182.027344 270.28125 181.777344 270.53125 C 181.527344 270.78125 181.253906 271.003906 180.960938 271.203125 C 180.667969 271.398438 180.355469 271.5625 180.027344 271.699219 C 179.703125 271.835938 179.363281 271.9375 179.015625 272.007812 C 178.671875 272.074219 178.320312 272.109375 177.964844 272.109375 C 177.609375 272.109375 177.261719 272.074219 176.914062 272.007812 C 176.566406 271.9375 176.230469 271.835938 175.902344 271.699219 C 175.574219 271.5625 175.265625 271.398438 174.96875 271.203125 C 174.675781 271.003906 174.402344 270.78125 174.152344 270.53125 C 173.902344 270.28125 173.679688 270.007812 173.480469 269.714844 C 173.285156 269.417969 173.117188 269.109375 172.984375 268.78125 C 172.847656 268.453125 172.746094 268.117188 172.675781 267.769531 C 172.609375 267.421875 172.574219 267.070312 172.574219 266.71875 C 172.574219 266.363281 172.609375 266.011719 172.675781 265.667969 C 172.746094 265.320312 172.847656 264.980469 172.984375 264.65625 C 173.117188 264.328125 173.285156 264.015625 173.480469 263.722656 C 173.679688 263.429688 173.902344 263.15625 174.152344 262.90625 C 174.402344 262.65625 174.675781 262.429688 174.96875 262.234375 C 175.265625 262.039062 175.574219 261.871094 175.902344 261.734375 C 176.230469 261.601562 176.566406 261.5 176.914062 261.429688 C 177.261719 261.359375 177.609375 261.324219 177.964844 261.324219 C 178.320312 261.324219 178.671875 261.359375 179.015625 261.429688 C 179.363281 261.5 179.703125 261.601562 180.027344 261.734375 C 180.355469 261.871094 180.667969 262.039062 180.960938 262.234375 C 181.253906 262.429688 181.527344 262.65625 181.777344 262.90625 C 182.027344 263.15625 182.253906 263.429688 182.449219 263.722656 C 182.644531 264.015625 182.8125 264.328125 182.945312 264.65625 C 183.082031 264.980469 183.183594 265.320312 183.253906 265.667969 C 183.324219 266.011719 183.359375 266.363281 183.359375 266.71875 Z M 183.359375 266.71875"/><path fill="#FF7605" d="M 183.359375 285.589844 C 183.359375 285.945312 183.324219 286.296875 183.253906 286.644531 C 183.183594 286.988281 183.082031 287.328125 182.945312 287.652344 C 182.8125 287.980469 182.644531 288.292969 182.449219 288.585938 C 182.253906 288.882812 182.027344 289.152344 181.777344 289.402344 C 181.527344 289.652344 181.253906 289.878906 180.960938 290.074219 C 180.667969 290.269531 180.355469 290.4375 180.027344 290.574219 C 179.703125 290.707031 179.363281 290.808594 179.015625 290.878906 C 178.671875 290.949219 178.320312 290.984375 177.964844 290.984375 C 177.609375 290.984375 177.261719 290.949219 176.914062 290.878906 C 176.566406 290.808594 176.230469 290.707031 175.902344 290.574219 C 175.574219 290.4375 175.265625 290.269531 174.96875 290.074219 C 174.675781 289.878906 174.402344 289.652344 174.152344 289.402344 C 173.902344 289.152344 173.679688 288.882812 173.480469 288.585938 C 173.285156 288.292969 173.117188 287.980469 172.984375 287.652344 C 172.847656 287.328125 172.746094 286.988281 172.675781 286.644531 C 172.609375 286.296875 172.574219 285.945312 172.574219 285.589844 C 172.574219 285.238281 172.609375 284.886719 172.675781 284.539062 C 172.746094 284.191406 172.847656 283.855469 172.984375 283.527344 C 173.117188 283.199219 173.285156 282.890625 173.480469 282.59375 C 173.679688 282.300781 173.902344 282.027344 174.152344 281.777344 C 174.402344 281.527344 174.675781 281.304688 174.96875 281.105469 C 175.265625 280.910156 175.574219 280.746094 175.902344 280.609375 C 176.230469 280.472656 176.566406 280.371094 176.914062 280.300781 C 177.261719 280.234375 177.609375 280.199219 177.964844 280.199219 C 178.320312 280.199219 178.671875 280.234375 179.015625 280.300781 C 179.363281 280.371094 179.703125 280.472656 180.027344 280.609375 C 180.355469 280.746094 180.667969 280.910156 180.960938 281.105469 C 181.253906 281.304688 181.527344 281.527344 181.777344 281.777344 C 182.027344 282.027344 182.253906 282.300781 182.449219 282.59375 C 182.644531 282.890625 182.8125 283.199219 182.945312 283.527344 C 183.082031 283.855469 183.183594 284.191406 183.253906 284.539062 C 183.324219 284.886719 183.359375 285.238281 183.359375 285.589844 Z M 183.359375 285.589844"/><path fill="#FF7605" d="M 183.359375 304.464844 C 183.359375 304.816406 183.324219 305.167969 183.253906 305.515625 C 183.183594 305.863281 183.082031 306.199219 182.945312 306.527344 C 182.8125 306.855469 182.644531 307.164062 182.449219 307.460938 C 182.253906 307.753906 182.027344 308.027344 181.777344 308.277344 C 181.527344 308.527344 181.253906 308.75 180.960938 308.945312 C 180.667969 309.144531 180.355469 309.308594 180.027344 309.445312 C 179.703125 309.582031 179.363281 309.683594 179.015625 309.753906 C 178.671875 309.820312 178.320312 309.855469 177.964844 309.855469 C 177.609375 309.855469 177.261719 309.820312 176.914062 309.753906 C 176.566406 309.683594 176.230469 309.582031 175.902344 309.445312 C 175.574219 309.308594 175.265625 309.144531 174.96875 308.945312 C 174.675781 308.75 174.402344 308.527344 174.152344 308.277344 C 173.902344 308.027344 173.679688 307.753906 173.480469 307.460938 C 173.285156 307.164062 173.117188 306.855469 172.984375 306.527344 C 172.847656 306.199219 172.746094 305.863281 172.675781 305.515625 C 172.609375 305.167969 172.574219 304.816406 172.574219 304.464844 C 172.574219 304.109375 172.609375 303.757812 172.675781 303.410156 C 172.746094 303.0625 172.847656 302.726562 172.984375 302.398438 C 173.117188 302.074219 173.285156 301.761719 173.480469 301.46875 C 173.679688 301.171875 173.902344 300.902344 174.152344 300.652344 C 174.402344 300.398438 174.675781 300.175781 174.96875 299.980469 C 175.265625 299.785156 175.574219 299.617188 175.902344 299.480469 C 176.230469 299.347656 176.566406 299.242188 176.914062 299.175781 C 177.261719 299.105469 177.609375 299.070312 177.964844 299.070312 C 178.320312 299.070312 178.671875 299.105469 179.015625 299.175781 C 179.363281 299.242188 179.703125 299.347656 180.027344 299.480469 C 180.355469 299.617188 180.667969 299.785156 180.960938 299.980469 C 181.253906 300.175781 181.527344 300.398438 181.777344 300.652344 C 182.027344 300.902344 182.253906 301.171875 182.449219 301.46875 C 182.644531 301.761719 182.8125 302.074219 182.945312 302.398438 C 183.082031 302.726562 183.183594 303.0625 183.253906 303.410156 C 183.324219 303.757812 183.359375 304.109375 183.359375 304.464844 Z M 183.359375 304.464844"/><path fill="#FF7605" d="M 202.773438 266.71875 C 202.773438 267.070312 202.738281 267.421875 202.667969 267.769531 C 202.597656 268.117188 202.496094 268.453125 202.363281 268.78125 C 202.226562 269.109375 202.058594 269.417969 201.863281 269.714844 C 201.667969 270.007812 201.441406 270.28125 201.191406 270.53125 C 200.941406 270.78125 200.667969 271.003906 200.375 271.203125 C 200.082031 271.398438 199.769531 271.5625 199.441406 271.699219 C 199.117188 271.835938 198.777344 271.9375 198.433594 272.007812 C 198.085938 272.074219 197.734375 272.109375 197.378906 272.109375 C 197.027344 272.109375 196.675781 272.074219 196.328125 272.007812 C 195.980469 271.9375 195.644531 271.835938 195.316406 271.699219 C 194.988281 271.5625 194.679688 271.398438 194.382812 271.203125 C 194.089844 271.003906 193.816406 270.78125 193.566406 270.53125 C 193.316406 270.28125 193.09375 270.007812 192.894531 269.714844 C 192.699219 269.417969 192.535156 269.109375 192.398438 268.78125 C 192.261719 268.453125 192.160156 268.117188 192.089844 267.769531 C 192.023438 267.421875 191.988281 267.070312 191.988281 266.71875 C 191.988281 266.363281 192.023438 266.011719 192.089844 265.667969 C 192.160156 265.320312 192.261719 264.980469 192.398438 264.65625 C 192.535156 264.328125 192.699219 264.015625 192.894531 263.722656 C 193.09375 263.429688 193.316406 263.15625 193.566406 262.90625 C 193.816406 262.65625 194.089844 262.429688 194.382812 262.234375 C 194.679688 262.039062 194.988281 261.871094 195.316406 261.734375 C 195.644531 261.601562 195.980469 261.5 196.328125 261.429688 C 196.675781 261.359375 197.027344 261.324219 197.378906 261.324219 C 197.734375 261.324219 198.085938 261.359375 198.433594 261.429688 C 198.777344 261.5 199.117188 261.601562 199.441406 261.734375 C 199.769531 261.871094 200.082031 262.039062 200.375 262.234375 C 200.667969 262.429688 200.941406 262.65625 201.191406 262.90625 C 201.441406 263.15625 201.667969 263.429688 201.863281 263.722656 C 202.058594 264.015625 202.226562 264.328125 202.363281 264.65625 C 202.496094 264.980469 202.597656 265.320312 202.667969 265.667969 C 202.738281 266.011719 202.773438 266.363281 202.773438 266.71875 Z M 202.773438 266.71875"/><path fill="#FF7605" d="M 222.179688 266.71875 C 222.179688 267.070312 222.144531 267.421875 222.078125 267.769531 C 222.007812 268.117188 221.90625 268.453125 221.769531 268.78125 C 221.632812 269.109375 221.46875 269.417969 221.269531 269.714844 C 221.074219 270.007812 220.851562 270.28125 220.601562 270.53125 C 220.351562 270.78125 220.078125 271.003906 219.785156 271.203125 C 219.488281 271.398438 219.179688 271.5625 218.851562 271.699219 C 218.523438 271.835938 218.1875 271.9375 217.839844 272.007812 C 217.492188 272.074219 217.140625 272.109375 216.789062 272.109375 C 216.433594 272.109375 216.082031 272.074219 215.734375 272.007812 C 215.386719 271.9375 215.050781 271.835938 214.722656 271.699219 C 214.398438 271.5625 214.085938 271.398438 213.792969 271.203125 C 213.496094 271.003906 213.226562 270.78125 212.976562 270.53125 C 212.726562 270.28125 212.5 270.007812 212.304688 269.714844 C 212.109375 269.417969 211.941406 269.109375 211.804688 268.78125 C 211.671875 268.453125 211.566406 268.117188 211.5 267.769531 C 211.429688 267.421875 211.394531 267.070312 211.394531 266.71875 C 211.394531 266.363281 211.429688 266.011719 211.5 265.667969 C 211.566406 265.320312 211.671875 264.980469 211.804688 264.65625 C 211.941406 264.328125 212.109375 264.015625 212.304688 263.722656 C 212.5 263.429688 212.722656 263.15625 212.976562 262.90625 C 213.226562 262.65625 213.496094 262.429688 213.792969 262.234375 C 214.085938 262.039062 214.398438 261.871094 214.722656 261.734375 C 215.050781 261.601562 215.386719 261.5 215.734375 261.429688 C 216.082031 261.359375 216.433594 261.324219 216.789062 261.324219 C 217.140625 261.324219 217.492188 261.359375 217.839844 261.429688 C 218.1875 261.5 218.523438 261.601562 218.851562 261.734375 C 219.179688 261.871094 219.488281 262.039062 219.785156 262.234375 C 220.078125 262.429688 220.351562 262.65625 220.601562 262.90625 C 220.851562 263.15625 221.074219 263.429688 221.269531 263.722656 C 221.46875 264.015625 221.632812 264.328125 221.769531 264.65625 C 221.90625 264.980469 222.007812 265.320312 222.078125 265.667969 C 222.144531 266.011719 222.179688 266.363281 222.179688 266.71875 Z M 222.179688 266.71875"/><path fill="#FF7605" d="M 201.40625 300.4375 L 212.761719 300.4375 L 212.761719 289.617188 L 201.40625 289.617188 Z M 193.355469 289.621094 L 193.355469 300.4375 C 193.355469 300.96875 193.40625 301.492188 193.507812 302.007812 C 193.613281 302.527344 193.765625 303.03125 193.96875 303.519531 C 194.167969 304.007812 194.417969 304.472656 194.710938 304.914062 C 195.003906 305.351562 195.339844 305.757812 195.710938 306.132812 C 196.085938 306.507812 196.492188 306.839844 196.933594 307.132812 C 197.371094 307.429688 197.835938 307.675781 198.324219 307.878906 C 198.8125 308.082031 199.316406 308.234375 199.832031 308.339844 C 200.351562 308.441406 200.875 308.496094 201.40625 308.496094 L 212.761719 308.496094 C 213.292969 308.496094 213.816406 308.441406 214.335938 308.339844 C 214.851562 308.238281 215.355469 308.082031 215.847656 307.882812 C 216.335938 307.679688 216.800781 307.429688 217.238281 307.136719 C 217.679688 306.84375 218.085938 306.507812 218.460938 306.136719 C 218.832031 305.761719 219.167969 305.355469 219.460938 304.914062 C 219.753906 304.472656 220.003906 304.011719 220.207031 303.523438 C 220.410156 303.03125 220.5625 302.527344 220.664062 302.011719 C 220.765625 301.492188 220.820312 300.96875 220.820312 300.4375 L 220.820312 289.621094 C 220.820312 289.089844 220.769531 288.566406 220.667969 288.046875 C 220.566406 287.523438 220.417969 287.019531 220.214844 286.527344 C 220.015625 286.039062 219.765625 285.574219 219.472656 285.128906 C 219.179688 284.6875 218.84375 284.28125 218.472656 283.90625 C 218.097656 283.527344 217.6875 283.195312 217.25 282.898438 C 216.808594 282.601562 216.34375 282.351562 215.851562 282.148438 C 215.363281 281.945312 214.859375 281.792969 214.339844 281.6875 C 213.820312 281.585938 213.292969 281.535156 212.761719 281.535156 L 201.40625 281.535156 C 200.875 281.535156 200.351562 281.585938 199.828125 281.691406 C 199.308594 281.792969 198.804688 281.949219 198.316406 282.152344 C 197.828125 282.355469 197.363281 282.605469 196.921875 282.898438 C 196.480469 283.195312 196.074219 283.53125 195.699219 283.90625 C 195.328125 284.28125 194.992188 284.691406 194.699219 285.132812 C 194.40625 285.574219 194.160156 286.039062 193.957031 286.53125 C 193.757812 287.019531 193.605469 287.527344 193.503906 288.046875 C 193.402344 288.566406 193.351562 289.09375 193.355469 289.621094 Z M 193.355469 289.621094" fill-rule="evenodd"/><path fill="#BF5414" d="M 168.566406 80.878906 C 179.429688 83.96875 191.085938 82.566406 200.914062 77 L 249.644531 116.644531 C 250.65625 117.457031 251.53125 118.472656 252.179688 119.589844 L 266.023438 106.875 L 239.449219 64.246094 L 223.535156 70.078125 L 202.699219 62.621094 C 198.339844 61.058594 193.515625 61.707031 189.707031 64.328125 C 183.097656 68.898438 175.921875 72.59375 168.382812 75.296875 C 166.863281 75.863281 166.070312 77.53125 166.621094 79.054688 C 166.945312 79.945312 167.652344 80.636719 168.566406 80.878906"/><g clip-path="url(#b)"><path fill="#BF5414" d="M 172.640625 142.925781 C 173.390625 136.628906 168.890625 130.945312 162.605469 130.210938 C 161.835938 130.109375 161.046875 130.109375 160.273438 130.191406 C 161.773438 124.039062 158.046875 117.824219 151.902344 116.28125 C 148.398438 115.40625 144.667969 116.261719 141.871094 118.574219 L 141.101562 119.203125 C 141.039062 112.867188 135.851562 107.789062 129.527344 107.871094 C 126.910156 107.890625 124.398438 108.828125 122.371094 110.492188 L 115.054688 116.5625 L 108.363281 111.648438 L 136.234375 65.667969 C 145.417969 65.890625 154.597656 65.585938 163.742188 64.753906 C 170.226562 62.722656 177.078125 62.15625 183.808594 63.109375 C 178.496094 66.421875 172.820312 69.164062 166.945312 71.292969 C 163.195312 72.636719 161.269531 76.757812 162.605469 80.496094 C 163.398438 82.6875 165.179688 84.355469 167.410156 84.984375 C 178.394531 88.109375 190.132812 87.074219 200.410156 82.078125 L 246.96875 119.957031 C 249.886719 122.332031 250.3125 126.636719 247.941406 129.5625 C 245.671875 132.363281 241.617188 132.894531 238.699219 130.820312 L 203.855469 105.738281 C 202.902344 105.050781 201.585938 105.292969 200.894531 106.246094 C 200.226562 107.203125 200.449219 108.5 201.382812 109.191406 L 234.988281 133.402344 C 238.210938 135.738281 238.921875 140.246094 236.609375 143.453125 C 234.300781 146.664062 229.820312 147.394531 226.617188 145.097656 L 194.875 122.25 C 193.902344 121.582031 192.566406 121.84375 191.917969 122.800781 C 191.265625 123.753906 191.492188 125.035156 192.402344 125.703125 L 220.394531 145.871094 C 223.617188 148.1875 224.347656 152.695312 222.035156 155.925781 C 219.726562 159.152344 215.226562 159.882812 212.003906 157.570312 L 185.671875 138.621094 C 184.71875 137.929688 183.382812 138.171875 182.714844 139.128906 C 182.042969 140.082031 182.246094 141.382812 183.179688 142.074219 L 203.347656 156.59375 C 206.1875 158.664062 206.835938 162.667969 204.765625 165.511719 C 202.699219 168.351562 198.746094 169.003906 195.890625 166.972656 L 185.570312 159.519531 C 188.59375 153.972656 186.542969 147.007812 181.011719 143.960938 C 178.457031 142.558594 175.457031 142.195312 172.640625 142.925781"/></g><path fill="#BF5414" d="M 125.753906 131.898438 L 134.226562 124.890625 C 137.289062 122.351562 137.695312 117.804688 135.160156 114.757812 C 132.628906 111.710938 128.148438 111.285156 125.085938 113.78125 L 116.613281 120.808594 C 113.574219 123.386719 113.207031 127.917969 115.761719 130.945312 C 118.296875 133.929688 122.714844 134.355469 125.753906 131.898438"/><path fill="#BF5414" d="M 153.726562 132.972656 C 156.769531 130.414062 157.152344 125.867188 154.597656 122.820312 C 152.085938 119.835938 147.625 119.386719 144.585938 121.863281 L 129.242188 134.558594 C 126.203125 137.097656 125.777344 141.648438 128.308594 144.691406 C 130.84375 147.738281 135.34375 148.164062 138.382812 145.667969 L 153.726562 132.972656"/><path fill="#BF5414" d="M 153.847656 157.082031 L 165.847656 147.148438 C 168.910156 144.613281 169.316406 140.0625 166.78125 137.015625 C 164.246094 133.96875 159.746094 133.542969 156.707031 136.0625 L 144.707031 145.972656 C 141.648438 148.511719 141.242188 153.058594 143.773438 156.105469 C 146.308594 159.152344 150.789062 159.578125 153.847656 157.082031"/><g clip-path="url(#c)"><path fill="#BF5414" d="M 170.9375 148.46875 L 162.992188 155.050781 C 159.949219 157.589844 159.523438 162.140625 162.058594 165.183594 C 164.59375 168.230469 169.09375 168.65625 172.132812 166.160156 L 180.097656 159.578125 C 183.140625 157.042969 183.566406 152.492188 181.03125 149.445312 C 178.496094 146.398438 173.996094 145.972656 170.9375 148.46875"/></g><g clip-path="url(#d)"><path fill="#BF5414" d="M 138.890625 53.097656 L 98.9375 118.980469 L 73.316406 103.382812 L 113.269531 37.5 L 138.890625 53.097656"/></g><path fill="#BF5414" d="M 263.773438 38.496094 L 301.636719 99.242188 L 276.199219 115.144531 L 238.335938 54.417969 L 263.773438 38.496094"/></svg>